<svg width="31" height="37" viewBox="0 0 31 37" fill="none" xmlns="http://www.w3.org/2000/svg">
<rect width="28.9756" height="34.5003" fill="black" fill-opacity="0" transform="translate(1 1)"/>
<path d="M17 30.4003C15.6 32.1003 13.4 33.2003 11 33.2003C6.70001 33.2003 3.3 29.7003 3.3 25.5003C3.3 22.8003 5.50001 20.1003 6.50001 19.4003V16.8003C3.40001 18.5003 1.00001 21.7003 1.00001 25.5003C1.00001 31.0003 5.50001 35.5003 11 35.5003C14.6 35.5003 17.7 33.5003 19.4 30.8003C19.3 30.5003 19.1 30.2003 19 29.9003C18.3 30.2003 17.7 30.3003 17 30.4003Z" fill="#00AEEF" stroke="#00AEEF" stroke-width="1.002"/>
<path fill-rule="evenodd" clip-rule="evenodd" d="M12.3999 1.50102C10.4675 1.50102 8.90093 3.06758 8.90093 5.00002C8.90093 6.93247 10.4675 8.49902 12.3999 8.49902C14.3324 8.49902 15.8989 6.93247 15.8989 5.00002C15.8989 3.06758 14.3324 1.50102 12.3999 1.50102ZM7.89893 5.00002C7.89893 2.51419 9.91409 0.499023 12.3999 0.499023C14.8858 0.499023 16.9009 2.51419 16.9009 5.00002C16.9009 7.48586 14.8858 9.50102 12.3999 9.50102C9.91409 9.50102 7.89893 7.48586 7.89893 5.00002Z" fill="#003A70"/>
<path fill-rule="evenodd" clip-rule="evenodd" d="M8.59912 12.9003C8.59912 11.2236 10.0235 9.79932 11.7002 9.79932C13.4894 9.79932 14.8011 11.2363 14.8011 12.9003V21.2733L22.6036 19.5085L22.6178 19.5061C24.028 19.2711 25.4568 19.9743 26.0562 21.293L26.0592 21.2995L30.2637 30.9099L30.2677 30.9205C30.859 32.4578 30.1586 34.2607 28.58 34.8679L28.5693 34.872L28.5585 34.8756C28.2447 34.9802 27.7827 35.1013 27.4001 35.1013C26.339 35.1013 25.1294 34.5147 24.6373 33.2923L21.5048 25.983L12.4173 28.0875C11.4605 28.3252 10.4986 28.0845 9.77939 27.4852C9.08899 26.9099 8.59912 26.0775 8.59912 25.1003V12.9003ZM11.7002 10.8013C10.5768 10.8013 9.60112 11.777 9.60112 12.9003V25.1003C9.60112 25.7232 9.91125 26.2908 10.4209 26.7154C10.9005 27.1152 11.5369 27.2747 12.1786 27.1143L12.1871 27.1122L22.0955 24.8176L25.5654 32.9142C25.8748 33.6877 26.6629 34.0993 27.4001 34.0993C27.6147 34.0993 27.9468 34.0224 28.2306 33.9287C29.2418 33.5331 29.7367 32.3468 29.3364 31.2902L25.1426 21.7046C24.743 20.8292 23.78 20.3342 22.796 20.4923L13.7991 22.5273V12.9003C13.7991 11.7643 12.9109 10.8013 11.7002 10.8013Z" fill="#003A70"/>
</svg>
