<svg width="35" height="31" viewBox="0 0 35 31" fill="none" xmlns="http://www.w3.org/2000/svg">
<rect width="35" height="30.4032" fill="black" fill-opacity="0"/>
<path d="M34.0978 14.6172H30.67L31.7525 12.8131C31.9329 12.5424 31.8427 12.2718 31.572 12.1816C31.3014 12.0012 31.0308 12.0914 30.9406 12.362L29.5875 14.7074H26.9715L29.6777 10.0167C29.8581 9.74605 29.7679 9.47543 29.4973 9.38523C29.2267 9.29502 28.9561 9.29502 28.8659 9.56564L25.8891 14.7074H20.8375L19.3942 12.0914L21.8298 7.85172H27.7834C28.054 7.85172 28.2344 7.67131 28.2344 7.40069C28.2344 7.13008 28.054 6.94966 27.7834 6.94966H22.371L23.7241 4.69451H26.3401C26.6107 4.69451 26.8813 4.5141 26.8813 4.24348C26.8813 3.97286 26.7009 3.79245 26.3401 3.79245H24.2653L25.9793 0.815639C26.0695 0.545021 26.0695 0.274405 25.7989 0.184199C25.5282 0.00378636 25.2576 0.0939898 25.1674 0.364608L23.4535 3.34142L22.371 1.53729C22.1906 1.26667 21.92 1.17646 21.7396 1.35687C21.469 1.53728 21.3787 1.80791 21.5591 1.98832L22.9122 4.33367L21.5591 6.58883L18.853 1.89811C18.6726 1.62749 18.4019 1.53729 18.2215 1.7177C17.9509 1.89811 17.8607 2.16873 18.0411 2.34914L21.0179 7.49089L18.5824 11.7306H17.5901V12.7229H18.5824L18.853 13.1739L19.755 14.7976L20.0257 15.2486L19.755 15.6997L18.853 17.3234L18.5824 17.7744H17.5901V18.7667H18.6726L21.1081 23.0064L18.1313 28.1481C18.0411 28.4187 18.0411 28.6894 18.3117 28.7796C18.402 28.8698 18.4921 28.8698 18.5824 28.8698C18.7628 28.8698 18.9432 28.7796 19.0334 28.5991L21.7396 23.9084L23.0927 26.1636L21.7396 28.5089C21.6494 28.7796 21.6494 29.0502 21.92 29.1404C22.0102 29.2306 22.1004 29.2306 22.1906 29.2306C22.371 29.2306 22.5514 29.1404 22.6416 28.96L23.7241 27.1558L25.438 30.1326C25.5282 30.3131 25.7087 30.4033 25.8891 30.4033C25.9793 30.4033 26.0695 30.4033 26.1597 30.3131C26.4303 30.2229 26.5205 29.862 26.3401 29.6816L24.6262 26.7048H26.7009C26.9715 26.7048 27.1519 26.5244 27.1519 26.2538C27.1519 25.9832 26.9715 25.8027 26.7009 25.8027H24.0849L22.7318 23.5476H28.1442C28.4148 23.5476 28.5952 23.3672 28.5952 23.0966C28.5952 22.8259 28.4148 22.6455 28.1442 22.6455H22.1906L19.755 18.4058L21.1983 15.7899H26.1597L29.1365 20.9316C29.2267 21.112 29.4071 21.2022 29.5875 21.2022C29.6777 21.2022 29.7679 21.2022 29.8581 21.112C30.1287 21.0218 30.219 20.661 30.0386 20.4806L27.3324 15.7899H29.9483L31.3014 18.1352C31.3916 18.3156 31.5721 18.4058 31.7525 18.4058C31.8427 18.4058 31.9329 18.4058 32.0231 18.3156C32.2937 18.1352 32.3839 17.8646 32.2035 17.6842L31.121 15.8801H34.5489C34.8195 15.8801 34.9999 15.6997 34.9999 15.429C34.6391 14.8878 34.3685 14.6172 34.0978 14.6172Z" fill="#009BDB"/>
<path d="M13.5309 22.916L15.9665 18.6763H16.8686V17.6841H15.9665L15.6959 17.233L14.7938 15.6093L14.5232 15.1583L14.7938 14.7073L15.6959 13.0835L15.9665 12.6325H16.8686V11.6403H15.9665L13.5309 7.40057L16.5077 2.2588C16.5979 1.98819 16.5979 1.71757 16.3273 1.62736C16.0567 1.53716 15.7861 1.53715 15.6959 1.80777L12.9897 6.49851L11.6366 4.24335L12.9897 1.89798C13.1701 1.62737 13.0799 1.35675 12.8093 1.26654C12.5387 1.17634 12.268 1.17634 12.1778 1.44695L11.0954 3.25108L9.38143 0.274271C9.29123 0.00365224 8.93042 -0.0865512 8.75001 0.0938612C8.47939 0.274274 8.38917 0.544889 8.56958 0.725302L10.2835 3.70211H8.20876C7.93815 3.70211 7.66752 3.88252 7.66752 4.15314C7.66752 4.42376 7.84794 4.60417 8.20876 4.60417H10.8247L12.1778 6.85933H6.76546C6.49484 6.85933 6.31443 7.03974 6.31443 7.31036C6.31443 7.58097 6.49484 7.76139 6.76546 7.76139H12.7191L15.1547 12.0011L13.7113 14.6171H8.75001L5.77319 9.4753C5.59277 9.20468 5.32217 9.11448 5.14176 9.29489C4.87114 9.4753 4.78092 9.74592 4.96134 9.92633L7.66752 14.6171H5.05155L3.69845 12.2717C3.51804 12.0011 3.24741 11.9109 3.067 12.0913C2.79638 12.1815 2.70619 12.5423 2.8866 12.7227L3.96906 14.5269H0.541237C0.270619 14.5269 0.0902007 14.7073 -5.50575e-06 14.9779C-5.50575e-06 15.2485 0.180407 15.4289 0.451025 15.4289H3.87888L2.79639 17.233C2.70619 17.5037 2.7062 17.7743 2.97682 17.8645C3.06702 17.9547 3.15722 17.9547 3.24742 17.9547C3.42784 17.9547 3.60825 17.8645 3.69845 17.6841L5.05155 15.3387H7.66752L4.96134 20.0294C4.87113 20.3001 4.87114 20.5707 5.14176 20.6609C5.23196 20.6609 5.32216 20.7511 5.41237 20.7511C5.59278 20.7511 5.77319 20.6609 5.8634 20.4805L8.84022 15.3387H13.8016L15.2448 17.9547L12.8093 22.1944H6.85567C6.58505 22.1944 6.40464 22.3748 6.40464 22.6454C6.40464 22.916 6.58505 23.0964 6.85567 23.0964H12.268L10.9149 25.3516H8.29898C8.02836 25.3516 7.84794 25.532 7.84794 25.8026C7.84794 26.0732 8.02836 26.2537 8.29898 26.2537H10.3737L8.65979 29.2305C8.56959 29.5011 8.5696 29.7717 8.84022 29.8619C8.93042 29.8619 9.02062 29.9521 9.11083 29.9521C9.29124 29.9521 9.47165 29.8619 9.56186 29.6815L11.2758 26.7047L12.3583 28.5088C12.4485 28.6892 12.6289 28.7794 12.8093 28.7794C12.8995 28.7794 12.9897 28.7794 13.0799 28.6892C13.3505 28.5088 13.3505 28.2382 13.2603 28.0578L11.9072 25.7124L13.2603 23.4573L15.9665 28.148C16.0567 28.3284 16.2371 28.4186 16.4175 28.4186C16.5077 28.4186 16.5979 28.4186 16.6881 28.3284C16.9588 28.2382 17.049 27.8774 16.8686 27.697L13.5309 22.916Z" fill="#213C6D"/>
</svg>
