<svg width="35" height="35" viewBox="0 0 35 35" fill="none" xmlns="http://www.w3.org/2000/svg">
<rect width="33.4167" height="33.4" fill="black" fill-opacity="0" transform="translate(1 1)"/>
<path d="M30.3398 31.8003C29.7398 31.8003 29.2398 32.3003 29.2398 32.9003C29.2398 33.5003 29.7398 34.0003 30.3398 34.0003C30.9398 34.0003 31.4397 33.5003 31.4397 32.9003C31.4397 32.2003 30.9398 31.8003 30.3398 31.8003Z" fill="#00AEEF"/>
<path d="M27.2401 31.8003C26.6401 31.8003 26.1401 32.3003 26.1401 32.9003C26.1401 33.5003 26.6401 34.0003 27.2401 34.0003C27.8401 34.0003 28.3401 33.5003 28.3401 32.9003C28.3401 32.2003 27.8401 31.8003 27.2401 31.8003Z" fill="#00AEEF"/>
<rect width="33.4167" height="33.4" fill="black" fill-opacity="0" transform="translate(1 1)"/>
<path d="M29.0401 27.1003L28.5401 27.2003C28.3401 27.2003 28.1401 27.2003 28.0401 27.1003C27.7401 27.0003 27.5401 26.9003 27.3401 26.6003L24.9401 23.2003C24.6401 22.8003 24.6401 22.3003 24.8401 21.9003C24.9401 21.4003 25.4401 21.1003 25.9401 21.2003C26.1401 21.2003 26.4401 21.2003 26.6401 21.3003L30.5401 22.0003C31.0401 22.1003 31.34 22.6003 31.24 23.1003C31.14 23.5003 30.8401 23.8003 30.4401 23.9003H30.24L28.3401 23.6003L29.5401 25.2003C29.5401 25.2003 29.5401 25.2003 29.5401 25.3003C31.6401 25.0003 33.0401 25.0003 34.3401 27.8003C34.5401 28.3003 34.3401 28.8003 33.8401 29.0003C33.7401 29.0003 33.6401 29.1003 33.5401 29.1003C33.1401 29.1003 32.7401 28.9003 32.6401 28.6003C31.8401 26.7003 31.5401 26.7003 29.0401 27.1003Z" fill="#00AEEF"/>
<path d="M24.2399 17.2004C23.2399 17.3004 22.4399 18.2004 22.4399 19.2004C22.5399 20.2004 23.4399 21.0004 24.4399 20.9004C25.4399 20.8004 26.2399 19.9004 26.2399 18.9004C26.1399 17.9004 25.2399 17.1004 24.2399 17.2004Z" fill="#00AEEF"/>
<path d="M18.6401 16.8001C19.2401 16.5001 19.9401 16.7001 20.2401 17.2001L26.4401 27.9001H31.1401C31.7401 27.9001 32.3401 28.4001 32.3401 29.0001C32.3401 29.6001 31.8401 30.1001 31.2401 30.1001H25.8401C25.4401 30.1001 25.0401 29.9001 24.8401 29.5001L18.2401 18.2001C17.9401 17.8001 18.1401 17.1001 18.6401 16.8001Z" fill="#00AEEF"/>
<path d="M10.3401 0.999994C11.8401 0.999994 13.0401 2.2 13.0401 3.6C13.0401 5 11.8401 6.20001 10.3401 6.20001C8.84015 6.20001 7.64014 5 7.64014 3.6C7.74014 2.2 8.84015 0.999994 10.3401 0.999994Z" stroke="#003A70" stroke-width="1.002"/>
<path d="M11.94 11.8L12.84 13.6C12.94 13.8 13.04 14 13.24 14.1L15.44 15.7L17.24 17C17.44 17.2 17.64 17.2 17.94 17.2C18.34 17.2 18.74 17 19.04 16.7C19.44 16.1 19.34 15.4 18.74 15L18.14 14.6L17.94 14.4L14.94 12.3L12.94 8.20001C12.74 7.80001 12.34 7.49999 11.84 7.49999H7.93999C7.63999 7.49999 7.43999 7.8 7.43999 8.1L7.14 14.6C7.14 14.9 7.13999 15.5 6.93999 15.6C2.53999 18.1 2.93999 23.2 2.93999 23.2C2.83999 23.5 2.94001 23.7 3.24001 23.7H5.74001V26L1.24001 32.3C0.840006 32.9 0.939994 33.6 1.53999 34.1C1.73999 34.3 2.04001 34.3 2.24001 34.3C2.64001 34.3 3.04001 34.1 3.24001 33.8L8.03999 27.2C8.23999 27 8.24001 26.7 8.24001 26.5V23.8H8.84001L12.04 33.5C12.24 34 12.74 34.4 13.24 34.4C13.34 34.4 13.54 34.4 13.64 34.3C14.34 34.1 14.64 33.4 14.44 32.7L11.54 23.8H13.54C13.84 23.8 14.04 23.6 13.84 23.3C13.84 23.3 14.34 18.1 10.74 15.8C10.44 15.6 10.64 15.1 10.74 14.8L11.94 11.8Z" stroke="#003A70" stroke-width="1.002"/>
</svg>
