<svg width="35" height="35" viewBox="0 0 35 35" xmlns="http://www.w3.org/2000/svg" xmlns:xlink="http://www.w3.org/1999/xlink"><use xlink:href="#path0_stroke" transform="translate(1 3.26)" fill="#123A72"/><use xlink:href="#path1_fill" transform="translate(17.81)" fill="#3DAEF2"/><defs><path id="path0_stroke" d="M25.822 19.209l-.352.355.072.071.094.038.186-.464zm-3.598 0l.353.355-.353-.355zm-2.51 2.518l-.357-.35-.001.001.358.349zm-.692.127l.244-.436-.005-.003-.24.439zm-1.647-.863l-.267.423.002.001.265-.424zm-6.29-5.726l-.388.316.388-.316zM8.83 11.653l.46-.193v-.001l-.46.194zm.127-.665l-.348-.359-.006.006.354.354zm2.487-2.48l.355.353-.354-.353zm-.007-3.683l-.356.35.002.002.354-.353zm-1.97-1.98l.356-.352-.003-.003-.352.354zM7.435.81l.35-.357-.001-.002-.35.359zm-3.6.008l.35.356-.35-.356zM1.312 3.325l.343.364.001-.001-.344-.363zM.025 6.09l-.499-.039v.002l.499.038zm.905 5.04l.468-.174v-.001l-.468.175zm5.438 9.059l.382-.322-.382.322zm11.14 8.715l.218-.45-.218.45zm6.17 1.797l-.028.499.027-.5zm3.88-1.48l-.373-.334-.001.001.373.332zm2.3-2.31l.354.352.002-.001-.356-.351zm.012-3.663l.355-.353-.355.353zm-4.044-4.037l.353-.354-.072-.072-.095-.038-.186.465zm.347-.357c-.63-.622-1.375-.966-2.153-.966s-1.521.344-2.148.967l.705.71c.475-.473.976-.677 1.443-.677.467 0 .97.204 1.45.677l.703-.711zm-4.3 0a212.34 212.34 0 0 0-2.516 2.524l.716.699c.824-.846 1.662-1.678 2.504-2.512l-.705-.71zm-2.517 2.525a.481.481 0 0 1-.078.069c-.011.007-.006.002.011-.002a.112.112 0 0 1 .035-.001.253.253 0 0 1-.058-.026l-.49.872c.2.111.44.19.708.136.256-.051.447-.204.59-.351l-.718-.697zm-.095.037c-.568-.31-1.134-.543-1.622-.849l-.529.849c.56.346 1.152.593 1.672.877l.48-.877zm-1.62-.848c-2.396-1.503-4.378-3.42-6.169-5.617l-.775.632c1.83 2.24 3.931 4.269 6.411 5.832l.533-.847zm-6.169-5.617c-.884-1.086-1.645-2.206-2.181-3.49l-.922.387c.579 1.374 1.416 2.614 2.328 3.734l.775-.631zM9.29 11.459c-.04-.095-.024-.101-.03-.07-.006.035-.02.024.05-.047l-.707-.707a1.09 1.09 0 0 0-.327.58c-.043.241.019.458.093.633l.921-.389zm.014-.111c.845-.818 1.668-1.655 2.495-2.487l-.71-.705c-.828.834-1.645 1.665-2.48 2.473l.695.719zM11.8 8.86c.645-.65 1.01-1.399 1.009-2.193-.002-.793-.368-1.544-1.016-2.196l-.71.705c.512.515.725 1.026.726 1.493 0 .466-.21.975-.718 1.486l.71.705zm-.005-4.387c-.656-.667-1.313-1.317-1.971-1.981l-.71.703c.661.668 1.316 1.318 1.968 1.98l.713-.702zM9.82 2.49C9.143 1.816 8.471 1.128 7.784.454l-.7.713c.68.668 1.348 1.352 2.03 2.032l.706-.709zM7.783.452C7.153-.162 6.408-.5 5.63-.5c-.777.001-1.52.343-2.149.963l.703.711C4.662.704 5.164.501 5.632.5c.47 0 .973.201 1.453.669l.698-.717zm-4.3.01C2.63 1.3 1.82 2.152.967 2.963l.69.725C2.526 2.859 3.342 2 4.183 1.175l-.7-.713zm-2.515 2.5C.102 3.794-.376 4.887-.474 6.05l.997.079c.072-1 .398-1.76 1.132-2.44l-.687-.727zm-1.442 3.09c-.133 1.842.319 3.608.935 5.253l.937-.351C.798 9.359.388 7.805.523 6.127l-.997-.075zm.935 5.252c1.267 3.398 3.205 6.451 5.524 9.206l.765-.645c-2.277-2.701-4.127-5.608-5.352-8.91l-.937.349zm5.524 9.205c3.138 3.728 6.924 6.712 11.304 8.843l.437-.9c-4.286-2.078-7.908-4.934-10.976-8.586l-.765.643zm11.304 8.843c1.974.96 4.091 1.716 6.361 1.847l.055-.999c-2.126-.111-4.053-.81-5.979-1.747l-.437.9zM23.65 31.2c1.626.089 3.104-.325 4.281-1.647l-.747-.665c-.927 1.042-2.079 1.39-3.48 1.313l-.054.999zm4.28-1.646c.704-.787 1.508-1.512 2.282-2.291l-.71-.705c-.755.76-1.577 1.504-2.317 2.329l.745.667zm2.284-2.292c.635-.645.992-1.398.995-2.187.003-.79-.349-1.54-.984-2.18l-.71.705c.49.492.696 1 .694 1.471-.002.474-.213.987-.707 1.488l.712.703zm.011-4.367a1020.049 1020.049 0 0 0-4.046-4.038l-.705.71c1.351 1.342 2.7 2.684 4.042 4.033l.709-.705zm-4.213-4.148l-.005-.002-.371.929.005.002.371-.929z"/><path id="path1_fill" fill-rule="evenodd" d="M7.658 16.837l2.61-.445a11.653 11.653 0 0 0-3.26-6.29A11.587 11.587 0 0 0 .364 6.786L0 9.408a9 9 0 0 1 5.146 2.566 8.986 8.986 0 0 1 2.516 4.863h-.004zM11.738 5.5A19.21 19.21 0 0 0 .708 0L.341 2.622a16.683 16.683 0 0 1 9.527 4.75 16.67 16.67 0 0 1 4.672 9.013l2.607-.445A19.361 19.361 0 0 0 11.733 5.5h.005z"/></defs></svg>