<svg width="23" height="36" viewBox="0 0 23 36" fill="none" xmlns="http://www.w3.org/2000/svg">
<rect width="22.0082" height="35.3543" fill="black" fill-opacity="0"/>
<path d="M10.0039 1.69971C10.0039 1.99971 9.80389 2.19971 9.50389 2.19971C9.20389 2.19971 9.00389 1.99971 9.00389 1.69971C9.00389 1.39971 9.20389 1.19971 9.50389 1.19971C9.70389 1.19971 10.0039 1.39971 10.0039 1.69971Z" fill="#00AEEF"/>
<path d="M13.0038 3.5998C13.0038 3.9998 12.7038 4.3998 12.2038 4.3998C11.8038 4.3998 11.4038 4.0998 11.4038 3.5998C11.4038 3.1998 11.7038 2.79981 12.2038 2.79981C12.7038 2.79981 13.0038 3.1998 13.0038 3.5998Z" fill="#00AEEF"/>
<path d="M12.1039 1.2C12.4353 1.2 12.7039 0.931365 12.7039 0.599994C12.7039 0.268623 12.4353 3.05176e-06 12.1039 3.05176e-06C11.7726 3.05176e-06 11.5039 0.268623 11.5039 0.599994C11.5039 0.931365 11.7726 1.2 12.1039 1.2Z" fill="#00AEEF"/>
<path d="M7.90399 32.2996C7.90399 32.6996 6.10399 32.7996 3.90399 32.6996C1.70399 32.4996 -0.0960371 32.0996 0.00396293 31.6996C0.00396293 31.2996 1.904 30.6996 4.104 30.7996C6.204 30.9996 7.90399 31.9996 7.90399 32.2996Z" fill="#003A70"/>
<path d="M5.10406 18.4997C5.20406 17.8997 8.90404 16.2997 9.20404 12.7997C9.50404 9.29971 9.30403 3.19971 9.00403 3.19971C8.80403 3.19971 7.60405 3.1997 6.40405 3.0997C5.20405 2.9997 4.00401 2.79971 3.80401 2.69971C3.40401 2.69971 2.20405 8.5997 1.90405 12.0997C1.60405 15.5997 4.90403 17.8997 5.00403 18.3997" stroke="#003A70" stroke-width="1.002"/>
<path d="M6.30378 8.89961C6.5247 8.89961 6.70381 8.72053 6.70381 8.49961C6.70381 8.2787 6.5247 8.0996 6.30378 8.0996C6.08287 8.0996 5.90382 8.2787 5.90382 8.49961C5.90382 8.72053 6.08287 8.89961 6.30378 8.89961Z" fill="white"/>
<path d="M5.51086 17.8675L4.41407 17.7842L3.36148 31.6439L4.45827 31.7272L5.51086 17.8675Z" fill="#003A70"/>
<path d="M7.00376 9C5.50376 9.8 3.80377 8.9 3.20377 8.5C3.00377 9.8 2.80377 11.1 2.70377 12.2C2.50377 14.9 5.00379 16.7 5.10379 17.2H5.30374C5.40374 16.8 8.30376 15.5 8.50376 12.7C8.60376 11.5 8.60379 9.99999 8.60379 8.59999C8.10379 8.49999 7.60376 8.7 7.00376 9Z" fill="#00AEEF"/>
<path d="M4.70414 10.0999C4.70414 10.2999 4.50411 10.4999 4.30411 10.3999C4.10411 10.3999 3.90413 10.1999 4.00413 9.99994C4.00413 9.79994 4.20415 9.59994 4.40415 9.69994C4.60415 9.69994 4.80414 9.89993 4.70414 10.0999Z" fill="white"/>
<path d="M14.104 35.0997C14.204 35.4997 16.004 35.3997 18.204 34.9997C20.404 34.5997 22.104 33.9997 22.004 33.5997C21.904 33.1997 20.004 32.6997 17.804 33.0997C15.704 33.5997 14.104 34.6997 14.104 35.0997Z" fill="#003A70"/>
<path d="M15.5037 20.9999C15.3037 20.3999 11.5037 19.1999 10.8037 15.6999C10.1037 12.2999 9.70375 6.19988 10.1038 6.09988C10.3038 6.09988 11.5037 5.99989 12.7037 5.69989C13.9037 5.49989 15.1037 5.09988 15.3037 5.09988C15.7037 4.99988 17.5037 10.8999 18.2037 14.2999C18.9037 17.6999 15.8037 20.2999 15.8037 20.8999" stroke="#003A70" stroke-width="1.002"/>
<path d="M17.4428 34.0846L18.5259 33.8921L16.0934 20.2062L15.0103 20.3987L17.4428 34.0846Z" fill="#003A70"/>
<path d="M12.6038 11.6998C14.2038 12.3998 15.7038 11.2998 16.3038 10.7998C16.7038 11.9998 17.0038 13.3998 17.2038 14.3998C17.7038 17.0998 15.3038 19.0998 15.3038 19.5998H15.1038C14.9038 19.1998 12.0038 18.1998 11.4038 15.4998C11.2038 14.2998 11.0038 12.7998 10.9038 11.3998C11.5038 11.3998 12.1038 11.4998 12.6038 11.6998Z" fill="#00AEEF"/>
<path d="M15.0039 12.5997C15.0039 12.7997 15.2039 12.8997 15.4039 12.8997C15.6039 12.8997 15.7039 12.6997 15.7039 12.4997C15.7039 12.2997 15.5039 12.1997 15.3039 12.1997C15.1039 12.1997 15.0039 12.3997 15.0039 12.5997Z" fill="white"/>
<path d="M13.8037 13.5997C13.8037 13.7997 14.0037 13.9997 14.2037 13.9997C14.4037 13.9997 14.6037 13.7997 14.6037 13.5997C14.6037 13.3997 14.4037 13.1997 14.2037 13.1997C13.9037 13.2997 13.8037 13.3997 13.8037 13.5997Z" fill="white"/>
</svg>
