<svg width="33" height="35" viewBox="0 0 33 35" fill="none" xmlns="http://www.w3.org/2000/svg">
<rect width="32.8151" height="35" fill="black" fill-opacity="0"/>
<path d="M32.3125 5.86271C32.1257 4.83543 31.2852 4.08833 30.2579 4.08833C24.0943 4.18172 18.2108 6.32965 13.448 10.252C13.2612 8.57098 12.7943 6.88998 11.9538 5.30237C10.8331 3.15443 9.1521 1.47344 7.09755 0.259384C6.35044 -0.20756 5.32315 -0.0207883 4.66943 0.632933C1.5876 3.90154 -5.7e-06 8.19743 -5.7e-06 12.6801C0.0933831 16.976 1.77438 21.0851 4.66943 24.1669C4.38927 25.1942 4.20251 26.3149 4.01573 27.4355C3.92234 27.9025 4.29588 28.3694 4.76283 28.3694H4.85622C5.22978 28.3694 5.60333 28.0892 5.69671 27.6223C5.88349 26.5016 6.07028 25.381 6.35045 24.2603C6.35045 24.1669 6.44381 24.0735 6.44381 24.0735C9.43225 13.5206 19.1447 5.9561 30.2579 5.86271C30.4447 5.86271 30.5381 5.9561 30.6315 6.14288C31.2852 9.97182 31.2852 13.9875 30.7249 17.8165V17.9099C29.6042 22.8595 26.429 27.062 21.9464 29.3967C18.024 31.5446 13.5414 32.1049 9.24548 30.9843C10.6463 30.0504 12.0472 29.0231 13.3546 27.9025C16.81 24.914 19.7984 21.3652 22.0397 17.3495C22.3199 16.976 22.1331 16.4156 21.7596 16.2289C21.386 15.9487 20.8257 16.1355 20.6389 16.509C17.2769 22.2991 12.5141 27.1553 6.81739 30.5173C6.81739 30.5173 6.81738 30.5173 6.724 30.5173C4.94961 31.638 2.98844 32.5719 1.02728 33.319C0.560333 33.5058 0.373555 33.9727 0.560333 34.4397C0.653721 34.8132 1.02726 35 1.30743 35C1.40082 35 1.49423 35 1.58761 34.9066C3.54878 34.1595 5.41656 33.2256 7.28433 32.1983C9.33889 32.8521 11.3934 33.2256 13.448 33.2256C16.6232 33.2256 19.7984 32.4785 22.6935 30.8909C27.5497 28.276 31.0051 23.7 32.3125 18.3768C32.3125 18.2834 32.4059 18.19 32.4059 18.19C32.9662 14.1743 32.9662 9.97181 32.3125 5.86271ZM8.31159 15.9487V15.1082L8.21822 13.7074L8.03143 12.3065L7.84464 10.9057L7.56449 9.50486L7.28433 8.10403C7.19095 7.63709 6.724 7.35693 6.25705 7.45031C5.8835 7.5437 5.60333 8.01065 5.69671 8.4776L5.97687 9.78503L6.25705 11.0925L6.44381 12.3999L6.53721 13.8008L6.6306 15.1082V16.4156V17.8165V19.0305C6.07027 20.0578 5.69671 21.1785 5.22977 22.2991C0.280166 16.3223 0.466955 7.5437 5.8835 1.84699C5.97689 1.7536 6.16366 1.7536 6.25705 1.84699C9.80582 3.99493 11.8604 7.82387 11.767 11.933C10.4595 13.0536 9.33886 14.4545 8.31159 15.9487Z" fill="#003A70"/>
</svg>
