<svg width="38" height="16" viewBox="0 0 38 16" fill="none" xmlns="http://www.w3.org/2000/svg">
<rect width="35.5004" height="13.6" fill="black" fill-opacity="0" transform="translate(1 1)"/>
<path d="M24.2003 6.5H13.3003V9H24.2003V6.5Z" stroke="#2D4170" stroke-width="1.002"/>
<path d="M35.2004 6.5H30.9004V9H35.2004C35.9004 9 36.5004 8.7 36.5004 8.2V7.2C36.4004 6.8 35.9004 6.5 35.2004 6.5Z" stroke="#2D4170" stroke-width="1.002"/>
<path d="M28.4 6.5H27V9H28.4V6.5Z" stroke="#2D4170" stroke-width="1.002"/>
<path d="M2.29999 6.5C1.59999 6.5 1.00001 6.80001 1.00001 7.30001V8.30001C1.00001 8.70001 1.59999 9.09999 2.29999 9.09999H6.60001V6.59999L2.29999 6.5Z" stroke="#2D4170" stroke-width="1.002"/>
<path d="M10.5001 6.5H9.10011V9H10.5001V6.5Z" stroke="#2D4170" stroke-width="1.002"/>
<path d="M27.0002 6.5V2.4C27.0002 1.6 26.4002 1 25.6002 1C24.8002 1 24.2002 1.6 24.2002 2.4V6.5" stroke="#2D4170" stroke-width="1.002"/>
<path d="M24.1001 9V13C24.1001 13.8 24.7001 14.4 25.5001 14.4C26.3001 14.4 26.9001 13.8 26.9001 13V9" stroke="#2D4170" stroke-width="1.002"/>
<path d="M30.8004 6.5V3.7C30.8004 3 30.3004 2.5 29.6004 2.5C28.9004 2.5 28.4004 3 28.4004 3.7V6.5" stroke="#2D4170" stroke-width="1.002"/>
<path d="M28.4004 9V12.7C28.4004 13.4 28.9004 13.9 29.6004 13.9C30.3004 13.9 30.8004 13.4 30.8004 12.7V9" stroke="#2D4170" stroke-width="1.002"/>
<path d="M13.3 6.49981V2.6998C13.3 1.8998 12.7 1.29981 11.9 1.29981C11.1 1.29981 10.5 1.8998 10.5 2.6998V6.49981" stroke="#2D4170" stroke-width="1.002"/>
<path d="M10.4004 9V13.2C10.4004 14 11.0004 14.6 11.8004 14.6C12.6004 14.6 13.2004 14 13.2004 13.2V9" stroke="#2D4170" stroke-width="1.002"/>
<path d="M6.60011 9V12.9C6.60011 13.6 7.10009 14.1 7.80009 14.1C8.50009 14.1 9.0001 13.6 9.0001 12.9V9" stroke="#2D4170" stroke-width="1.002"/>
<path d="M9.10021 6.49981V3.99981C9.10021 3.29981 8.6002 2.79981 7.9002 2.79981C7.2002 2.79981 6.70018 3.29981 6.70018 3.99981V6.49981" stroke="#2D4170" stroke-width="1.002"/>
<path d="M3.10011 11.6996C3.10011 12.1996 3.50011 12.6996 4.10011 12.6996C4.60011 12.6996 5.10011 12.2996 5.10011 11.6996V4.5996C5.10011 4.0996 4.70011 3.5996 4.10011 3.5996C3.60011 3.5996 3.10011 3.9996 3.10011 4.5996V11.6996Z" fill="#00AEEF"/>
<path d="M32.1001 11.6996C32.1001 12.1996 32.5001 12.6996 33.1001 12.6996C33.6001 12.6996 34.1001 12.2996 34.1001 11.6996V4.5996C34.1001 4.0996 33.7001 3.5996 33.1001 3.5996C32.6001 3.5996 32.1001 3.9996 32.1001 4.5996V11.6996Z" fill="#00AEEF"/>
</svg>
