<?xml version="1.0" encoding="utf-8"?>
<!-- Generator: Adobe Illustrator 23.0.4, SVG Export Plug-In . SVG Version: 6.00 Build 0)  -->
<svg version="1.1" id="Layer_1" xmlns="http://www.w3.org/2000/svg" xmlns:xlink="http://www.w3.org/1999/xlink" x="0px" y="0px"
	 viewBox="0 0 419 224.8" style="enable-background:new 0 0 419 224.8;" xml:space="preserve">
<style type="text/css">
	.st0{fill:#AC854D;}
	.st1{fill:#A6A8AA;}
	.st2{fill-rule:evenodd;clip-rule:evenodd;fill:#AC854D;}
</style>
<g>
	<rect x="4" y="206.6" class="st0" width="68.3" height="1.9"/>
	<rect x="346.3" y="206.6" class="st0" width="68.5" height="1.9"/>
	<path class="st0" d="M195,25.7c0-4.3,1-8.5,2.7-12.4h-12.4c-3,0-5.4,2.4-5.4,5.3v47.8c0,3,2.4,5.4,5.4,5.4H233c3,0,5.4-2.4,5.4-5.4
		V53.3c-3.9,1.7-8.2,2.7-12.6,2.7C208.9,56.1,195,42.5,195,25.7"/>
	<path class="st0" d="M234.9,25.8c-3.5,1.4-7.6-0.2-9-3.7c-1.5-3.5,0.2-7.4,3.7-8.9c3.5-1.4,7.6,0.2,9,3.7
		C240.1,20.4,238.4,24.4,234.9,25.8 M244.3,11.4c-0.9,0.4-1.4,1.4-1.2,2.6l-1.9,0.7c-1-1.8-2.4-3.1-4.1-4l0.8-1.8
		c1.2,0.1,2.3-0.3,2.7-1.2c0.5-1.2-0.4-2.6-2-3.3c-1.6-0.6-3.2-0.2-3.7,0.9c-0.4,0.9,0.1,2,1,2.7l-0.8,1.8c-1.9-0.5-3.9-0.6-5.8,0
		L228.5,8c0.9-0.7,1.4-1.8,1-2.7c-0.5-1.2-2.2-1.6-3.7-0.9c-1.6,0.6-2.5,2.1-2,3.3c0.4,0.9,1.5,1.3,2.7,1.2l0.8,1.8
		c-1.8,1-3.2,2.4-4.1,4l-1.8-0.8c0.1-1.2-0.3-2.2-1.2-2.6c-1.2-0.5-2.7,0.4-3.3,1.9c-0.6,1.5-0.2,3.2,1,3.7c0.9,0.4,2-0.1,2.7-1
		l1.9,0.8c-0.5,1.8-0.6,3.8,0,5.7l-1.9,0.8c-0.7-0.9-1.8-1.4-2.7-1c-1.2,0.5-1.6,2.1-1,3.7c0.7,1.5,2.1,2.4,3.3,1.9
		c0.9-0.4,1.4-1.4,1.2-2.6l1.9-0.8c1,1.8,2.4,3.1,4.1,4l-0.8,1.8c-1.2-0.1-2.3,0.3-2.7,1.2c-0.5,1.2,0.4,2.6,2,3.3
		c1.6,0.6,3.2,0.2,3.7-0.9c0.4-0.9-0.1-2-1-2.7l0.8-1.8c1.9,0.5,3.9,0.6,5.8,0l0.8,1.8c-0.9,0.7-1.4,1.8-1,2.7
		c0.5,1.2,2.2,1.6,3.7,0.9c1.6-0.6,2.4-2.1,2-3.3c-0.4-0.9-1.5-1.3-2.7-1.2l-0.8-1.8c1.8-1,3.2-2.4,4.1-4l1.8,0.8
		c-0.1,1.2,0.3,2.3,1.2,2.6c1.2,0.5,2.7-0.4,3.3-1.9c0.6-1.5,0.2-3.2-1-3.7c-0.9-0.4-2,0.1-2.8,1l-1.8-0.8c0.5-1.8,0.6-3.8,0-5.7
		l1.9-0.7c0.7,0.9,1.8,1.4,2.7,1c1.2-0.5,1.6-2.1,1-3.7C246.9,11.7,245.5,10.9,244.3,11.4z"/>
	<path class="st1" d="M246.6,39.7h-0.2c-4,2.8-8.9,4.4-14.3,4.4c-6.9,0-13.1-2.8-17.7-7.2c-4.5-4.4-7.3-10.6-7.3-17.4
		c0-5.2,1.7-10,4.5-14V5.3h-0.2c-6.5,4.5-10.8,11.9-10.8,20.4c0,13.7,11.3,24.8,25.2,24.8C234.4,50.5,241.9,46.3,246.6,39.7
		L246.6,39.7"/>
	<path class="st1" d="M111.9,213c-0.1,1.5-0.4,2.7-0.7,3.7c-0.2,0.6-1.1,1.1-2.6,1.6c-1.7,0.5-3.6,0.8-5.8,0.8c-3.6,0-6.6-1.1-9-3.2
		c-2.4-2.2-3.6-4.9-3.6-8.3c0-3.5,1.3-6.3,3.8-8.6c2.4-2.2,5.3-3.3,8.7-3.3c2.4,0,4.5,0.3,6.1,0.9c1.5,0.5,2.2,1,2.3,1.4
		c0.1,0.9,0.2,2.3,0.2,4.2c0,0.3-0.3,0.5-0.9,0.6c-0.4,0-0.7-0.1-0.8-0.4c-0.6-2-1.4-3.3-2.4-4.1s-2.5-1.1-4.5-1.1
		c-2.5,0-4.6,0.8-6.2,2.5c-1.7,1.8-2.6,4.3-2.6,7.5s0.9,5.7,2.7,7.6s4.1,2.9,6.8,2.9c1.8,0,3.2-0.4,4.3-1.2c1-0.7,1.8-2,2.4-3.6
		c0.2-0.5,0.6-0.7,1.2-0.5C111.7,212.4,111.9,212.6,111.9,213"/>
	<path class="st1" d="M137.6,207.9c0-3.3-0.9-5.9-2.7-7.9c-1.7-1.8-4.1-2.8-6.9-2.8c-2.4,0-4.3,0.9-5.8,2.6c-1.5,1.8-2.3,4-2.3,6.8
		c0,3.4,0.9,6,2.7,7.9c1.7,1.9,4.1,2.8,7,2.8c2.4,0,4.3-0.9,5.8-2.6C136.9,213.1,137.6,210.8,137.6,207.9 M141.1,207.3
		c0,3.3-1.2,6.1-3.7,8.4c-2.4,2.3-5.3,3.4-8.6,3.4c-3.5,0-6.5-1.1-8.8-3.2c-2.4-2.2-3.6-5-3.6-8.5c0-3.4,1.2-6.2,3.6-8.5
		c2.4-2.2,5.3-3.4,8.8-3.4s6.4,1.1,8.8,3.3C139.9,201.1,141.1,203.9,141.1,207.3z"/>
	<path class="st1" d="M162.5,214.3c-0.4,1.5-0.6,2.8-0.6,4.1c0,0.2-0.4,0.3-1.1,0.3c-1.8-0.1-4-0.1-6.7-0.1c-2.8,0-5.4,0.1-7.6,0.2
		c-0.3,0-0.5,0-0.6-0.1s-0.1-0.2-0.1-0.5s0.2-0.5,0.7-0.5c1.1-0.1,1.7-0.7,1.7-1.8v-15.8c0-0.8-0.1-1.4-0.3-1.8
		c-0.3-0.5-0.8-0.8-1.5-1.1c-0.5-0.2-0.6-0.4-0.6-0.8c0-0.3,0.1-0.4,0.2-0.4c0.1,0,0.4,0,0.9,0c1.7,0.2,3.7,0.2,6,0
		c0.4,0,0.6,0,0.7,0c0.2,0,0.4,0.2,0.4,0.5s0,0.5-0.2,0.6c-0.1,0-0.3,0.1-0.7,0.2c-0.8,0.2-1.3,0.4-1.5,0.6
		c-0.2,0.2-0.3,0.7-0.3,1.5v15.3c0,1,0.3,1.6,1,2c0.6,0.3,1.8,0.5,3.5,0.5c1.6,0,2.8-0.2,3.6-0.6s1.4-1.2,1.9-2.4
		c0.2-0.5,0.5-0.6,0.8-0.5C162.5,213.8,162.6,214,162.5,214.3"/>
	<path class="st1" d="M182.9,214.3c-0.4,1.5-0.6,2.8-0.6,4.1c0,0.2-0.4,0.3-1.1,0.3c-1.8-0.1-4-0.1-6.7-0.1c-2.8,0-5.4,0.1-7.6,0.2
		c-0.3,0-0.5,0-0.6-0.1s-0.1-0.2-0.1-0.5s0.2-0.5,0.7-0.5c1.1-0.1,1.7-0.7,1.7-1.8v-15.8c0-0.8-0.1-1.4-0.3-1.8
		c-0.3-0.5-0.8-0.8-1.5-1.1c-0.4-0.2-0.6-0.4-0.6-0.8c0-0.3,0.1-0.4,0.2-0.4c0.1,0,0.4,0,0.9,0c1.7,0.2,3.7,0.2,6,0
		c0.4,0,0.6,0,0.7,0c0.2,0,0.4,0.2,0.4,0.5s0,0.5-0.2,0.6c-0.1,0-0.3,0.1-0.7,0.2c-0.8,0.2-1.3,0.4-1.5,0.6
		c-0.2,0.2-0.3,0.7-0.3,1.5v15.3c0,1,0.3,1.6,1,2c0.6,0.3,1.8,0.5,3.5,0.5c1.6,0,2.8-0.2,3.6-0.6c0.8-0.4,1.4-1.2,1.9-2.4
		c0.2-0.5,0.5-0.6,0.8-0.5C182.9,213.8,183,214,182.9,214.3"/>
	<path class="st1" d="M203.7,214.3c-0.3,1.4-0.5,2.7-0.6,4.1c0,0.2-0.4,0.3-1,0.3c-1.8-0.1-4.1-0.1-6.8-0.1c-3,0-5.7,0.1-7.8,0.2
		c-0.5,0-0.7-0.2-0.7-0.6c0-0.3,0.2-0.5,0.7-0.5c0.7-0.1,1.1-0.2,1.3-0.4c0.2-0.2,0.4-0.7,0.4-1.4v-15.8c0-1.1-0.1-1.7-0.3-2
		c-0.2-0.3-0.7-0.6-1.6-0.8c-0.5-0.1-0.6-0.4-0.5-0.8c0.1-0.2,0.2-0.3,0.3-0.4c0.1,0,0.4,0,0.9,0.1c0.7,0.1,2.6,0.2,5.7,0.2
		s5.7-0.1,7.9-0.2c0.7,0,1.1,0,1.1,0.2c0,0.1,0,0.1,0,0.2c-0.2,1.1-0.3,2.4-0.3,3.9c0,0.4-0.2,0.5-0.5,0.5s-0.5-0.2-0.7-0.5
		c-0.3-0.8-0.6-1.3-0.8-1.6c-0.4-0.4-0.9-0.7-1.6-0.8c-0.5-0.1-2.5-0.2-5.8-0.2c-0.4,0-0.6,0.1-0.7,0.2c-0.1,0.1-0.1,0.2-0.1,0.5
		v7.2c0,0.3,0.2,0.4,0.5,0.4c1.1,0,2.6-0.1,4.5-0.2c0.3,0,0.6-0.2,0.7-0.5c0.1-0.2,0.3-0.7,0.4-1.4c0.1-0.5,0.4-0.7,0.8-0.5
		c0.4,0.1,0.6,0.2,0.5,0.5c-0.3,1.6-0.4,3.6-0.3,6.1c0,0.3-0.2,0.4-0.6,0.5c-0.3,0-0.5-0.1-0.6-0.6c-0.1-0.9-0.3-1.5-0.4-1.7
		c-0.2-0.3-0.5-0.4-1-0.5c-0.9-0.1-2.3-0.2-4.2-0.2c-0.2,0-0.3,0.1-0.3,0.2v7.5c0,1.1,0.6,1.7,1.8,2c0.3,0.1,1.4,0.1,3.2,0.1
		c2.8,0,4.6-1,5.3-3c0.2-0.5,0.5-0.6,0.8-0.5C203.7,213.8,203.8,214,203.7,214.3"/>
	<path class="st1" d="M229.6,213c-0.1,1.5-0.4,2.7-0.7,3.7c-0.2,0.6-1.1,1.1-2.6,1.6c-1.7,0.5-3.6,0.8-5.8,0.8c-3.6,0-6.6-1.1-9-3.2
		c-2.4-2.2-3.6-4.9-3.6-8.3c0-3.5,1.3-6.3,3.8-8.6c2.4-2.2,5.3-3.3,8.7-3.3c2.4,0,4.5,0.3,6.1,0.9c1.5,0.5,2.2,1,2.3,1.4
		c0.1,0.9,0.2,2.3,0.2,4.2c0,0.3-0.3,0.5-0.9,0.6c-0.4,0-0.7-0.1-0.8-0.4c-0.6-2-1.4-3.3-2.4-4.1s-2.5-1.1-4.5-1.1
		c-2.5,0-4.6,0.8-6.2,2.5c-1.7,1.8-2.6,4.3-2.6,7.5s0.9,5.7,2.7,7.6c1.8,1.9,4.1,2.9,6.8,2.9c1.8,0,3.2-0.4,4.3-1.2
		c1-0.7,1.8-2,2.4-3.6c0.2-0.5,0.6-0.7,1.2-0.5C229.5,212.4,229.7,212.6,229.6,213"/>
	<path class="st1" d="M255.9,201.5c0,0.2,0,0.3-0.1,0.4c0,0.1-0.2,0.1-0.4,0.2c-0.4,0.1-0.7-0.1-0.8-0.5c-0.5-1.5-1.1-2.5-1.7-3
		c-0.9-0.7-2.6-1-4.9-1c-0.9,0-1.5,0.1-1.6,0.3c0,0.1,0,0.2,0,0.3v17.1c0,0.7,0.2,1.2,0.5,1.5s1,0.6,2,0.8c0.4,0.1,0.7,0.2,0.7,0.2
		c0.2,0.1,0.2,0.3,0.2,0.6c0,0.3-0.2,0.4-0.4,0.4c0,0-0.3,0-0.7-0.1c-3-0.3-5.5-0.3-7.5,0c-0.5,0.1-0.8,0.1-0.9,0s-0.2-0.2-0.2-0.4
		c-0.1-0.4,0.1-0.6,0.6-0.7c1-0.3,1.6-0.6,2-0.9c0.4-0.4,0.6-1,0.6-1.9v-16.6c0-0.3-0.2-0.5-0.6-0.6c0,0-0.4,0-1,0
		c-2.2,0-3.8,0.4-4.8,1.1c-0.8,0.6-1.5,1.6-2.1,3.1c-0.2,0.5-0.5,0.6-0.8,0.5c-0.4-0.1-0.5-0.3-0.4-0.6c0.4-1.2,0.6-3,0.6-5.2
		c0-0.3,0.3-0.4,1-0.3c2.5,0.2,5.2,0.2,8.2,0.2c5.7,0,9.3-0.1,11-0.3c0.6-0.1,1,0,1,0.3C255.8,197.8,255.9,199.5,255.9,201.5"/>
	<path class="st1" d="M268.7,196.4c0,0.3-0.3,0.5-0.9,0.7c-1.4,0.4-2.1,0.9-2.1,1.6v16.7c0,1.1,0.6,1.7,1.9,2
		c0.6,0.1,0.9,0.3,0.9,0.7c0,0.3-0.1,0.5-0.2,0.5c-0.1,0.1-0.4,0.1-0.9,0.1c-3-0.1-5.3-0.1-7,0c-0.4,0-0.7,0-0.7-0.2
		c0-0.1,0-0.2,0-0.4c0-0.2,0.3-0.4,0.8-0.5c1-0.2,1.5-0.4,1.7-0.5c0.4-0.2,0.5-0.7,0.5-1.4v-16.9c0-0.9-0.6-1.5-1.9-1.7
		c-0.5-0.1-0.8-0.3-0.8-0.5c0-0.3,0-0.5,0.1-0.6s0.3-0.1,0.6-0.1c2.2,0.2,4.5,0.2,6.9-0.1c0.4-0.1,0.7-0.1,0.8,0
		C268.6,195.9,268.7,196.1,268.7,196.4"/>
	<path class="st1" d="M294.5,207.9c0-3.3-0.9-5.9-2.7-7.9c-1.7-1.8-4.1-2.8-6.9-2.8c-2.4,0-4.3,0.9-5.8,2.6c-1.5,1.8-2.3,4-2.3,6.8
		c0,3.4,0.9,6,2.7,7.9c1.7,1.9,4.1,2.8,7,2.8c2.4,0,4.3-0.9,5.8-2.6C293.7,213.1,294.5,210.8,294.5,207.9 M297.9,207.3
		c0,3.3-1.2,6.1-3.7,8.4c-2.4,2.3-5.3,3.4-8.6,3.4c-3.5,0-6.5-1.1-8.8-3.2c-2.4-2.2-3.6-5-3.6-8.5c0-3.4,1.2-6.2,3.6-8.5
		c2.4-2.2,5.3-3.4,8.8-3.4s6.4,1.1,8.8,3.3C296.7,201.1,297.9,203.9,297.9,207.3z"/>
	<path class="st1" d="M328.3,196.4c0,0.3-0.3,0.5-0.9,0.7c-1.4,0.4-2.1,1.2-2.1,2.4v12.3c0,2.6,0,4.7,0.1,6.3c0,0.6-0.1,0.9-0.4,1
		c-0.5,0.1-0.9-0.1-1.3-0.8c-0.6-1.1-2.8-3.8-6.7-8c-3.3-3.5-6.4-6.9-9.5-9.9c-0.1-0.1-0.2-0.1-0.3-0.1c-0.1,0.1-0.2,0.2-0.2,0.4v14
		c0,1.5,0.8,2.4,2.3,2.7c0.6,0.1,0.9,0.3,0.9,0.7c0,0.4-0.4,0.6-1.1,0.6c-2.7-0.1-4.8-0.1-6.3,0c-0.5,0-0.7-0.2-0.7-0.6
		c0-0.2,0.2-0.4,0.7-0.5c0.9-0.2,1.5-0.5,1.8-0.8c0.3-0.4,0.4-1,0.4-1.8v-15.2c0-0.7-0.1-1.2-0.4-1.5s-0.8-0.7-1.5-1
		c-0.6-0.3-0.8-0.5-0.8-0.8s0.3-0.4,0.8-0.4c1.5,0.2,2.8,0.3,3.9,0.1c0.6-0.1,1.1,0.2,1.5,0.6l14.4,15.3c0.2,0.2,0.3,0.3,0.4,0.3
		s0.1-0.2,0.1-0.5v-12.4c0-1.5-0.8-2.3-2.3-2.6c-0.5-0.1-0.8-0.2-0.8-0.5c0-0.5,0.2-0.7,0.7-0.6c1.9,0.2,4,0.2,6.3-0.1
		c0.4,0,0.7,0,0.8,0C328.2,195.9,328.3,196.1,328.3,196.4"/>
	<path class="st2" d="M98.9,142.3c3.8-4.4,12-12.2,10.1-19.9C97.4,122,96.8,134.5,98.9,142.3 M15,140.9c4-4.2,11.4-12.8,9.8-20.3
		C13.8,120.9,11.2,133.1,15,140.9z M93.4,68.1c-13.1,14.1-23.2,35.5-27.5,55c6.9-8.5,13.9-16.9,19.9-26.1c6-9.2,12.3-19.8,13.8-33
		C96.5,62.6,94.9,66.4,93.4,68.1z M107.1,51.5c3.9,8.2-0.9,16.9-4.1,23.4c-9.9,19.8-25.4,37.8-39.2,53.6c-1.2,10-5.7,29.6,4.1,31.6
		c7.3,1.5,16.3-9.4,19.9-13.1c1.1-10.7,4.8-19.8,11.7-26.3c3.1-2.9,9.6-6.2,14.4-5.4c4.5,13.7-6.8,22.8-14.4,28.9
		c8.7,15,36,4.9,41.3-6.2c0.3-4.9-0.3-8.9-0.7-13.1c3.1-0.8,4.8-2.7,8.3-1.4c5,6.8-1.5,22.6,5.5,28.2c7-1.3,7.7-8.8,7.6-17.2
		c3-0.6,4.7-2.6,8.9-2.1c2.8,7.1,1.2,20.5,8.9,22c13,2.5,23.1-24.1,15.1-35.1c-3.4-4.6-19.5-8.9-15.1-16.5c3.1-5.3,6.7-2.8,13.8,2.1
		c3.7,2.6,7.2,4.7,9.6,6.2c7.6,4.7,17.6,12.4,33,10.3c8.2-1.1,16.6-9.4,24.1,0c-18.1,0.7-30,15.3-33.7,30.9
		c11.9-3.6,19.7-11.7,27.5-19.9c2.4-2.5,4.7-5.9,8.3-6.9c4,2.9-0.3,7.9-1.4,13.1c-1.8,8.2-2.9,18.5,2.1,22.7
		c10.9-1.4,20.1-13.6,24.8-22.7c3.3-6.4,6.8-15,7.6-24.8c13.1-0.8,5.8,13.9,2.1,22.7c-2.9,6.9-6.9,12.4-6.9,17.9
		c4-0.1,5.5-4.6,7.6-7.6c6-8.5,11.9-21.6,22.7-26.1c9.4,7.8-3.7,28,3.4,37.8c7.7,1.3,13.1-3.9,17.9-7.6
		c4.3-11.7,18.4-35.7,37.1-33.7c2.8,0.3,5.9,0.6,6.9,4.1c-18.2,0.7-29.8,15.4-33.7,30.9c11.9-3.6,19.7-11.7,27.5-19.9
		c2.3-2.5,4.6-5.9,8.3-6.9c3.1,2.8,0.4,8.5-0.7,13.7c-1.7,8-4.4,17.4,1.4,22c10.3-1,15.7-9.4,20.6-16.5c1.3-1.9,2.4-6.2,5.5-5.5
		c1.3,2.5-2.4,6.4-5.5,10.3c-4,5-10.3,13.8-17.9,15.1c-16.3,3-18.3-12.4-13.1-24.8c-8.9,0.9-19.7,19.7-31.6,17.9
		c-2.2-0.3-4.3-1-4.8-4.1c-5.3,4.7-20.8,17.1-27.5,6.9c-4.9-7.5,1.3-20.6,0-28.9c-4.9,0.7-7.7,8.1-11,13.1c-5.4,8-10.5,19-22,15.8
		c-1.6-2.2-0.3-6.4,0.7-8.2c-4.6,4.8-19.9,19.6-29.6,9.6c-4.9-5-2.2-15,0-22c-10.7,2.3-19.3,21.1-35.8,16.5
		c-2-14.9,9.8-21.8,15.8-30.9c-8.9-2.4-20.7-1.7-28.9-4.8c-2.4,2.9-0.8,6.5-1.4,10.3c-1.7,10.8-11.1,26.2-21.3,29.6
		c-11.1,3.6-15.7-5.2-17.2-15.1c-3.6,5.2-6.2,13.2-13.1,12.4c-5.8-0.7-9.1-6.3-8.9-15.8c-6.5,6.3-22.6,22.1-43.3,15.8
		c-3.3-1-6.9-4-8.9-7.6c-7,7-20.6,21.7-32.3,13.1c-5.1-3.8-4.9-11.8-4.8-22c-6.6,6.4-23.9,23.3-39.9,15.8c-3-1.4-7.6-6.1-8.3-11
		c-1.1-8.3,2.4-16.7,6.6-22.1c4.6-6,9.9-10.7,19.6-10.3c4.8,14.2-7.5,22.5-14.4,29.6c9.2,16,31.2,1.5,37.8-7.6
		c5.4-22.7,19.5-47.6,33-66C91.7,63,97.9,52.6,107.1,51.5z"/>
</g>
</svg>
