<?xml version="1.0" encoding="utf-8"?>
<!-- Generator: Adobe Illustrator 23.0.4, SVG Export Plug-In . SVG Version: 6.00 Build 0)  -->
<svg version="1.1" id="Layer_1" xmlns="http://www.w3.org/2000/svg" xmlns:xlink="http://www.w3.org/1999/xlink" x="0px" y="0px"
	 viewBox="0 0 1251.2 633.4" style="enable-background:new 0 0 1251.2 633.4;" xml:space="preserve">
<style type="text/css">
	.st0{fill:#ADA15C;}
	.st1{fill:#6F683B;}
</style>
<g>
	<g>
		<g>
			<path class="st0" d="M658.7,93.1L658.7,93.1h-10.1v-4.6c7.4,0,13.4-6,13.4-13.4c0-7.4-6.1-13.4-13.4-13.4h-0.1h-45.7h-0.1
				c-7.4,0-13.4,6-13.4,13.4c0,7.4,6.1,13.4,13.4,13.4v4.6h-10.1h0c-14.8,0-26.8,12-26.8,26.8c0,14.8,12,26.9,26.8,26.9v8.8h0h66.2
				h0v-8.8c14.8,0,26.8-12.1,26.8-26.9C685.5,105.1,673.5,93.1,658.7,93.1z"/>
			<g>
				<polyline class="st0" points="489.1,246 556.1,130.4 625.5,246 489.1,246 				"/>
				<polyline class="st0" points="762,246 695,130.4 625.6,246 762,246 				"/>
			</g>
			<polygon class="st0" points="652.3,55 625.6,8.7 598.9,55 			"/>
		</g>
	</g>
	<g>
		<g>
			<g>
				<g>
					<path class="st1" d="M86.7,589.3c0.3,0,0.5-0.2,0.5-0.6v-1.9c0-13.9,0-16.5-0.2-19.4c-0.2-3.1-0.9-4.6-3.9-5.2
						c-0.7-0.2-2.3-0.3-3.6-0.3c-1,0-1.6-0.2-1.6-0.8c0-0.6,0.6-0.8,1.9-0.8c4.9,0,10.7,0.3,13.2,0.3c2.2,0,7.9-0.3,11.5-0.3
						c1.3,0,1.9,0.2,1.9,0.8c0,0.6-0.5,0.8-1.6,0.8c-0.7,0-1.6,0.1-2.6,0.3c-2.5,0.5-3.2,2-3.4,5.2c-0.2,2.9-0.2,5.5-0.2,19.4v16.1
						c0,8.4,0,15.6,0.5,19.6c0.3,2.6,0.8,4.6,3.6,4.9c1.3,0.2,3.3,0.4,4.7,0.4c1,0,1.5,0.3,1.5,0.7c0,0.6-0.7,0.9-1.8,0.9
						c-5.9,0-11.7-0.3-14.3-0.3c-2.1,0-7.9,0.3-11.4,0.3c-1.3,0-1.9-0.3-1.9-0.9c0-0.5,0.4-0.7,1.5-0.7c1.4,0,2.5-0.2,3.3-0.4
						c1.8-0.4,2.3-2.4,2.6-5c0.5-3.8,0.5-11.1,0.5-19.5v-8c0-0.4-0.3-0.5-0.5-0.5H51.7c-0.3,0-0.5,0.1-0.5,0.5v8
						c0,8.4,0,15.6,0.5,19.6c0.3,2.6,0.8,4.6,3.6,4.9c1.3,0.2,3.3,0.4,4.7,0.4c1,0,1.5,0.3,1.5,0.7c0,0.6-0.7,0.9-1.8,0.9
						c-5.9,0-11.7-0.3-14.3-0.3c-2.1,0-7.9,0.3-11.5,0.3c-1.2,0-1.8-0.3-1.8-0.9c0-0.5,0.4-0.7,1.5-0.7c1.4,0,2.5-0.2,3.3-0.4
						c1.8-0.4,2.3-2.4,2.6-5c0.5-3.8,0.5-11.1,0.5-19.5v-16.1c0-13.9,0-16.5-0.2-19.4c-0.2-3.1-0.9-4.6-3.9-5.2
						c-0.7-0.2-2.3-0.3-3.6-0.3c-1,0-1.6-0.2-1.6-0.8c0-0.6,0.6-0.8,1.9-0.8c4.9,0,10.7,0.3,13.2,0.3c2.2,0,8-0.3,11.5-0.3
						c1.3,0,1.9,0.2,1.9,0.8c0,0.6-0.5,0.8-1.6,0.8c-0.7,0-1.6,0.1-2.6,0.3c-2.5,0.5-3.2,2-3.4,5.2c-0.2,2.9-0.2,5.5-0.2,19.4v1.9
						c0,0.5,0.3,0.6,0.5,0.6H86.7z"/>
					<path class="st1" d="M118.6,594.8c0-15.6,10.3-35.8,37.8-35.8c22.8,0,36.9,13.3,36.9,34.2c0,20.9-14.6,37.5-37.9,37.5
						C129.3,630.6,118.6,611,118.6,594.8z M180.5,596.5c0-20.5-11.8-33.2-26.8-33.2c-10.5,0-22.5,5.8-22.5,28.6
						c0,19,10.5,34.1,28.1,34.1C165.7,626.1,180.5,623,180.5,596.5z"/>
					<path class="st1" d="M224.8,565.3l-13.6,0.4c-5.3,0.2-7.5,0.6-8.9,2.6c-0.9,1.4-1.4,2.5-1.6,3.2c-0.2,0.7-0.5,1.1-1,1.1
						c-0.6,0-0.8-0.5-0.8-1.5c0-1.5,1.7-9.8,1.9-10.5c0.3-1.2,0.5-1.7,1.1-1.7c0.7,0,1.6,0.9,3.9,1.1c2.6,0.3,6.1,0.5,9.1,0.5h36.2
						c2.9,0,4.9-0.3,6.3-0.5c1.4-0.3,2.1-0.5,2.5-0.5c0.6,0,0.7,0.5,0.7,1.9c0,1.9-0.3,8.2-0.3,10.6c-0.1,0.9-0.3,1.5-0.8,1.5
						c-0.7,0-0.9-0.5-1-1.8l-0.1-1c-0.2-2.4-2.6-4.9-10.8-5.1l-11.5-0.3v37.5c0,8.4,0,15.6,0.5,19.6c0.3,2.6,0.8,4.6,3.6,4.9
						c1.3,0.2,3.3,0.4,4.7,0.4c1,0,1.5,0.3,1.5,0.7c0,0.6-0.7,0.9-1.7,0.9c-6,0-11.8-0.3-14.4-0.3c-2.1,0-7.9,0.3-11.5,0.3
						c-1.2,0-1.8-0.3-1.8-0.9c0-0.5,0.4-0.7,1.5-0.7c1.4,0,2.5-0.2,3.3-0.4c1.8-0.4,2.4-2.4,2.6-5c0.5-3.8,0.5-11.1,0.5-19.5
						L224.8,565.3L224.8,565.3z"/>
					<path class="st1" d="M278.5,586.7c0-13.9,0-16.5-0.2-19.4c-0.2-3.1-0.9-4.6-3.9-5.2c-0.7-0.2-2.3-0.3-3.6-0.3
						c-1,0-1.6-0.2-1.6-0.8c0-0.6,0.6-0.8,2-0.8c2.5,0,5.1,0.1,7.4,0.1c2.4,0.1,4.5,0.2,5.8,0.2c2.9,0,21.1,0,22.9-0.1
						c1.7-0.2,3.2-0.4,3.9-0.5c0.5-0.1,1-0.4,1.5-0.4c0.5,0,0.5,0.4,0.5,0.8c0,0.6-0.5,1.7-0.7,5.9c-0.1,0.9-0.3,4.9-0.5,6
						c-0.1,0.5-0.3,1-0.9,1c-0.7,0-0.8-0.5-0.8-1.3c0-0.6-0.1-2.2-0.5-3.3c-0.6-1.6-1.6-2.8-6.1-3.3c-1.6-0.2-11.2-0.4-13-0.4
						c-0.5,0-0.6,0.3-0.6,0.9v23.1c0,0.6,0.1,1,0.6,1c2,0,12.5,0,14.6-0.2c2.2-0.2,3.6-0.5,4.4-1.4c0.6-0.7,1-1.2,1.5-1.2
						c0.4,0,0.6,0.2,0.6,0.7c0,0.5-0.4,2-0.7,6.7c-0.1,1.8-0.4,5.5-0.4,6.1c0,0.7,0,1.7-0.8,1.7c-0.6,0-0.8-0.4-0.8-0.8
						c-0.1-0.9-0.1-2.1-0.4-3.3c-0.5-1.8-1.7-3.2-5.1-3.6c-1.7-0.2-10.8-0.3-13-0.3c-0.5,0-0.5,0.4-0.5,0.9v7.2
						c0,3.1-0.1,11.5,0,14.2c0.2,6.3,1.6,7.7,11,7.7c2.4,0,6.2,0,8.6-1.1c2.4-1.1,3.5-3,4.1-6.8c0.2-1,0.4-1.4,1-1.4
						c0.7,0,0.7,0.7,0.7,1.6c0,2.1-0.7,8.3-1.2,10.2c-0.6,2.4-1.5,2.4-4.9,2.4c-6.9,0-11.9-0.2-15.8-0.3c-3.9-0.2-6.8-0.3-9.5-0.3
						c-1,0-3,0-5.2,0.1c-2.1,0-4.5,0.2-6.3,0.2c-1.2,0-1.8-0.3-1.8-0.9c0-0.5,0.4-0.7,1.5-0.7c1.4,0,2.5-0.2,3.3-0.4
						c1.8-0.4,2.3-2.4,2.6-5c0.5-3.8,0.5-11.1,0.5-19.5L278.5,586.7L278.5,586.7z"/>
					<path class="st1" d="M348.6,602.8c0,11.7,0,18,1.9,19.7c1.6,1.4,3.9,2,11.1,2c4.9,0,8.4-0.1,10.7-2.6c1.1-1.2,2.2-3.7,2.4-5.5
						c0.1-0.8,0.3-1.4,1-1.4c0.6,0,0.7,0.5,0.7,1.6c0,1-0.6,7.9-1.4,10.5c-0.5,2-1,2.5-5.8,2.5c-6.6,0-11.3-0.2-15.4-0.3
						c-4.1-0.2-7.4-0.3-11.2-0.3c-1,0-3,0-5.2,0.1c-2.1,0-4.5,0.2-6.3,0.2c-1.2,0-1.8-0.3-1.8-0.9c0-0.5,0.4-0.7,1.5-0.7
						c1.4,0,2.5-0.2,3.3-0.4c1.8-0.4,2.3-2.4,2.6-5c0.5-3.8,0.5-11.1,0.5-19.5v-16.1c0-13.9,0-16.5-0.2-19.4
						c-0.2-3.1-0.9-4.6-3.9-5.2c-0.7-0.2-1.8-0.3-3-0.3c-1,0-1.6-0.2-1.6-0.8c0-0.6,0.6-0.8,2-0.8c4.3,0,10.1,0.3,12.5,0.3
						c2.2,0,8.9-0.3,12.4-0.3c1.3,0,1.9,0.2,1.9,0.8c0,0.6-0.5,0.8-1.6,0.8c-1,0-2.5,0.1-3.6,0.3c-2.5,0.5-3.2,2-3.4,5.2
						c-0.2,2.9-0.2,5.5-0.2,19.4L348.6,602.8L348.6,602.8z"/>
					<path class="st1" d="M388.4,628.2c-1.5-0.6-1.7-1.1-1.7-3.1c0-5,0.4-10.5,0.5-12c0.1-1.4,0.4-2.4,1.1-2.4
						c0.8,0,0.9,0.8,0.9,1.6c0,1.2,0.4,3.1,0.8,4.7c2,6.8,7.4,9.2,13.1,9.2c8.2,0,12.3-5.6,12.3-10.4c0-4.5-1.4-8.7-9-14.6l-4.2-3.3
						c-10.1-7.9-13.5-14.3-13.5-21.7c0-10.1,8.4-17.3,21.1-17.3c5.9,0,9.8,0.9,12.2,1.6c0.8,0.2,1.3,0.5,1.3,1.1
						c0,1.2-0.4,3.8-0.4,11c0,2-0.3,2.7-1,2.7c-0.6,0-0.9-0.5-0.9-1.6c0-0.8-0.5-3.7-2.4-6c-1.4-1.7-4-4.5-10-4.5
						c-6.8,0-10.9,3.9-10.9,9.4c0,4.2,2.1,7.4,9.7,13.2l2.6,1.9c11.1,8.3,15,14.6,15,23.3c0,5.3-2,11.6-8.6,15.9
						c-4.6,2.9-9.7,3.7-14.5,3.7C396.4,630.6,392.3,630,388.4,628.2z"/>
					<path class="st1" d="M504.2,586.7c0-13.9,0-16.5-0.2-19.4c-0.2-3.1-0.9-4.6-3.9-5.2c-0.7-0.2-2.3-0.3-3.6-0.3
						c-1,0-1.6-0.2-1.6-0.8c0-0.6,0.6-0.8,2-0.8c4.9,0,10.6,0.3,12.5,0.3c3.1,0,10.1-0.3,12.9-0.3c5.8,0,11.9,0.5,16.8,3.9
						c2.6,1.7,6.2,6.4,6.2,12.5c0,6.8-2.8,13-12.1,20.5c8.1,10.2,14.4,18.4,19.8,24c5.1,5.3,8.9,5.9,10.2,6.2c1,0.2,1.8,0.3,2.6,0.3
						s1.1,0.3,1.1,0.7c0,0.7-0.6,0.9-1.7,0.9h-8.7c-5.1,0-7.4-0.5-9.8-1.7c-3.9-2.1-7.4-6.4-12.5-13.4c-3.7-5-7.9-11.2-9.1-12.6
						c-0.5-0.5-1-0.6-1.6-0.6l-7.9-0.2c-0.5,0-0.7,0.2-0.7,0.7v1.3c0,8.5,0,15.7,0.5,19.6c0.3,2.6,0.8,4.7,3.6,5
						c1.4,0.2,3.4,0.4,4.5,0.4c0.7,0,1.1,0.3,1.1,0.7c0,0.6-0.6,0.9-1.8,0.9c-5.3,0-12.1-0.3-13.4-0.3c-1.7,0-7.5,0.3-11.2,0.3
						c-1.2,0-1.8-0.3-1.8-0.9c0-0.5,0.4-0.7,1.5-0.7c1.4,0,2.5-0.2,3.3-0.4c1.8-0.4,2.3-2.4,2.6-5c0.5-3.8,0.5-11.1,0.5-19.5
						L504.2,586.7L504.2,586.7z M515,594c0,1,0.2,1.4,0.8,1.6c1.9,0.6,4.7,0.9,7,0.9c3.7,0,4.9-0.4,6.5-1.6c2.8-2,5.4-6.2,5.4-13.7
						c0-13-8.6-16.7-14-16.7c-2.3,0-3.9,0.1-4.9,0.4c-0.6,0.2-0.8,0.5-0.8,1.3V594z"/>
					<path class="st1" d="M578.4,586.7c0-13.9,0-16.5-0.2-19.4c-0.2-3.1-0.9-4.6-3.9-5.2c-0.7-0.2-2.3-0.3-3.6-0.3
						c-1,0-1.6-0.2-1.6-0.8c0-0.6,0.6-0.8,2-0.8c2.5,0,5.1,0.1,7.4,0.1c2.4,0.1,4.5,0.2,5.8,0.2c2.9,0,21.1,0,22.9-0.1
						c1.7-0.2,3.2-0.4,3.9-0.5c0.5-0.1,1-0.4,1.5-0.4s0.5,0.4,0.5,0.8c0,0.6-0.5,1.7-0.7,5.9c-0.1,0.9-0.3,4.9-0.5,6
						c-0.1,0.5-0.3,1-0.9,1c-0.6,0-0.8-0.5-0.8-1.3c0-0.6-0.1-2.2-0.5-3.3c-0.6-1.6-1.6-2.8-6.1-3.3c-1.6-0.2-11.2-0.4-13-0.4
						c-0.5,0-0.6,0.3-0.6,0.9v23.1c0,0.6,0.1,1,0.6,1c2,0,12.5,0,14.6-0.2c2.2-0.2,3.6-0.5,4.4-1.4c0.6-0.7,1-1.2,1.5-1.2
						c0.4,0,0.6,0.2,0.6,0.7c0,0.5-0.4,2-0.7,6.7c-0.1,1.8-0.4,5.5-0.4,6.1c0,0.7,0,1.7-0.8,1.7c-0.6,0-0.8-0.4-0.8-0.8
						c-0.1-0.9-0.1-2.1-0.4-3.3c-0.5-1.8-1.7-3.2-5.1-3.6c-1.7-0.2-10.8-0.3-13-0.3c-0.5,0-0.5,0.4-0.5,0.9v7.2
						c0,3.1-0.1,11.5,0,14.2c0.2,6.3,1.6,7.7,11,7.7c2.4,0,6.2,0,8.6-1.1c2.4-1.1,3.5-3,4.1-6.8c0.2-1,0.4-1.4,1-1.4
						c0.7,0,0.7,0.7,0.7,1.6c0,2.1-0.7,8.3-1.2,10.2c-0.6,2.4-1.5,2.4-4.9,2.4c-6.9,0-11.9-0.2-15.8-0.3c-3.9-0.2-6.8-0.3-9.5-0.3
						c-1,0-3,0-5.2,0.1c-2.1,0-4.5,0.2-6.3,0.2c-1.2,0-1.8-0.3-1.8-0.9c0-0.5,0.4-0.7,1.5-0.7c1.4,0,2.5-0.2,3.3-0.4
						c1.8-0.4,2.3-2.4,2.6-5c0.5-3.8,0.5-11.1,0.5-19.5L578.4,586.7L578.4,586.7z"/>
					<path class="st1" d="M629.9,628.2c-1.5-0.6-1.7-1.1-1.7-3.1c0-5,0.4-10.5,0.5-12c0.1-1.4,0.4-2.4,1.1-2.4
						c0.8,0,0.9,0.8,0.9,1.6c0,1.2,0.4,3.1,0.8,4.7c2,6.8,7.4,9.2,13.1,9.2c8.2,0,12.3-5.6,12.3-10.4c0-4.5-1.4-8.7-9-14.6l-4.2-3.3
						c-10.1-7.9-13.5-14.3-13.5-21.7c0-10.1,8.4-17.3,21.1-17.3c5.9,0,9.8,0.9,12.2,1.6c0.8,0.2,1.3,0.5,1.3,1.1
						c0,1.2-0.4,3.8-0.4,11c0,2-0.3,2.7-1,2.7c-0.6,0-0.9-0.5-0.9-1.6c0-0.8-0.5-3.7-2.4-6c-1.4-1.7-4-4.5-10-4.5
						c-6.8,0-10.9,3.9-10.9,9.4c0,4.2,2.1,7.4,9.7,13.2l2.6,1.9c11.1,8.3,15,14.6,15,23.3c0,5.3-2,11.6-8.6,15.9
						c-4.6,2.9-9.7,3.7-14.5,3.7C638,630.6,633.8,630,629.9,628.2z"/>
					<path class="st1" d="M679.1,594.8c0-15.6,10.3-35.8,37.8-35.8c22.8,0,36.9,13.3,36.9,34.2c0,20.9-14.6,37.5-37.9,37.5
						C689.7,630.6,679.1,611,679.1,594.8z M741,596.5c0-20.5-11.8-33.2-26.8-33.2c-10.5,0-22.5,5.8-22.5,28.6
						c0,19,10.5,34.1,28.1,34.1C726.2,626.1,741,623,741,596.5z"/>
					<path class="st1" d="M771.7,586.7c0-13.9,0-16.5-0.2-19.4c-0.2-3.1-0.9-4.6-3.9-5.2c-0.7-0.2-2.3-0.3-3.6-0.3
						c-1,0-1.6-0.2-1.6-0.8c0-0.6,0.6-0.8,2-0.8c4.9,0,10.6,0.3,12.5,0.3c3.1,0,10.1-0.3,12.9-0.3c5.8,0,11.9,0.5,16.8,3.9
						c2.6,1.7,6.2,6.4,6.2,12.5c0,6.8-2.8,13-12.1,20.5c8.1,10.2,14.4,18.4,19.8,24c5.1,5.3,8.9,5.9,10.2,6.2c1,0.2,1.8,0.3,2.6,0.3
						c0.7,0,1.1,0.3,1.1,0.7c0,0.7-0.6,0.9-1.7,0.9h-8.7c-5.1,0-7.4-0.5-9.8-1.7c-3.9-2.1-7.4-6.4-12.5-13.4
						c-3.7-5-7.9-11.2-9.1-12.6c-0.5-0.5-1-0.6-1.6-0.6l-7.9-0.2c-0.5,0-0.7,0.2-0.7,0.7v1.3c0,8.5,0,15.7,0.5,19.6
						c0.3,2.6,0.8,4.7,3.6,5c1.4,0.2,3.4,0.4,4.5,0.4c0.7,0,1.1,0.3,1.1,0.7c0,0.6-0.6,0.9-1.8,0.9c-5.3,0-12.1-0.3-13.4-0.3
						c-1.7,0-7.5,0.3-11.2,0.3c-1.2,0-1.8-0.3-1.8-0.9c0-0.5,0.4-0.7,1.5-0.7c1.4,0,2.5-0.2,3.3-0.4c1.8-0.4,2.3-2.4,2.6-5
						c0.5-3.8,0.5-11.1,0.5-19.5L771.7,586.7L771.7,586.7z M782.5,594c0,1,0.2,1.4,0.8,1.6c1.9,0.6,4.7,0.9,7,0.9
						c3.7,0,4.9-0.4,6.5-1.6c2.8-2,5.4-6.2,5.4-13.7c0-13-8.6-16.7-14-16.7c-2.3,0-3.9,0.1-4.9,0.4c-0.6,0.2-0.8,0.5-0.8,1.3V594z"
						/>
					<path class="st1" d="M850.4,565.3l-13.6,0.4c-5.3,0.2-7.5,0.6-8.9,2.6c-0.9,1.4-1.4,2.5-1.6,3.2c-0.2,0.7-0.5,1.1-1,1.1
						c-0.6,0-0.8-0.5-0.8-1.5c0-1.5,1.7-9.8,1.9-10.5c0.3-1.2,0.5-1.7,1.1-1.7c0.7,0,1.6,0.9,3.9,1.1c2.6,0.3,6.1,0.5,9.1,0.5h36.2
						c2.9,0,4.9-0.3,6.3-0.5c1.4-0.3,2.1-0.5,2.5-0.5c0.6,0,0.7,0.5,0.7,1.9c0,1.9-0.3,8.2-0.3,10.6c-0.1,0.9-0.3,1.5-0.8,1.5
						c-0.7,0-0.9-0.5-1-1.8l-0.1-1c-0.2-2.4-2.6-4.9-10.8-5.1l-11.5-0.3v37.5c0,8.4,0,15.6,0.5,19.6c0.3,2.6,0.8,4.6,3.6,4.9
						c1.3,0.2,3.3,0.4,4.7,0.4c1,0,1.5,0.3,1.5,0.7c0,0.6-0.7,0.9-1.7,0.9c-6,0-11.8-0.3-14.4-0.3c-2.1,0-7.9,0.3-11.5,0.3
						c-1.2,0-1.8-0.3-1.8-0.9c0-0.5,0.4-0.7,1.5-0.7c1.4,0,2.5-0.2,3.3-0.4c1.8-0.4,2.4-2.4,2.6-5c0.5-3.8,0.5-11.1,0.5-19.5
						L850.4,565.3L850.4,565.3z"/>
					<path class="st1" d="M899,628.2c-1.5-0.6-1.7-1.1-1.7-3.1c0-5,0.4-10.5,0.5-12c0.1-1.4,0.4-2.4,1.1-2.4c0.8,0,0.9,0.8,0.9,1.6
						c0,1.2,0.4,3.1,0.8,4.7c2,6.8,7.4,9.2,13.1,9.2c8.2,0,12.3-5.6,12.3-10.4c0-4.5-1.4-8.7-9-14.6l-4.2-3.3
						c-10.1-7.9-13.5-14.3-13.5-21.7c0-10.1,8.4-17.3,21.1-17.3c5.9,0,9.8,0.9,12.2,1.6c0.8,0.2,1.3,0.5,1.3,1.1
						c0,1.2-0.4,3.8-0.4,11c0,2-0.3,2.7-1,2.7c-0.6,0-0.9-0.5-0.9-1.6c0-0.8-0.5-3.7-2.4-6c-1.4-1.7-4-4.5-10-4.5
						c-6.8,0-10.9,3.9-10.9,9.4c0,4.2,2.1,7.4,9.7,13.2l2.6,1.9c11.1,8.3,15,14.6,15,23.3c0,5.3-2,11.6-8.6,15.9
						c-4.6,2.9-9.7,3.7-14.5,3.7C907,630.6,902.9,630,899,628.2z"/>
					<path class="st1" d="M1009.8,628.2c-1.5-0.6-1.7-1.1-1.7-3.1c0-5,0.4-10.5,0.5-12c0.1-1.4,0.4-2.4,1.1-2.4
						c0.8,0,0.9,0.8,0.9,1.6c0,1.2,0.4,3.1,0.8,4.7c2,6.8,7.4,9.2,13.1,9.2c8.2,0,12.3-5.6,12.3-10.4c0-4.5-1.4-8.7-9-14.6l-4.2-3.3
						c-10.1-7.9-13.5-14.3-13.5-21.7c0-10.1,8.4-17.3,21.1-17.3c5.9,0,9.8,0.9,12.2,1.6c0.8,0.2,1.3,0.5,1.3,1.1
						c0,1.2-0.4,3.8-0.4,11c0,2-0.3,2.7-1,2.7c-0.6,0-0.9-0.5-0.9-1.6c0-0.8-0.5-3.7-2.4-6c-1.4-1.7-4-4.5-10-4.5
						c-6.8,0-10.9,3.9-10.9,9.4c0,4.2,2.1,7.4,9.7,13.2l2.6,1.9c11.1,8.3,15,14.6,15,23.3c0,5.3-2,11.6-8.6,15.9
						c-4.6,2.9-9.7,3.7-14.5,3.7C1017.8,630.6,1013.7,630,1009.8,628.2z"/>
					<path class="st1" d="M1068.9,586.7c0-13.9,0-16.5-0.2-19.4c-0.2-3.1-0.9-4.6-3.9-5.2c-0.7-0.2-2.3-0.3-3.6-0.3
						c-1,0-1.6-0.2-1.6-0.8c0-0.6,0.6-0.8,2-0.8c4.9,0,10.6,0.3,13.2,0.3c3.7,0,9.1-0.3,13.3-0.3c11.4,0,15.6,3.8,17,5.2
						c2,1.9,4.6,6,4.6,10.9c0,13-9.5,22.1-22.5,22.1c-0.5,0-1.5,0-1.9-0.1c-0.5-0.1-1.1-0.2-1.1-0.8c0-0.7,0.6-1,2.6-1
						c5.1,0,12.3-5.8,12.3-15.1c0-3-0.3-9.1-5.4-13.7c-3.3-3-7-3.6-9.1-3.6c-1.4,0-2.8,0.1-3.6,0.4c-0.5,0.2-0.7,0.7-0.7,1.7v36.6
						c0,8.4,0,15.6,0.5,19.6c0.3,2.6,0.8,4.6,3.6,4.9c1.3,0.2,3.3,0.4,4.7,0.4c1,0,1.5,0.3,1.5,0.7c0,0.6-0.7,0.9-1.7,0.9
						c-6,0-11.8-0.3-14.2-0.3c-2.1,0-7.9,0.3-11.5,0.3c-1.2,0-1.8-0.3-1.8-0.9c0-0.5,0.4-0.7,1.5-0.7c1.4,0,2.5-0.2,3.3-0.4
						c1.8-0.4,2.3-2.4,2.6-5c0.5-3.8,0.5-11.1,0.5-19.5L1068.9,586.7L1068.9,586.7z"/>
					<path class="st1" d="M1128,605.5c-0.5,0-0.6,0.2-0.8,0.7l-4.9,13.1c-0.9,2.3-1.4,4.5-1.4,5.6c0,1.6,0.8,2.8,3.7,2.8h1.4
						c1.1,0,1.4,0.2,1.4,0.7c0,0.7-0.5,0.9-1.6,0.9c-2.9,0-6.9-0.3-9.7-0.3c-1,0-6,0.3-10.8,0.3c-1.2,0-1.7-0.2-1.7-0.9
						c0-0.5,0.4-0.7,1.1-0.7c0.8,0,2.1-0.1,2.8-0.2c4.2-0.5,5.9-3.7,7.8-8.2l23-57.4c1.1-2.6,1.6-3.7,2.6-3.7c0.8,0,1.4,0.8,2.3,2.9
						c2.2,5,16.8,42.3,22.7,56.2c3.5,8.2,6.1,9.5,8,10c1.4,0.3,2.8,0.4,3.8,0.4c0.7,0,1.2,0.1,1.2,0.7c0,0.7-0.8,0.9-4.2,0.9
						c-3.3,0-10,0-17.3-0.2c-1.6-0.1-2.8-0.1-2.8-0.7c0-0.5,0.4-0.7,1.3-0.8c0.6-0.2,1.3-1,0.8-2.1l-7.3-19.4
						c-0.2-0.5-0.5-0.6-0.9-0.6L1128,605.5L1128,605.5z M1146.6,600.9c0.5,0,0.5-0.3,0.5-0.5l-8.2-22.6c-0.1-0.4-0.2-0.8-0.5-0.8
						c-0.3,0-0.5,0.5-0.5,0.8l-8.4,22.5c-0.1,0.4,0,0.6,0.4,0.6L1146.6,600.9L1146.6,600.9z"/>
					<path class="st1" d="M1184.1,628.2c-1.5-0.6-1.7-1.1-1.7-3.1c0-5,0.4-10.5,0.5-12c0.1-1.4,0.4-2.4,1.1-2.4
						c0.8,0,0.9,0.8,0.9,1.6c0,1.2,0.4,3.1,0.8,4.7c2,6.8,7.4,9.2,13.1,9.2c8.2,0,12.3-5.6,12.3-10.4c0-4.5-1.4-8.7-9-14.6l-4.2-3.3
						c-10.1-7.9-13.5-14.3-13.5-21.7c0-10.1,8.4-17.3,21.1-17.3c5.9,0,9.8,0.9,12.2,1.6c0.8,0.2,1.3,0.5,1.3,1.1
						c0,1.2-0.4,3.8-0.4,11c0,2-0.3,2.7-1,2.7c-0.6,0-0.9-0.5-0.9-1.6c0-0.8-0.5-3.7-2.4-6c-1.4-1.7-4-4.5-10-4.5
						c-6.8,0-10.9,3.9-10.9,9.4c0,4.2,2.1,7.4,9.7,13.2l2.6,1.9c11.1,8.3,15,14.6,15,23.3c0,5.3-2,11.6-8.6,15.9
						c-4.6,2.9-9.7,3.7-14.5,3.7C1192.2,630.6,1188.1,630,1184.1,628.2z"/>
				</g>
			</g>
		</g>
		<g>
			<rect x="455" y="586.8" class="st1" width="14.8" height="14.8"/>
			<rect x="965.6" y="586.8" class="st1" width="14.8" height="14.8"/>
		</g>
	</g>
	<g>
		<rect y="511.9" class="st1" width="1251.2" height="7.4"/>
	</g>
	<g>
		<path class="st1" d="M51.8,421.6c-1,0-1.3,0.4-1.7,1.6l-10.4,26.5c-1.9,4.8-2.9,9.5-2.9,11.8c0,3.5,1.7,6,7.7,6h2.9
			c2.3,0,2.9,0.4,2.9,1.6c0,1.6-1.2,1.9-3.3,1.9c-6.2,0-14.5-0.6-20.5-0.6c-2.1,0-12.8,0.6-22.8,0.6c-2.5,0-3.7-0.4-3.7-1.9
			c0-1.2,0.8-1.6,2.3-1.6c1.7,0,4.5-0.2,6-0.4c8.9-1.2,12.6-7.7,16.4-17.4l48.5-119.9c2.3-5.6,3.5-7.7,5.4-7.7
			c1.7,0,2.9,1.7,4.8,6.2c4.6,10.6,35.6,88,47.9,117.4c7.4,17.4,12.9,20.1,17,21.1c2.9,0.6,5.8,0.8,8.1,0.8c1.6,0,2.5,0.2,2.5,1.6
			c0,1.6-1.7,1.9-8.9,1.9c-7,0-21.1,0-36.6-0.4c-3.5-0.2-5.8-0.2-5.8-1.6c0-1.2,0.8-1.6,2.7-1.7c1.3-0.4,2.7-2.1,1.7-4.5l-15.5-39.8
			c-0.4-1-1-1.3-1.9-1.3L51.8,421.6L51.8,421.6z M91.2,411.9c1,0,1.2-0.6,1-1.2l-17.4-47.6c-0.2-0.8-0.4-1.7-1-1.7
			c-0.6,0-1,1-1.2,1.7l-17.8,47.4c-0.2,0.8,0,1.3,0.8,1.3L91.2,411.9L91.2,411.9z"/>
		<path class="st1" d="M200.8,444.6c0.4,15.1,2.9,20.1,6.8,21.5c3.3,1.2,7,1.3,10,1.3c2.1,0,3.3,0.4,3.3,1.6c0,1.6-1.7,1.9-4.5,1.9
			c-12.6,0-20.3-0.6-24-0.6c-1.7,0-10.8,0.6-20.9,0.6c-2.5,0-4.2-0.2-4.2-1.9c0-1.2,1.2-1.6,3.1-1.6c2.5,0,6-0.2,8.7-1
			c5-1.6,5.8-7.1,6-24l1.7-113.9c0-3.9,0.6-6.6,2.5-6.6c2.1,0,3.9,2.5,7.1,6c2.3,2.5,31.7,33.4,59.9,61.5
			c13.1,13.1,39.2,41,42.5,44.1h1l-1.9-86.8c-0.2-11.8-1.9-15.5-6.6-17.4c-2.9-1.2-7.5-1.2-10.3-1.2c-2.3,0-3.1-0.6-3.1-1.7
			c0-1.6,2.1-1.7,5-1.7c10,0,19.3,0.6,23.4,0.6c2.1,0,9.5-0.6,18.9-0.6c2.5,0,4.5,0.2,4.5,1.7c0,1.2-1.2,1.7-3.5,1.7
			c-1.9,0-3.5,0-5.8,0.6c-5.4,1.6-7,5.6-7.1,16.4l-2.1,122c0,4.2-0.8,6-2.5,6c-2.1,0-4.5-2.1-6.6-4.2c-12.2-11.6-36.9-36.9-57-56.8
			c-21.1-20.9-42.5-44.5-46-48.1h-0.6L200.8,444.6z"/>
		<path class="st1" d="M371.2,421.6c-1,0-1.3,0.4-1.7,1.6L359,449.6c-1.9,4.8-2.9,9.5-2.9,11.8c0,3.5,1.7,6,7.7,6h2.9
			c2.3,0,2.9,0.4,2.9,1.6c0,1.6-1.2,1.9-3.3,1.9c-6.2,0-14.5-0.6-20.5-0.6c-2.1,0-12.8,0.6-22.8,0.6c-2.5,0-3.7-0.4-3.7-1.9
			c0-1.2,0.8-1.6,2.3-1.6c1.7,0,4.5-0.2,6-0.4c8.9-1.2,12.6-7.7,16.4-17.4l48.5-119.9c2.3-5.6,3.5-7.7,5.4-7.7
			c1.7,0,2.9,1.7,4.8,6.2c4.6,10.6,35.6,88,47.9,117.4c7.4,17.4,12.9,20.1,17,21.1c2.9,0.6,5.8,0.8,8.1,0.8c1.6,0,2.5,0.2,2.5,1.6
			c0,1.6-1.7,1.9-8.9,1.9c-7,0-21.1,0-36.6-0.4c-3.5-0.2-5.8-0.2-5.8-1.6c0-1.2,0.8-1.6,2.7-1.7c1.3-0.4,2.7-2.1,1.7-4.5l-15.5-39.8
			c-0.4-1-1-1.3-1.9-1.3L371.2,421.6L371.2,421.6z M410.6,411.9c1,0,1.2-0.6,1-1.2l-17.4-47.6c-0.2-0.8-0.4-1.7-1-1.7s-1,1-1.2,1.7
			l-17.8,47.4c-0.2,0.8,0,1.3,0.8,1.3L410.6,411.9L410.6,411.9z"/>
		<path class="st1" d="M520.3,444.6c0.4,15.1,2.9,20.1,6.8,21.5c3.3,1.2,7,1.3,10,1.3c2.1,0,3.3,0.4,3.3,1.6c0,1.6-1.7,1.9-4.5,1.9
			c-12.6,0-20.3-0.6-24-0.6c-1.7,0-10.8,0.6-20.9,0.6c-2.5,0-4.2-0.2-4.2-1.9c0-1.2,1.2-1.6,3.1-1.6c2.5,0,6-0.2,8.7-1
			c5-1.6,5.8-7.1,6-24l1.7-113.9c0-3.9,0.6-6.6,2.5-6.6c2.1,0,3.9,2.5,7.1,6c2.3,2.5,31.7,33.4,59.9,61.5
			c13.1,13.1,39.2,41,42.5,44.1h1l-1.9-86.8c-0.2-11.8-1.9-15.5-6.6-17.4c-2.9-1.2-7.5-1.2-10.3-1.2c-2.3,0-3.1-0.6-3.1-1.7
			c0-1.6,2.1-1.7,5-1.7c10,0,19.3,0.6,23.4,0.6c2.1,0,9.5-0.6,18.9-0.6c2.5,0,4.5,0.2,4.5,1.7c0,1.2-1.2,1.7-3.5,1.7
			c-1.9,0-3.5,0-5.8,0.6c-5.4,1.6-7,5.6-7.1,16.4l-2.1,122c0,4.2-0.8,6-2.5,6c-2.1,0-4.5-2.1-6.6-4.2c-12.2-11.6-36.9-36.9-57-56.8
			c-21.1-20.9-42.5-44.5-46-48.1h-0.6L520.3,444.6z"/>
		<path class="st1" d="M712.4,335.5l-28.8,0.8c-11.2,0.4-15.8,1.3-18.7,5.6c-1.9,2.9-2.9,5.2-3.3,6.8c-0.4,1.6-1,2.3-2.1,2.3
			c-1.3,0-1.7-1-1.7-3.1c0-3.1,3.7-20.7,4.1-22.2c0.6-2.5,1.2-3.7,2.3-3.7c1.6,0,3.5,1.9,8.3,2.3c5.6,0.6,12.9,1,19.3,1h76.6
			c6.2,0,10.4-0.6,13.3-1c2.9-0.6,4.5-1,5.2-1c1.3,0,1.6,1.2,1.6,4.1c0,4.1-0.6,17.4-0.6,22.4c-0.2,1.9-0.6,3.1-1.7,3.1
			c-1.6,0-1.9-1-2.1-3.9l-0.2-2.1c-0.4-5-5.6-10.4-22.8-10.8l-24.4-0.6v79.3c0,17.8,0,33.1,1,41.4c0.6,5.4,1.7,9.7,7.5,10.4
			c2.7,0.4,7,0.8,9.9,0.8c2.1,0,3.1,0.6,3.1,1.6c0,1.3-1.6,1.9-3.7,1.9c-12.8,0-24.9-0.6-30.4-0.6c-4.5,0-16.6,0.6-24.4,0.6
			c-2.5,0-3.9-0.6-3.9-1.9c0-1,0.8-1.6,3.1-1.6c2.9,0,5.2-0.4,7-0.8c3.9-0.8,5-5,5.6-10.6c1-8.1,1-23.4,1-41.2L712.4,335.5
			L712.4,335.5z"/>
		<path class="st1" d="M818.3,421.6c-1,0-1.3,0.4-1.7,1.6l-10.4,26.5c-1.9,4.8-2.9,9.5-2.9,11.8c0,3.5,1.7,6,7.7,6h2.9
			c2.3,0,2.9,0.4,2.9,1.6c0,1.6-1.2,1.9-3.3,1.9c-6.2,0-14.5-0.6-20.5-0.6c-2.1,0-12.8,0.6-22.8,0.6c-2.5,0-3.7-0.4-3.7-1.9
			c0-1.2,0.8-1.6,2.3-1.6c1.7,0,4.5-0.2,6-0.4c8.9-1.2,12.6-7.7,16.4-17.4l48.5-119.9c2.3-5.6,3.5-7.7,5.4-7.7
			c1.7,0,2.9,1.7,4.8,6.2c4.6,10.6,35.6,88,47.9,117.4c7.4,17.4,12.9,20.1,17,21.1c2.9,0.6,5.8,0.8,8.1,0.8c1.6,0,2.5,0.2,2.5,1.6
			c0,1.6-1.7,1.9-8.9,1.9c-7,0-21.1,0-36.6-0.4c-3.5-0.2-5.8-0.2-5.8-1.6c0-1.2,0.8-1.6,2.7-1.7c1.3-0.4,2.7-2.1,1.7-4.5l-15.5-39.8
			c-0.4-1-1-1.3-1.9-1.3L818.3,421.6L818.3,421.6z M857.7,411.9c1,0,1.2-0.6,1-1.2l-17.4-47.6c-0.2-0.8-0.4-1.7-1-1.7
			c-0.6,0-1,1-1.2,1.7l-17.8,47.4c-0.2,0.8,0,1.3,0.8,1.3L857.7,411.9L857.7,411.9z"/>
		<path class="st1" d="M950.6,380.8c0-29.4,0-34.8-0.4-41c-0.4-6.6-1.9-9.7-8.3-11c-1.6-0.4-4.8-0.6-7.5-0.6c-2.1,0-3.3-0.4-3.3-1.7
			c0-1.3,1.3-1.7,4.2-1.7c10.2,0,22.4,0.6,26.5,0.6c6.6,0,21.3-0.6,27.3-0.6c12.2,0,25.1,1.2,35.6,8.3c5.4,3.7,13.1,13.5,13.1,26.5
			c0,14.3-6,27.4-25.5,43.3c17.2,21.6,30.5,38.9,42,50.8c10.8,11.2,18.7,12.6,21.6,13.1c2.1,0.4,3.9,0.6,5.4,0.6
			c1.6,0,2.3,0.6,2.3,1.6c0,1.6-1.3,1.9-3.7,1.9h-18.4c-10.8,0-15.7-1-20.7-3.7c-8.3-4.5-15.7-13.5-26.5-28.4
			c-7.7-10.6-16.6-23.8-19.1-26.7c-1-1.2-2.1-1.3-3.5-1.3l-16.8-0.4c-1,0-1.6,0.4-1.6,1.6v2.7c0,18,0,33.3,1,41.4
			c0.6,5.6,1.7,9.9,7.5,10.6c2.9,0.4,7.1,0.8,9.5,0.8c1.6,0,2.3,0.6,2.3,1.6c0,1.3-1.3,1.9-3.9,1.9c-11.2,0-25.5-0.6-28.4-0.6
			c-3.7,0-15.8,0.6-23.6,0.6c-2.5,0-3.9-0.6-3.9-1.9c0-1,0.8-1.6,3.1-1.6c2.9,0,5.2-0.4,7-0.8c3.9-0.8,4.8-5,5.6-10.6
			c1-8.1,1-23.4,1-41.2L950.6,380.8L950.6,380.8z M973.4,396c0,2.1,0.4,2.9,1.7,3.5c4.1,1.3,9.9,1.9,14.7,1.9
			c7.7,0,10.2-0.8,13.7-3.3c5.8-4.2,11.4-13.1,11.4-29c0-27.4-18.2-35.4-29.6-35.4c-4.8,0-8.3,0.2-10.3,0.8
			c-1.3,0.4-1.7,1.2-1.7,2.7V396z"/>
		<path class="st1" d="M1143.8,421.6c-1,0-1.3,0.4-1.7,1.6l-10.4,26.5c-1.9,4.8-2.9,9.5-2.9,11.8c0,3.5,1.7,6,7.7,6h2.9
			c2.3,0,2.9,0.4,2.9,1.6c0,1.6-1.2,1.9-3.3,1.9c-6.2,0-14.5-0.6-20.5-0.6c-2.1,0-12.8,0.6-22.8,0.6c-2.5,0-3.7-0.4-3.7-1.9
			c0-1.2,0.8-1.6,2.3-1.6c1.7,0,4.5-0.2,6-0.4c8.9-1.2,12.6-7.7,16.4-17.4l48.5-119.9c2.3-5.6,3.5-7.7,5.4-7.7
			c1.7,0,2.9,1.7,4.8,6.2c4.6,10.6,35.6,88,47.9,117.4c7.4,17.4,12.9,20.1,17,21.1c2.9,0.6,5.8,0.8,8.1,0.8c1.6,0,2.5,0.2,2.5,1.6
			c0,1.6-1.7,1.9-8.9,1.9c-7,0-21.1,0-36.6-0.4c-3.5-0.2-5.8-0.2-5.8-1.6c0-1.2,0.8-1.6,2.7-1.7c1.3-0.4,2.7-2.1,1.7-4.5l-15.5-39.8
			c-0.4-1-1-1.3-1.9-1.3L1143.8,421.6L1143.8,421.6z M1183.3,411.9c1,0,1.2-0.6,1-1.2l-17.4-47.6c-0.2-0.8-0.4-1.7-1-1.7
			c-0.6,0-1,1-1.2,1.7l-17.8,47.4c-0.2,0.8,0,1.3,0.8,1.3L1183.3,411.9L1183.3,411.9z"/>
	</g>
</g>
</svg>
