<?xml version="1.0" encoding="utf-8"?>
<!-- Generator: Adobe Illustrator 23.0.4, SVG Export Plug-In . SVG Version: 6.00 Build 0)  -->
<svg version="1.1" id="LOGO_M" xmlns="http://www.w3.org/2000/svg" xmlns:xlink="http://www.w3.org/1999/xlink" x="0px" y="0px"
	 viewBox="0 0 545.5 208.5" style="enable-background:new 0 0 545.5 208.5;" xml:space="preserve">
<style type="text/css">
	.st0{fill:#1F1E21;}
	.st1{fill:#5E666F;}
</style>
<g>
	<path class="st0" d="M113,84V66.8H94.7V84h-7.9V42.4h7.9v17.3H113V42.4h7.9V84H113z M72.6,51.4c0.6,1.1,0.9,2.6,0.9,4.4V84h7.7
		V53.5c0-2.9-0.6-5.4-1.9-7.4c-2-2.9-5.2-4.4-9.3-4.4c-5.4,0-9.5,2.5-13,5.9l-1.8,1.7v-6.9H42v6h5.9V84h7.7V53.3l0.4-0.3
		c2.7-2.1,6.7-4.7,10.9-4.7C70.2,48.3,71.8,50,72.6,51.4z"/>
	<g>
		<polygon class="st1" points="192.1,65.1 173.8,65.1 173.8,79.1 169.9,79.1 169.9,48.1 173.8,48.1 173.8,61.5 192.1,61.5 
			192.1,48.1 196,48.1 196,79.1 192.1,79.1 		"/>
	</g>
	<path class="st1" d="M219.5,47.5c-10.1,0-16.3,7.1-16.3,16.1c0,8.2,5.3,16,16.2,16c10.9,0,16.1-7.9,16.2-16
		C235.6,55.5,230.3,47.6,219.5,47.5z M219.5,76.1c-8.4,0-12.3-6.1-12.3-12.4c0-6.8,4.2-12.6,12.3-12.6c8.3,0.1,12.2,6.3,12.2,12.6
		C231.6,69.8,227.8,76.1,219.5,76.1z"/>
	<g>
		<polygon class="st1" points="238.1,51.5 238.1,48.1 263.8,48.1 263.8,51.5 253,51.5 253,79.1 249,79.1 249,51.5 		"/>
	</g>
	<g>
		<polygon class="st1" points="269.5,48.1 292,48.1 292,51.6 273.5,51.6 273.5,61.3 291.2,61.3 291.2,64.9 273.5,64.9 273.5,75.4 
			292.7,75.4 292.7,79.1 269.5,79.1 		"/>
	</g>
	<g>
		<polygon class="st1" points="303.9,75.5 321.2,75.5 321.2,79.1 299.9,79.1 299.9,48.1 303.9,48.1 		"/>
	</g>
	<g>
		<path class="st1" d="M362.5,54.7c-2.5-2.3-6.2-3.6-9.4-3.6c-8.2,0-12.7,6-12.7,12.8c0,6.3,4.1,12.2,12.8,12.2c3,0,6.1-0.9,8.7-3.1
			v-7.4h-9.9v-3.4h13.5v12.3c-3.2,3.4-7.2,5.3-12.4,5.3c-11.4,0-16.6-7.5-16.6-15.8c0-9.3,6.2-16.4,16.6-16.4
			c4.2,0,8.5,1.6,11.7,4.7L362.5,54.7z"/>
	</g>
	<path class="st1" d="M389.2,67.6c6.6-0.5,9.2-4.9,9.2-9.6c0-5-3.6-9.9-10.8-9.9H373v31h4V67.9h7.7l9.9,11.2h5L389.2,67.6z
		 M377,64.5v-13h10.5c4.6,0,6.9,3.5,6.8,6.6c0,3.5-2.2,6.4-7,6.4H377z"/>
	<path class="st1" d="M420.4,47.5c-10.1,0-16.3,7.1-16.3,16.1c0,8.2,5.3,16,16.2,16c10.9,0,16.1-7.9,16.2-16
		C436.6,55.5,431.2,47.6,420.4,47.5z M420.4,76.1c-8.4,0-12.3-6.1-12.3-12.4c0-6.8,4.2-12.6,12.3-12.6c8.3,0.1,12.2,6.3,12.2,12.6
		C432.6,69.8,428.8,76.1,420.4,76.1z"/>
	<g>
		<path class="st1" d="M469.4,48.1v18.6c0,8.6-6,12.9-12.9,12.9c-6.8,0-13.1-4.3-13.1-12.9V48.1h3.9v18.6c0,6.2,4.2,9.4,9.2,9.4
			c4.9,0,9-3.4,9-9.4V48.1L469.4,48.1L469.4,48.1z"/>
	</g>
	<path class="st1" d="M492.7,48.1h-14.5v31h3.9v-10h10.6C507.3,69,507.3,48.1,492.7,48.1z M492.7,65.5h-10.6V51.7h10.6
		C502.1,51.7,502.1,65.5,492.7,65.5z"/>
	<rect x="144.9" y="42" class="st1" width="1" height="42"/>
	<g>
		<g>
			<g>
				<path class="st1" d="M341.6,111c4.1,8.4,8.3,16.3,12.9,24.7c1.8-3.5,8.9-16.4,13.3-24.7h0.6c1.3,11.5,2.2,21.3,3.7,31.5
					c-0.7-0.1-1.4-0.2-2.1-0.2s-1.4,0.1-2.1,0.2c-0.6-8-1.3-15.5-2.2-23.1h-0.1c-4.1,7.5-8.2,14.8-11.7,22.9h-0.4
					c-3.5-7.4-7.6-15.2-11.5-22.9h-0.1c-0.9,7.4-2.1,18.1-2.2,23.1c-0.5-0.1-1-0.2-1.6-0.2c-0.5,0-1,0.1-1.6,0.2
					c1.6-9.9,3.4-22,4.4-31.5H341.6"/>
				<path class="st1" d="M383.1,123.2c0-3.9-0.2-7.8-0.4-11.6c0.8,0.1,1.5,0.2,2.2,0.2c0.7,0,1.4-0.1,2.2-0.2
					c-0.2,3.9-0.4,7.8-0.4,11.6v7.7c0,3.9,0.2,7.8,0.4,11.6c-0.8-0.1-1.5-0.2-2.2-0.2c-0.7,0-1.4,0.1-2.2,0.2
					c0.2-3.9,0.4-7.8,0.4-11.6V123.2"/>
				<path class="st1" d="M425.3,143.1c-6.8-8-15-16.6-22.6-24.8c0,1.7-0.1,4.4-0.1,9.1c0,3.9,0.2,13.3,0.4,15.1
					c-0.5-0.1-1-0.2-1.6-0.2c-0.5,0-1.1,0.1-1.7,0.2c0.4-2.1,0.9-13.6,0.9-19.5c0-5.6,0-10-0.1-12h0.7c7.3,7.9,17.2,18.7,22.7,24.3
					c0-8,0-16.8-0.4-23.7c0.5,0.1,1,0.2,1.5,0.2c0.5,0,0.9-0.1,1.4-0.2c-0.3,2.6-0.7,11.5-0.7,15c0,4.6,0.1,14.5,0.1,16.5H425.3"/>
				<path class="st1" d="M453.7,112.6c-7,0-12.4,4.4-12.4,14.4c0,10,5.4,14.4,12.4,14.4c7,0,12.4-4.4,12.4-14.4
					C466.1,117.1,460.7,112.6,453.7,112.6 M453.7,111c9.9,0,16.8,5.9,16.8,16.1c0,10.2-6.9,16.1-16.8,16.1
					c-9.9,0-16.8-5.9-16.8-16.1C436.9,116.8,443.8,111,453.7,111"/>
				<path class="st1" d="M484.9,125.7c0.8,0.2,1.8,0.2,3,0.2c3.7,0,8.6-1.5,8.6-6.9c0-4.7-3.9-5.9-7-5.9c-2.1,0-3.4,0.1-4.3,0.2
					c-0.1,3.3-0.3,6.5-0.3,9.7V125.7 M481.2,123.2c0-3.9-0.2-7.8-0.4-11.6c1.7,0.1,3.4,0.2,5.1,0.2c1.7,0,3.4-0.2,5.1-0.2
					c5.1,0,9.3,1.8,9.3,7.1c0,5.8-5.8,8.1-9.2,8.6c2.2,2.7,9.7,12.4,12.3,15.3c-0.9-0.1-1.8-0.2-2.7-0.2c-0.9,0-1.7,0.1-2.6,0.2
					c-1.8-2.7-7.8-11-11.6-14.9h-1.7v3.3c0,3.9,0.2,7.8,0.4,11.6c-0.8-0.1-1.5-0.2-2.2-0.2c-0.7,0-1.4,0.1-2.2,0.2
					c0.2-3.9,0.4-7.8,0.4-11.6V123.2z"/>
				<path class="st1" d="M341.6,111c4.1,8.4,8.3,16.3,12.9,24.7c1.8-3.5,8.9-16.4,13.3-24.7h0.6c1.3,11.5,2.2,21.3,3.7,31.5
					c-0.7-0.1-1.4-0.2-2.1-0.2s-1.4,0.1-2.1,0.2c-0.6-8-1.3-15.5-2.2-23.1h-0.1c-4.1,7.5-8.2,14.8-11.7,22.9h-0.4
					c-3.5-7.4-7.6-15.2-11.5-22.9h-0.1c-0.9,7.4-2.1,18.1-2.2,23.1c-0.5-0.1-1-0.2-1.6-0.2c-0.5,0-1,0.1-1.6,0.2
					c1.6-9.9,3.4-22,4.4-31.5H341.6"/>
				<path class="st1" d="M383.1,123.2c0-3.9-0.2-7.8-0.4-11.6c0.8,0.1,1.5,0.2,2.2,0.2c0.7,0,1.4-0.1,2.2-0.2
					c-0.2,3.9-0.4,7.8-0.4,11.6v7.7c0,3.9,0.2,7.8,0.4,11.6c-0.8-0.1-1.5-0.2-2.2-0.2c-0.7,0-1.4,0.1-2.2,0.2
					c0.2-3.9,0.4-7.8,0.4-11.6V123.2"/>
				<path class="st1" d="M425.3,143.1c-6.8-8-15-16.6-22.6-24.8c0,1.7-0.1,4.4-0.1,9.1c0,3.9,0.2,13.3,0.4,15.1
					c-0.5-0.1-1-0.2-1.6-0.2c-0.5,0-1.1,0.1-1.7,0.2c0.4-2.1,0.9-13.6,0.9-19.5c0-5.6,0-10-0.1-12h0.7c7.3,7.9,17.2,18.7,22.7,24.3
					c0-8,0-16.8-0.4-23.7c0.5,0.1,1,0.2,1.5,0.2c0.5,0,0.9-0.1,1.4-0.2c-0.3,2.6-0.7,11.5-0.7,15c0,4.6,0.1,14.5,0.1,16.5H425.3"/>
				<path class="st1" d="M453.7,112.6c-7,0-12.4,4.4-12.4,14.4c0,10,5.4,14.4,12.4,14.4c7,0,12.4-4.4,12.4-14.4
					C466.1,117.1,460.7,112.6,453.7,112.6 M453.7,111c9.9,0,16.8,5.9,16.8,16.1c0,10.2-6.9,16.1-16.8,16.1
					c-9.9,0-16.8-5.9-16.8-16.1C436.9,116.8,443.8,111,453.7,111"/>
				<path class="st1" d="M484.9,125.7c0.8,0.2,1.8,0.2,3,0.2c3.7,0,8.6-1.5,8.6-6.9c0-4.7-3.9-5.9-7-5.9c-2.1,0-3.4,0.1-4.3,0.2
					c-0.1,3.3-0.3,6.5-0.3,9.7V125.7 M481.2,123.2c0-3.9-0.2-7.8-0.4-11.6c1.7,0.1,3.4,0.2,5.1,0.2c1.7,0,3.4-0.2,5.1-0.2
					c5.1,0,9.3,1.8,9.3,7.1c0,5.8-5.8,8.1-9.2,8.6c2.2,2.7,9.7,12.4,12.3,15.3c-0.9-0.1-1.8-0.2-2.7-0.2c-0.9,0-1.7,0.1-2.6,0.2
					c-1.8-2.7-7.8-11-11.6-14.9h-1.7v3.3c0,3.9,0.2,7.8,0.4,11.6c-0.8-0.1-1.5-0.2-2.2-0.2c-0.7,0-1.4,0.1-2.2,0.2
					c0.2-3.9,0.4-7.8,0.4-11.6V123.2z"/>
			</g>
			<g>
				<path class="st1" d="M392.8,156.9c0-0.8,0.1-1.5,0.1-2.3l0-0.1l-0.1,0c-0.2,0-0.3,0-0.4,0.1c-0.3,0-0.6,0-0.8,0
					c-0.1,0-0.3,0-0.4-0.1l-0.1,0l0,0.1c0,0.8,0.1,1.6,0.1,2.3c0,0.8,0,1.5,0,2.3v0.5l-1.8,0c-0.6,0-1.2,0-1.9,0c-0.7,0-1.3,0-1.9,0
					l-1.8,0v-0.5c0-0.8,0-1.6,0-2.3c0-0.8,0.1-1.5,0.1-2.3l0-0.1l-0.1,0c-0.2,0-0.3,0-0.4,0.1c-0.3,0-0.6,0-0.8,0
					c-0.1,0-0.3,0-0.4-0.1l-0.1,0l0,0.1c0,0.8,0.1,1.6,0.1,2.3c0,0.8,0,1.5,0,2.3v3.1c0,0.8,0,1.6,0,2.3c0,0.8-0.1,1.5-0.1,2.3
					l0,0.1l0.1,0c0.5,0,1.2,0,1.7,0l0.1,0l0-0.1c0-0.7-0.1-1.5-0.1-2.3c0-0.8,0-1.5,0-2.3v-1.5c0.6,0,1.2,0,1.8,0c1.2,0,2.5,0,3.7,0
					c0.6,0,1.2,0,1.8,0v1.5c0,0.8,0,1.6,0,2.3c0,0.8-0.1,1.5-0.1,2.3l0,0.1l0.1,0c0.5,0,1.2,0,1.7,0l0.1,0l0-0.1
					c0-0.7-0.1-1.5-0.1-2.3c0-0.8,0-1.5,0-2.3v-3.1C392.8,158.4,392.8,157.6,392.8,156.9z"/>
				<path class="st1" d="M409.4,155.9c-0.6-0.6-1.3-1-2.2-1.3c-0.8-0.3-1.8-0.4-2.8-0.4c-1,0-1.9,0.1-2.7,0.4
					c-0.8,0.3-1.6,0.7-2.2,1.3c-0.6,0.6-1.1,1.2-1.4,2c-0.3,0.8-0.5,1.7-0.5,2.7c0,1,0.2,1.9,0.5,2.7c0.3,0.8,0.8,1.5,1.4,2
					c0.6,0.6,1.3,1,2.2,1.2c0.8,0.3,1.7,0.4,2.7,0.4c1,0,1.9-0.1,2.7-0.4c0.8-0.3,1.6-0.7,2.2-1.2c0.6-0.6,1.1-1.2,1.4-2
					c0.3-0.8,0.5-1.7,0.5-2.7c0-1-0.2-1.9-0.5-2.7C410.5,157.2,410,156.5,409.4,155.9z M409.4,160.7c0,1-0.1,1.8-0.4,2.5
					c-0.2,0.7-0.6,1.3-1,1.8c-0.4,0.5-1,0.8-1.5,1c-0.6,0.2-1.2,0.3-1.9,0.3c-0.7,0-1.3-0.1-1.9-0.3c-0.6-0.2-1.1-0.6-1.5-1
					c-0.4-0.5-0.8-1.1-1-1.8c-0.2-0.7-0.4-1.6-0.4-2.5c0-1,0.1-1.8,0.4-2.5c0.2-0.7,0.6-1.3,1-1.8c0.4-0.5,1-0.8,1.5-1
					c0.6-0.2,1.2-0.3,1.9-0.3c0.7,0,1.3,0.1,1.9,0.3c0.6,0.2,1.1,0.6,1.5,1c0.4,0.5,0.8,1,1,1.8
					C409.3,158.9,409.4,159.7,409.4,160.7z"/>
				<path class="st1" d="M423.6,155.1c0-0.1,0-0.3,0.1-0.5l0-0.1l-0.1,0c-0.8,0-1.6,0-2.3,0.1c-1.5,0-3.1,0-4.6,0
					c-0.8,0-1.5,0-2.3-0.1l-0.1,0l0,0.1c0.1,0.2,0.1,0.4,0.1,0.5c0,0.2,0,0.3-0.1,0.5l0,0.1l0.1,0c0.2,0,0.5-0.1,0.8-0.1
					c0.3,0,0.6,0,1-0.1c0.3,0,0.7,0,1,0c0.3,0,0.6,0,0.9,0c0,1.2,0.1,2.4,0.1,3.6v3.1c0,0.8,0,1.6,0,2.3c0,0.8-0.1,1.5-0.1,2.3
					l0,0.1l0.1,0c0.5,0,1.2,0,1.7,0l0.1,0l0-0.1c0-0.7-0.1-1.5-0.1-2.3c0-0.8,0-1.5,0-2.3v-3.1c0-1.2,0-2.4,0.1-3.6
					c0.3,0,0.6,0,0.9,0c0.3,0,0.7,0,1,0c0.3,0,0.7,0,1,0.1c0.3,0,0.6,0.1,0.8,0.1l0.1,0l0-0.1C423.6,155.4,423.6,155.2,423.6,155.1z
					"/>
				<path class="st1" d="M434.7,165.8l0-0.2l-0.2,0c-0.3,0.1-0.6,0.1-1,0.1c-0.4,0-0.8,0.1-1.2,0.1c-0.4,0-0.9,0-1.3,0h-1.2
					c0-0.2,0-0.5,0-0.9c0-0.4,0-1,0-1.7v-1.8c0-0.2,0-0.3,0-0.5c0-0.1,0-0.2,0-0.3c0.2,0,0.5,0,0.8,0l1.2,0c0.4,0,0.8,0,1.2,0
					c0.4,0,0.8,0.1,1.1,0.1l0.1,0l0-0.1c0-0.2-0.1-0.3-0.1-0.5c0-0.2,0-0.4,0.1-0.5l0-0.1l-0.1,0c-0.3,0-0.5,0-0.8,0.1
					c-0.3,0-0.6,0-1,0.1c-0.3,0-0.7,0-1.1,0c-0.4,0-0.8,0-1.3,0c0-0.2,0-0.5,0-0.9c0-0.4,0-0.9,0-1.4c0-0.4,0-0.8,0-1.2
					c0-0.3,0-0.7,0-1c0.5,0,1,0,1.4,0c0.4,0,0.8,0,1.2,0.1c0.4,0,0.7,0,1,0.1c0.3,0,0.7,0,1,0.1l0.1,0l0-0.1c0-0.2-0.1-0.3-0.1-0.5
					c0-0.2,0-0.3,0.1-0.5l0-0.1l-0.1,0c-0.5,0-1.1,0-1.6,0.1c-1,0-2.1,0-3.2,0c-0.5,0-1.1,0-1.6-0.1l-0.1,0l0,0.1
					c0,0.8,0.1,1.5,0.1,2.3c0,0.8,0,1.6,0,2.3v3.1c0,0.8,0,1.6,0,2.3c0,0.8-0.1,1.5-0.1,2.3l0,0.1l0.1,0c0.5,0,1.1,0,1.6,0h3.2
					c0.5,0,1.1,0,1.6,0l0.1,0l0-0.1c0-0.1-0.1-0.3-0.1-0.4c0-0.1,0-0.2,0-0.3C434.7,166,434.7,165.9,434.7,165.8z"/>
				<path class="st1" d="M446.4,166.3c0-0.1,0-0.3,0.1-0.5l0-0.1l-0.1,0c-0.9,0.1-1.7,0.2-2.5,0.2c-0.8,0-1.5,0-2.3,0
					c0-0.8,0-1.8,0-2.9c0-1.1,0-2.4,0-3.9c0-0.8,0-1.6,0-2.3c0-0.8,0.1-1.5,0.1-2.3l0-0.1l-0.1,0c-0.2,0-0.3,0-0.4,0.1
					c-0.3,0-0.6,0-0.8,0c-0.1,0-0.3,0-0.4-0.1l-0.1,0l0,0.1c0,0.8,0.1,1.6,0.1,2.3c0,0.8,0,1.5,0,2.3v3.1c0,0.8,0,1.6,0,2.3
					c0,0.8-0.1,1.5-0.1,2.3l0,0.1l0.1,0c0.6,0,1.1,0,1.7,0h3.3c0.6,0,1.1,0,1.6,0l0.1,0l0-0.1C446.4,166.6,446.4,166.5,446.4,166.3z
					"/>
				<path class="st1" d="M457.6,161.5c-0.3-0.4-0.6-0.7-1.1-1c-0.4-0.3-0.9-0.5-1.4-0.6c-0.5-0.2-0.9-0.4-1.3-0.6
					c-0.4-0.2-0.7-0.5-1-0.8c-0.3-0.3-0.4-0.7-0.4-1.3c0-0.3,0.1-0.6,0.2-0.9c0.1-0.3,0.3-0.5,0.5-0.7c0.2-0.2,0.4-0.3,0.7-0.4
					c0.3-0.1,0.6-0.2,0.9-0.2c0.3,0,0.6,0.1,0.8,0.2c0.2,0.1,0.4,0.2,0.6,0.4c0.2,0.2,0.3,0.3,0.4,0.5c0.1,0.2,0.2,0.4,0.2,0.5
					l0,0.1h0.4l0-0.1c0.1-0.3,0.1-0.6,0.2-0.9c0.1-0.2,0.2-0.4,0.3-0.6l0-0.1l-0.1,0c-0.4-0.3-0.8-0.5-1.2-0.7
					c-0.4-0.1-0.9-0.2-1.5-0.2c-0.6,0-1.2,0.1-1.6,0.3c-0.5,0.2-0.9,0.4-1.3,0.7c-0.3,0.3-0.6,0.7-0.8,1.1c-0.2,0.4-0.3,0.9-0.3,1.4
					c0,0.7,0.1,1.3,0.4,1.7c0.3,0.4,0.6,0.8,1.1,1.1c0.4,0.3,0.9,0.5,1.4,0.7c0.5,0.2,0.9,0.4,1.3,0.6c0.4,0.2,0.7,0.5,1,0.8
					c0.3,0.3,0.4,0.7,0.4,1.2c0,0.3-0.1,0.7-0.2,1c-0.1,0.3-0.3,0.6-0.5,0.8s-0.5,0.4-0.8,0.5c-0.3,0.1-0.6,0.2-1,0.2
					c-0.4,0-0.7-0.1-1-0.2c-0.3-0.1-0.6-0.3-0.8-0.4c-0.2-0.2-0.4-0.4-0.6-0.6c-0.2-0.2-0.3-0.4-0.4-0.6l0-0.1h-0.4l0,0.1
					c0,0.3-0.1,0.6-0.1,0.8c0,0.2-0.1,0.5-0.2,0.7l0,0.1l0.1,0c0.3,0.3,0.7,0.5,1.2,0.7c0.5,0.2,1.1,0.3,1.8,0.3
					c0.7,0,1.3-0.1,1.9-0.3c0.6-0.2,1-0.5,1.4-0.9c0.4-0.4,0.7-0.8,0.9-1.3c0.2-0.5,0.3-1,0.3-1.6
					C458,162.4,457.9,161.9,457.6,161.5z"/>
			</g>
		</g>
	</g>
	<g>
		<g>
			<path class="st1" d="M243.4,130.4h4.7c2.8,0,4.5,1.6,4.5,4v0c0,2.7-2.1,4.1-4.8,4.1h-2.4v3.8h-2.1V130.4z M247.9,136.6
				c1.6,0,2.6-0.9,2.6-2.1v0c0-1.4-1-2.1-2.6-2.1h-2.4v4.3H247.9z"/>
			<path class="st1" d="M257.8,130.3h1.9l5.2,12h-2.2l-1.2-2.9h-5.6l-1.2,2.9h-2.1L257.8,130.3z M260.8,137.6l-2.1-4.8l-2,4.8H260.8
				z"/>
			<path class="st1" d="M267,130.4h5.3c1.5,0,2.7,0.4,3.4,1.2c0.6,0.6,1,1.5,1,2.6v0c0,2-1.2,3.1-2.8,3.6l3.2,4.5h-2.5l-2.9-4.1
				h-2.6v4.1H267V130.4z M272.2,136.3c1.5,0,2.4-0.8,2.4-2v0c0-1.3-0.9-2-2.5-2h-3v4H272.2z"/>
			<path class="st1" d="M282.2,132.3h-3.8v-1.9h9.7v1.9h-3.8v10h-2.1V132.3z"/>
			<path class="st1" d="M294.8,136.4L294.8,136.4c0-3.4,2.6-6.2,6.2-6.2s6.2,2.8,6.2,6.1v0c0,3.3-2.6,6.2-6.2,6.2
				C297.4,142.5,294.8,139.7,294.8,136.4z M305.1,136.4L305.1,136.4c0-2.3-1.7-4.3-4-4.3c-2.4,0-4,1.9-4,4.2v0c0,2.3,1.7,4.2,4,4.2
				C303.4,140.6,305.1,138.7,305.1,136.4z"/>
			<path class="st1" d="M309.8,130.4h8.9v1.9h-6.8v3.2h6v1.9h-6v4.8h-2.1V130.4z"/>
		</g>
	</g>
</g>
</svg>
