<?xml version="1.0" encoding="utf-8"?>
<!-- Generator: Adobe Illustrator 23.0.4, SVG Export Plug-In . SVG Version: 6.00 Build 0)  -->
<svg version="1.1" id="Capa_1" xmlns="http://www.w3.org/2000/svg" xmlns:xlink="http://www.w3.org/1999/xlink" x="0px" y="0px"
	 viewBox="0 0 319 130" style="enable-background:new 0 0 319 130;" xml:space="preserve">
<style type="text/css">
	.st0{fill:#5B4690;}
</style>
<g>
	<g id="XMLID_1_">
		<g>
			<path class="st0" d="M306.9,21.6c6,0,11.6,4.7,10.6,15.6c-0.7,8-2.4,15.7-4.8,22.6c-6,16.7-16.5,28.6-29.2,28.6
				c-8.3,0-12.4-5.3-14.1-10.2c-6.2,7-11.3,10.2-16.5,10.2c-11.5,0-15.4-10.2-14.8-15.8l1.1-12.8l2-21.8c0.2-1.9-1.2-3.5-3.3-3.5
				c-1.9,0-3.7,1.6-3.9,3.5l-0.6,5.4h-5.3l0.6-5.4c0.8-8.1,7.9-14.6,16-14.6c8,0,14.1,6.6,13.3,14.6l-2,21.8l-0.8,8.5
				c-0.2,2.3,1,6.3,4.4,6.3c4.4,0,6.7-3.1,9.6-7.9l0.6-6.8l3.1-35.4h16.8l-3.2,35.4l-0.8,8.5c-0.3,2.9,0.7,6.3,4.4,6.3
				c6.7,0,11.4-6.6,14.3-14.7c1.9-5.4,3.1-11.4,3.7-16.7c0,0-1.7,0.3-3.3,0.3c-6,0-10.3-5-9.8-11C295.7,26.6,300.9,21.6,306.9,21.6z
				"/>
			<path class="st0" d="M193.5,21.6c15.1,0,24.9,15.1,23.1,33.5c-0.1,1.6-0.3,3.2-0.6,4.7c-3.1,16.1-14.8,28.6-28.6,28.6
				c-13.9,0-24.1-12.6-24.5-28.6c0-1.5,0-3.1,0.2-4.7C164.7,36.7,178.3,21.6,193.5,21.6z M208.5,55.1c1-12.4-4.1-22.5-11.4-22.5
				c-7.5,0-14.4,10.1-15.5,22.5c-0.1,1.6-0.2,3.2-0.1,4.7c0.4,10.1,4.9,17.7,11.4,17.7s12.6-7.5,14.8-17.7
				C208.1,58.3,208.4,56.8,208.5,55.1z"/>
			<path class="st0" d="M152.9,68.3l-0.6,5.6c-0.6,8-7.9,14.6-15.9,14.6s-13.9-6.6-13.3-14.6l1.4-14l2-21c0.2-2.8-1.9-5.1-4.6-5.1
				c-2.9,0-5.4,2.2-10.2,9.1l-4,5.7l-1,11.3l-2.4,26.5h-17l2.4-26.5L95,0h16.8l-3.2,36.3l1.8-2.6c3.5-5.1,8.8-12,17.8-12
				c8.9,0,15.7,7.3,14.9,16.4l-2,21.8l-1.3,14c-0.1,1.9,1.3,3.5,3.4,3.5c1.9,0,3.7-1.6,3.9-3.5l0.5-5.6H152.9z"/>
			<path class="st0" d="M76.8,68.3l-0.6,5.6c-0.8,8-7.9,14.6-16,14.6c-8,0-14.1-6.6-13.3-14.6l1.3-14l1.9-21
				c0.3-2.8-1.9-5.1-4.6-5.1c-2.8,0-5.3,2.2-10.1,9.1l-4.1,5.7l-1,11.3L28,86.4H11.3l2.4-26.5l2-21.8c0.2-1.9-1.2-3.5-3.2-3.5
				c-1.9,0-3.7,1.6-3.9,3.5L8,43.5H2.6l0.6-5.4C4,30,11.1,23.5,19.1,23.5c7.5,0,13.2,5.7,13.4,12.9l1.8-2.6c3.5-5.4,8.9-12,17.8-12
				c9.1,0,15.7,7.3,15,16.4l-2,21.8l-1.3,14c-0.2,1.9,1.2,3.5,3.4,3.5c1.8,0,3.6-1.6,3.8-3.5l0.6-5.6h5.2V68.3z"/>
		</g>
	</g>
	<path class="st0" d="M196.5,119.5h-12.7v10H181v-22.3h2.8v9.6h12.7v-9.6h2.8v22.3h-2.8V119.5z"/>
	<path class="st0" d="M229.2,118.5c0,5.8-3.7,11.5-11.3,11.5s-11.3-5.7-11.3-11.5c0-6.5,4.3-11.6,11.4-11.6
		C225.5,106.9,229.3,112.6,229.2,118.5z M218,109.5c-5.7,0-8.6,4.2-8.6,9c0,4.5,2.7,8.9,8.6,8.9c5.9,0,8.5-4.5,8.5-8.9
		C226.5,114,223.8,109.5,218,109.5z"/>
	<path class="st0" d="M233.2,109.8v-2.5h17.9v2.5h-7.6v19.8h-2.7v-19.8H233.2z"/>
	<path class="st0" d="M257.5,107.3h15.6v2.6h-12.9v7h12.4v2.6h-12.4v7.5h13.4v2.6h-16.2v-22.3H257.5z"/>
	<path class="st0" d="M283.8,127h12.1v2.6H281v-22.3h2.8V127z"/>
	<path class="st0" d="M310,109.3c-2.8,0-5.8,1.1-5.8,3.8c0,2.4,2.8,3.1,6,3.7c4.5,0.7,8.8,1.6,8.8,6.6s-4.8,6.6-9.1,6.6
		c-3.9,0-7.7-1.4-9.4-5.2l2.3-1.3c1.4,2.6,4.4,3.9,7.2,3.9c2.7,0,6.3-0.9,6.3-4.1c0-2.8-3.1-3.6-6.4-4.1c-4.3-0.7-8.5-1.7-8.5-6.2
		c-0.1-4.6,4.7-6.2,8.5-6.2c3.3,0,6.5,0.7,8.4,4l-2.1,1.3C315,110.2,312.4,109.3,310,109.3z"/>
</g>
</svg>
