<svg width="121" height="99" viewBox="0 0 121 99" fill="none" xmlns="http://www.w3.org/2000/svg">
<path d="M107.581 65.9247V39.1027H79.8374V65.9247H67.7751V1.13014H79.8374V28.0274H107.581V1.05479H119.492V65.8493H107.581V65.9247ZM46.3645 15.1438C47.2692 16.8014 47.7969 19.2123 47.7969 22V65.8493H59.4822V18.3082C59.4822 13.7877 58.5022 9.94521 56.6174 6.85616C53.6019 2.41096 48.7016 0 42.5196 0C34.3022 0 28.1956 3.91781 22.7676 9.19178L20.0536 11.8288V1.05479H0V10.3973H8.89595V65.8493H20.5813V18.1575L21.1844 17.7055C25.2555 14.3904 31.362 10.3973 37.6193 10.3973C42.7458 10.3219 45.2336 12.9589 46.3645 15.1438ZM22.466 98.548V90.411H12.6654V98.548H8.89595V78.5069H12.6654V86.9452H22.5414V78.5069H26.3109V98.548H22.466ZM49.9078 88.6027C49.8324 93.8014 46.666 99 39.5794 99C32.4928 99 29.2511 93.9521 29.2511 88.6781C29.2511 82.3493 33.8498 78.1301 39.6548 78.1301C46.5153 78.1301 49.9078 83.4041 49.9078 88.6027ZM39.5794 95.4589C44.329 95.4589 46.0629 91.9178 46.1383 88.6027C46.2137 85.2877 44.2536 81.5206 39.6548 81.4452C35.3576 81.4452 32.8698 84.6849 32.9452 88.6027C33.096 91.9932 34.8299 95.4589 39.5794 95.4589ZM56.6928 81.8973H50.3601V78.4315C56.1651 78.4315 61.0654 78.4315 66.8704 78.4315V81.8973H60.5377V98.548H56.7682V81.8973H56.6928ZM84.21 98.4726H69.1321C69.1321 91.7671 69.1321 85.0616 69.1321 78.4315H84.1346V82.1233H72.9016V86.7192H83.7576V90.2603H72.9016V94.7808H84.1346V98.4726H84.21ZM91.9751 78.4315V95.0069H102.303V98.4726H88.2056V78.4315H91.9751ZM117.381 83.2534C116.703 82.1233 114.818 80.9932 112.632 80.9932C109.842 80.9932 108.485 82.1986 108.485 83.6301C108.485 85.363 110.521 85.8904 112.933 86.1164C117.155 86.6438 121 87.6986 121 92.5206C121 96.9658 117.004 98.9247 112.556 98.9247C108.485 98.9247 105.319 97.6438 103.811 94.0274L106.978 92.3699C107.882 94.5548 110.219 95.5343 112.632 95.5343C115.044 95.5343 117.231 94.7055 117.231 92.5206C117.231 90.637 115.27 89.8836 112.556 89.5822C108.485 89.1301 104.641 88 104.641 83.4795C104.641 79.3356 108.712 77.6781 112.406 77.6027C115.497 77.6027 118.738 78.5069 120.322 81.5959L117.381 83.2534Z" fill="#003A70"/>
</svg>
