<svg width="259" height="113" viewBox="0 0 259 113" fill="none" xmlns="http://www.w3.org/2000/svg">
<path d="M73.0409 80.7825C71.9562 81.8854 70.6603 82.7594 69.2302 83.3524C67.8001 83.9454 66.2651 84.2453 64.7165 84.2343C56.8274 84.2343 52.8714 78.969 52.8408 72.6139C52.8408 66.396 56.7892 60.7573 64.7165 60.7573C66.2336 60.709 67.7432 60.9899 69.1408 61.5806C70.5385 62.1713 71.791 63.0577 72.8118 64.1786L71.4142 65.5807C69.6329 63.8187 67.2247 62.8324 64.7165 62.8375C58.3624 62.8375 55.1243 67.5314 55.1243 72.5834C55.1243 77.9174 58.3624 82.1236 64.7165 82.1236C67.2859 82.1236 69.7531 81.1198 71.5898 79.3271L73.0409 80.7825Z" fill="#5B4D47"/>
<path d="M98.5182 72.5605C98.5182 78.5193 94.6997 84.3105 86.9633 84.3105C79.2269 84.3105 75.3855 78.5193 75.3855 72.5072C75.3855 66.1065 79.5553 60.6963 86.9633 60.6963C94.6997 60.7268 98.5717 66.4646 98.5182 72.5605ZM86.9633 82.1541C93.2028 82.1541 96.2042 77.4449 96.2347 72.5605C96.2347 67.4399 93.1799 62.8832 86.9633 62.8451C80.7467 62.807 77.6079 67.1809 77.6766 72.5605C77.7377 77.5516 80.7544 82.1464 86.9786 82.1464L86.9633 82.1541Z" fill="#5B4D47"/>
<path d="M105.697 61.0928V81.7047H118.374V83.8612H103.406V61.0928H105.697Z" fill="#5B4D47"/>
<path d="M124.4 61.0928V81.7047H137.093V83.8612H122.102V61.0928H124.4Z" fill="#5B4D47"/>
<path d="M157.201 83.8917H140.812V61.0928H156.904V63.2416H143.096V71.4102H156.285V73.5209H143.096V81.7047H157.201V83.8917Z" fill="#5B4D47"/>
<path d="M180.678 80.7826C179.591 81.885 178.294 82.7586 176.863 83.3516C175.431 83.9445 173.895 84.2447 172.346 84.2344C164.441 84.2344 160.493 78.969 160.462 72.614C160.462 66.3961 164.418 60.7574 172.346 60.7574C173.862 60.7086 175.37 60.9894 176.767 61.5801C178.163 62.1709 179.414 63.0576 180.433 64.1787L179.036 65.5808C177.255 63.8228 174.851 62.837 172.346 62.8376C165.969 62.8376 162.746 67.5315 162.746 72.5835C162.746 77.9175 165.969 82.1237 172.346 82.1237C174.915 82.1229 177.382 81.1192 179.219 79.3272L180.678 80.7826Z" fill="#5B4D47"/>
<path d="M190.469 63.2416H182.404V61.0928H200.809V63.2416H192.752V83.8917H190.461L190.469 63.2416Z" fill="#5B4D47"/>
<path d="M204.513 83.8917V61.0928H206.804V83.8917H204.513Z" fill="#5B4D47"/>
<path d="M234.802 72.5605C234.802 78.5193 230.983 84.3105 223.239 84.3105C215.495 84.3105 211.646 78.5193 211.646 72.5072C211.646 66.1065 215.839 60.6963 223.239 60.6963C230.983 60.7268 234.825 66.4646 234.802 72.5605ZM223.239 82.1541C229.471 82.1541 232.48 77.4449 232.511 72.5605C232.511 67.4399 229.456 62.8832 223.239 62.8451C217.023 62.807 213.838 67.1809 213.937 72.5605C214.006 77.5516 217 82.1464 223.239 82.1464V82.1541Z" fill="#5B4D47"/>
<path d="M255.888 79.5864L255.758 72.0426V61.0928H258.049V83.8917H256.674L241.881 65.5581L241.942 72.2865V83.8917H239.651V61.0928H241.095L255.888 79.5864Z" fill="#5B4D47"/>
<path d="M38.6665 83.8694H41.8435V61.1315H38.6665V71.0374H27.1192V61.1315H23.9117V83.8846H27.1192V73.9787H38.6665V83.8694ZM17.7333 83.8694H20.7881V66.8769C20.8469 65.5129 20.5243 64.1595 19.8564 62.9679C19.3343 62.2165 18.6275 61.6116 17.8036 61.2113C16.9798 60.811 16.0667 60.6287 15.152 60.6819C12.6699 60.6819 10.5697 61.3982 8.07238 63.5775L6.18603 65.2081V61.1315H0V63.3489H3.29922V83.9227H6.35404L6.36168 67.2274L7.12539 66.6102C8.7139 65.3148 10.8217 63.2955 13.342 63.2955C14.1145 63.2436 14.8857 63.4151 15.563 63.7895C16.2403 64.1639 16.7949 64.7252 17.1605 65.4063C17.5901 66.2932 17.7946 67.2718 17.7562 68.2561L17.7333 83.8694Z" fill="#5B4D47"/>
<path d="M133.275 23.4352V40.0314C132.051 40.31 130.802 40.4683 129.548 40.5038V2.83845C130.802 2.87394 132.051 3.03218 133.275 3.31089V19.5566H150.496C149.996 14.0462 147.385 8.94039 143.207 5.30182C139.03 1.66324 133.607 -0.227894 128.067 0.0219448C122.527 0.271784 117.297 2.64336 113.466 6.64315C109.634 10.6429 107.496 15.9629 107.496 21.4959C107.496 27.0289 109.634 32.3488 113.466 36.3486C117.297 40.3484 122.527 42.72 128.067 42.9698C133.607 43.2197 139.03 41.3285 143.207 37.69C147.385 34.0514 149.996 28.9456 150.496 23.4352H133.275ZM142.126 8.08859C142.972 8.87905 143.739 9.74923 144.417 10.687H142.126V8.08859ZM135.94 4.13384C137.186 4.60615 138.375 5.21706 139.483 5.95501V13.3311H145.998C146.562 14.4854 147.01 15.6927 147.334 16.9353H135.94V4.13384ZM114.403 32.6477V33.5087C112.915 31.6757 111.781 29.5829 111.058 27.3366C111.302 27.0323 111.636 26.8116 112.011 26.7052C112.387 26.5987 112.787 26.6117 113.155 26.7425C113.523 26.8733 113.841 27.1153 114.065 27.4348C114.288 27.7543 114.407 28.1355 114.403 28.5253V32.6477ZM120.368 38.3779C119.193 37.7641 118.085 37.0313 117.061 36.191V28.5253C117.057 27.7463 116.851 26.9816 116.463 26.3052C116.076 25.6288 115.52 25.0637 114.849 24.6644C114.179 24.2652 113.417 24.0454 112.636 24.0263C111.855 24.0071 111.083 24.1894 110.394 24.5553C110.252 23.6094 110.181 22.6543 110.18 21.6978C110.18 21.5073 110.18 21.3016 110.18 21.1035C111.265 20.309 112.577 19.8842 113.922 19.8919C115.625 19.8939 117.257 20.5697 118.462 21.7711C119.666 22.9725 120.343 24.6013 120.345 26.3003L120.368 38.3779ZM126.898 40.3743C125.579 40.2248 124.281 39.9336 123.026 39.5056V26.2622C123.024 23.8606 122.066 21.5581 120.363 19.8606C118.661 18.1632 116.352 17.2097 113.945 17.2097C112.791 17.2061 111.647 17.4261 110.577 17.8574C110.896 16.2715 111.422 14.7343 112.143 13.2854C112.804 13.1794 113.473 13.1259 114.144 13.1254C117.506 13.1491 120.725 14.4883 123.109 16.855C125.492 19.2218 126.85 22.4272 126.89 25.7821L126.898 40.3743ZM126.898 17.3011C125.495 15.2116 123.599 13.4986 121.376 12.3132C119.153 11.1278 116.672 10.5065 114.151 10.5041H113.861C114.886 9.13075 116.091 7.90061 117.443 6.84654C119.543 7.17946 121.527 8.02784 123.216 9.3154V3.74522C124.415 3.37963 125.645 3.12456 126.89 2.98323L126.898 17.3011ZM142.118 35.2537V32.1752H144.745C143.981 33.2958 143.098 34.3306 142.111 35.2613L142.118 35.2537ZM146.227 29.5083H139.468V37.3873C138.358 38.1133 137.175 38.7236 135.94 39.2084V26.0793H147.395C147.113 27.2593 146.719 28.41 146.219 29.5159L146.227 29.5083Z" fill="#9D2235"/>
<path d="M102.497 107.742H96.1202V112.771H94.6997V101.631H96.0897V106.454H102.467V101.631H103.864V112.771H102.474L102.497 107.742Z" fill="#5B4D47"/>
<path d="M118.909 107.239C118.909 110.15 117.077 113 113.25 113C109.424 113 107.568 110.165 107.568 107.239C107.568 104.009 109.737 101.448 113.266 101.448C117.046 101.456 118.925 104.29 118.909 107.239ZM113.266 102.721C110.425 102.721 108.958 104.809 108.958 107.239C108.958 109.525 110.325 111.697 113.266 111.697C116.206 111.697 117.519 109.411 117.519 107.239C117.519 105.068 116.183 102.751 113.266 102.721Z" fill="#5B4D47"/>
<path d="M120.903 102.873V101.631H129.899V102.873H126.081V112.779H124.706V102.873H120.903Z" fill="#5B4D47"/>
<path d="M133.076 101.631H140.919V102.903H134.412V106.386H140.621V107.673H134.412V111.422H141.141V112.741H133.076V101.631Z" fill="#5B4D47"/>
<path d="M146.265 111.483H152.375V112.771H144.875V101.631H146.265V111.483Z" fill="#5B4D47"/>
<path d="M159.393 102.637C157.973 102.637 156.461 103.193 156.461 104.549C156.461 105.761 157.851 106.073 159.515 106.378C161.745 106.729 163.953 107.14 163.953 109.685C163.953 112.23 161.547 112.992 159.37 112.992C157.392 112.992 155.514 112.276 154.651 110.417L155.796 109.746C156.167 110.361 156.695 110.866 157.325 111.21C157.956 111.554 158.667 111.725 159.386 111.705C160.737 111.705 162.54 111.278 162.54 109.64C162.54 108.253 161.012 107.856 159.317 107.605C157.163 107.27 155.071 106.774 155.071 104.519C155.071 102.263 157.415 101.402 159.347 101.402C161.005 101.402 162.586 101.738 163.571 103.422L162.517 104.077C162.151 103.603 161.676 103.225 161.132 102.974C160.588 102.723 159.992 102.607 159.393 102.637Z" fill="#5B4D47"/>
</svg>
