<?xml version="1.0" encoding="utf-8"?>
<!-- Generator: Adobe Illustrator 23.0.4, SVG Export Plug-In . SVG Version: 6.00 Build 0)  -->
<svg version="1.1" id="Capa_1" xmlns="http://www.w3.org/2000/svg" xmlns:xlink="http://www.w3.org/1999/xlink" x="0px" y="0px"
	 viewBox="0 0 506 328.9" style="enable-background:new 0 0 506 328.9;" xml:space="preserve">
<style type="text/css">
	.st0{fill-rule:evenodd;clip-rule:evenodd;}
</style>
<g>
	<path class="st0" d="M497.6,304.3c3,0.9,3.7,1.9,3.7,3.5c0,2.1-1.8,3.4-4.7,3.4c-3.3,0-5.9-1.2-8.5-3.5l-2.8,3.4
		c3.2,2.9,7.1,4.3,11.1,4.3c5.6,0,9.5-3,9.5-8c0-1.2-0.2-2.2-0.6-3.1L497.6,304.3L497.6,304.3L497.6,304.3z M461.9,304.3V315h4.7
		v-10.7H461.9L461.9,304.3L461.9,304.3z M420.2,304.3V315h4.7v-9.3h5.9l6.6,9.3h5.5l-7.2-10.1c0.5-0.2,1.1-0.4,1.6-0.6L420.2,304.3
		L420.2,304.3L420.2,304.3z M379.1,304.3c1.2,6.3,6.5,11.1,13.7,11.1c7.2,0,12.6-4.9,13.8-11.1h-5c-1,3.9-4.3,6.8-8.7,6.8
		c-4.4,0-7.7-2.9-8.7-6.8L379.1,304.3L379.1,304.3L379.1,304.3z M358.5,304.3c3,0.9,3.7,1.9,3.7,3.5c0,2.1-1.8,3.4-4.7,3.4
		c-3.3,0-5.9-1.2-8.4-3.5l-2.8,3.4c3.2,2.9,7.1,4.3,11.1,4.3c5.6,0,9.5-3,9.5-8c0-1.2-0.2-2.2-0.6-3.1L358.5,304.3L358.5,304.3
		L358.5,304.3z M314.8,304.3V315h20v-4.2h-15.3v-6.5H314.8L314.8,304.3L314.8,304.3z M279.6,304.3V315h4.7v-9.3h5.9l6.6,9.3h5.5
		l-7.2-10.1c0.5-0.2,1.1-0.4,1.6-0.6L279.6,304.3L279.6,304.3L279.6,304.3z M225.1,304.3c-0.5,1-0.8,2.1-0.8,3.4
		c0,4.7,3.7,7.7,8.7,7.7c3.2,0,5.9-1.3,8.2-3.5l3.6,3.6l3.5-2.5l-4.2-4.3c1-1.4,1.9-2.9,2.8-4.5h-4.5c-0.3,0.6-0.7,1.1-1,1.7
		l-1.6-1.7h-5.9l4.8,4.9c-1.5,1.4-3.2,2.3-5.1,2.3c-2.6,0-4.5-1.6-4.5-3.9c0-1.2,0.5-2.3,1.6-3.3L225.1,304.3L225.1,304.3
		L225.1,304.3z M185.6,304.3c3,0.9,3.7,1.9,3.7,3.5c0,2.1-1.8,3.4-4.7,3.4c-3.3,0-5.9-1.2-8.4-3.5l-2.8,3.4
		c3.2,2.9,7.1,4.3,11.2,4.3c5.6,0,9.5-3,9.5-8c0-1.2-0.2-2.2-0.6-3.1L185.6,304.3L185.6,304.3L185.6,304.3z M143.8,304.3V315h18.7
		v-4.3h-14v-6.4L143.8,304.3L143.8,304.3L143.8,304.3z M110.6,304.3V315h20v-4.2h-15.3v-6.5H110.6L110.6,304.3L110.6,304.3z
		 M84.8,304.3V315h4.7v-10.7H84.8L84.8,304.3L84.8,304.3z M38.7,304.3c1.2,6.3,6.5,11.1,13.7,11.1c7.2,0,12.6-4.9,13.8-11.1h-5
		c-1,3.9-4.3,6.8-8.7,6.8c-4.4,0-7.7-2.9-8.7-6.8L38.7,304.3L38.7,304.3L38.7,304.3z M20.4,304.3V315h4.7v-10.7H20.4L20.4,304.3
		L20.4,304.3z M3,304.3V315h4.7v-10.7H3L3,304.3L3,304.3z"/>
	<path class="st0" d="M246.8,304.3c0.3-0.5,0.6-1.1,0.9-1.6l-3.6-1.9c-0.6,1.2-1.2,2.4-1.8,3.5H246.8L246.8,304.3L246.8,304.3z
		 M499.8,293.1c1,0.4,1.9,1,2.8,1.7l1.2-1.7H499.8L499.8,293.1L499.8,293.1z M486.9,293.1c-0.3,0.8-0.4,1.7-0.4,2.6
		c0,5,3.2,6.7,8.9,8c0.9,0.2,1.7,0.4,2.3,0.6h7.8c-1.1-2.4-3.8-3.8-8-4.8c-5.1-1.2-6.3-2.1-6.3-4.2c0-0.9,0.4-1.6,1-2.2L486.9,293.1
		L486.9,293.1L486.9,293.1z M461.9,293.1v11.2h4.7v-11.2H461.9L461.9,293.1L461.9,293.1z M420.2,293.1v11.2h17
		c2.9-1.3,4.8-3.8,4.8-7.5c0-1.4-0.3-2.6-0.8-3.7l-6.6,0c1.6,0.7,2.6,2,2.6,3.9c0,2.8-2.1,4.5-5.5,4.5h-6.9v-8.4L420.2,293.1
		L420.2,293.1L420.2,293.1z M396.9,293.1c3.1,1.6,5,4.8,5,8.6v0.1c0,0.9-0.1,1.8-0.3,2.6l5,0c0.2-0.9,0.3-1.8,0.3-2.7
		c0-3.2-1-6.2-2.8-8.5H396.9L396.9,293.1L396.9,293.1z M381.8,293.1c-1.9,2.4-2.9,5.3-2.9,8.6c0,0.9,0.1,1.8,0.2,2.7h5
		c-0.2-0.8-0.4-1.7-0.4-2.7c0-3.8,1.9-7,5-8.6H381.8L381.8,293.1L381.8,293.1z M360.7,293.1c1,0.4,1.9,1,2.8,1.7l1.2-1.7H360.7
		L360.7,293.1L360.7,293.1z M347.7,293.1c-0.3,0.8-0.4,1.7-0.4,2.6c0,5,3.2,6.7,8.9,8c0.9,0.2,1.7,0.4,2.3,0.6h7.8
		c-1.1-2.4-3.8-3.8-8-4.8c-5.1-1.2-6.3-2.1-6.3-4.2c0-0.9,0.4-1.6,1-2.2L347.7,293.1L347.7,293.1L347.7,293.1z M314.8,293.1v11.2
		h4.7v-0.7h13.4v-4.2h-13.4v-6.3L314.8,293.1L314.8,293.1L314.8,293.1z M279.6,293.1v11.2h17c2.9-1.3,4.8-3.8,4.8-7.5
		c0-1.4-0.3-2.6-0.8-3.7l-6.6,0c1.6,0.7,2.6,2,2.6,3.9c0,2.8-2.1,4.5-5.5,4.5h-6.9v-8.4L279.6,293.1L279.6,293.1L279.6,293.1z
		 M228,293.1c-0.1,0.5-0.2,1-0.2,1.5c0,2,0.7,3.7,2.2,5.6c-2.3,1-4,2.4-4.9,4.1h5.5c0.5-0.4,1.2-0.9,2-1.2l1.2,1.2h5.9l-3-3
		c3.6-1.3,5.9-3.4,5.9-6.9c0-0.4,0-0.9-0.1-1.3h-4.4c0.2,0.4,0.3,0.9,0.3,1.5c0,2-1.4,3.2-4.2,4.2c-1.5-1.6-2-2.6-2-4v-0.1
		c0-0.6,0.1-1.2,0.4-1.7L228,293.1L228,293.1L228,293.1z M187.8,293.1c1,0.4,1.9,1,2.8,1.7l1.2-1.7H187.8L187.8,293.1L187.8,293.1z
		 M174.8,293.1c-0.3,0.8-0.4,1.7-0.4,2.6c0,5,3.2,6.7,8.9,8c0.9,0.2,1.7,0.4,2.3,0.6h7.8c-1.1-2.4-3.8-3.8-8-4.8
		c-5.1-1.2-6.3-2.1-6.3-4.2c0-0.9,0.4-1.6,1-2.2L174.8,293.1L174.8,293.1L174.8,293.1z M143.8,293.1v11.2h4.7v-11.2H143.8
		L143.8,293.1L143.8,293.1z M110.6,293.1v11.2h4.7v-0.7h13.4v-4.2h-13.4v-6.3L110.6,293.1L110.6,293.1L110.6,293.1z M84.8,293.1
		v11.2h4.7v-11.2H84.8L84.8,293.1L84.8,293.1z M56.4,293.1c3.1,1.6,5,4.8,5,8.6v0.1c0,0.9-0.1,1.8-0.3,2.6l5,0
		c0.2-0.9,0.3-1.8,0.3-2.7c0-3.2-1-6.2-2.8-8.5H56.4L56.4,293.1L56.4,293.1z M41.3,293.1c-1.9,2.4-2.9,5.3-2.9,8.6
		c0,0.9,0.1,1.8,0.2,2.7h5c-0.2-0.8-0.4-1.7-0.4-2.7c0-3.8,1.9-7,5-8.6H41.3L41.3,293.1L41.3,293.1z M3,293.1v11.2h4.7v-0.6h12.7
		v0.6h4.7v-11.2h-4.7v6.3H7.7v-6.3H3L3,293.1L3,293.1z"/>
	<path class="st0" d="M492.1,293.1c0.7-0.6,1.9-1,3.3-1c1.5,0,2.9,0.4,4.4,1h4.1l1.3-1.8c-2.7-2.2-5.8-3.4-9.7-3.4
		c-4.2,0-7.5,2-8.7,5.2L492.1,293.1L492.1,293.1L492.1,293.1z M466.6,293.1v-0.4h8.5v-4.4h-21.7v4.4h8.5v0.4L466.6,293.1
		L466.6,293.1L466.6,293.1z M424.9,293.1v-0.5h6.8c1.2,0,2.1,0.2,3,0.5l6.6,0c-0.4-0.8-0.9-1.5-1.5-2.1c-1.7-1.7-4.4-2.7-7.7-2.7
		h-11.9v4.8L424.9,293.1L424.9,293.1L424.9,293.1z M388.8,293.1c1.2-0.6,2.6-0.9,4.1-0.9c1.5,0,2.9,0.3,4.1,0.9l7.1,0
		c-2.5-3.2-6.4-5.3-11.1-5.3c-4.7,0-8.6,2.1-11.1,5.3L388.8,293.1L388.8,293.1L388.8,293.1z M353,293.1c0.7-0.6,1.9-1,3.3-1
		c1.5,0,2.9,0.4,4.4,1h4.1l1.3-1.8c-2.7-2.2-5.8-3.4-9.7-3.4c-4.2,0-7.5,2-8.7,5.2L353,293.1L353,293.1L353,293.1z M319.5,293.1
		v-0.6h15.1v-4.2h-19.8v4.8H319.5L319.5,293.1L319.5,293.1z M284.3,293.1v-0.5h6.8c1.2,0,2.2,0.2,3,0.5l6.6,0
		c-0.4-0.8-0.9-1.5-1.4-2.1c-1.7-1.7-4.4-2.7-7.7-2.7h-11.9v4.8L284.3,293.1L284.3,293.1L284.3,293.1z M232.6,293.1
		c0.5-1,1.5-1.6,2.8-1.6c1.2,0,2.2,0.6,2.7,1.6h4.4c-0.6-3-3.3-5.3-7-5.3c-4.1,0-6.8,2.3-7.5,5.2L232.6,293.1L232.6,293.1
		L232.6,293.1z M180.1,293.1c0.7-0.6,1.9-1,3.3-1c1.5,0,3,0.4,4.4,1h4.1l1.3-1.8c-2.7-2.2-5.8-3.4-9.7-3.4c-4.2,0-7.5,2-8.7,5.2
		L180.1,293.1L180.1,293.1L180.1,293.1z M148.5,293.1v-4.8h-4.7v4.8H148.5L148.5,293.1L148.5,293.1z M115.3,293.1v-0.6h15.1v-4.2
		h-19.8v4.8H115.3L115.3,293.1L115.3,293.1z M89.5,293.1v-0.4H98v-4.4H76.4v4.4h8.5v0.4L89.5,293.1L89.5,293.1L89.5,293.1z
		 M48.3,293.1c1.2-0.6,2.6-0.9,4-0.9c1.5,0,2.9,0.3,4.1,0.9l7.1,0c-2.5-3.2-6.4-5.3-11.1-5.3c-4.7,0-8.6,2.1-11.1,5.3L48.3,293.1
		L48.3,293.1L48.3,293.1z M25.1,293.1v-4.8h-4.7v4.8H25.1L25.1,293.1L25.1,293.1z M7.7,293.1v-4.8H3v4.8H7.7L7.7,293.1L7.7,293.1z"
		/>
	<path class="st0" d="M282.3,2l-66.1,222.4c0,0.3-0.9,0.4-1.8,0.4c-0.9,0-1.8-0.2-1.9-0.4l-44.5-122.6c-0.1-0.3-0.2-0.4-0.4-0.6
		c-0.2-0.1-0.5-0.2-0.9-0.2h-14.3c-0.3,0-0.3-4.2,0-4.2h50.1c0.2,0,0.3,1.1,0.3,2.1c0,1.1-0.1,2.1-0.3,2.1h-14.5
		c-0.7,0-1,0.2-0.8,0.7l33.2,93.8L277.9,2L282.3,2L282.3,2L282.3,2z M131.7,101H145c0.3,0,0.3-4.2,0-4.2H98.9c-0.2,0-0.2,4.2,0,4.2
		h13c0.5,0,1,0,1,0.7v115.1c0,0.5-0.5,0.7-1,0.7h-13c-0.2,0-0.2,4.2,0,4.2H145c0.3,0,0.3-4.2,0-4.2h-13.3c-0.5,0-0.8-0.2-0.8-0.7
		V101.7C130.9,101,131.2,101,131.7,101L131.7,101L131.7,101z M90.9,96.7H3.5c-0.3,0-0.5,0.4-0.5,0.5v39.2c0,0.3,3.5,0.3,3.5,0
		c0-20.5,8-35.4,29.8-35.4h0.6c0.5,0,0.8,0,0.8,0.7v115.1c0,0.5-0.3,0.7-0.8,0.7h-13c-0.3,0-0.3,4.2,0,4.2h45.7c0.3,0,0.3-4.2,0-4.2
		h-13c-0.7,0-1-0.2-1-0.7V101.7c0-0.7,0.3-0.7,1-0.7h0.7c21.5,0,30.7,15,30.7,35.4c0,0.3,3.3,0.3,3.3,0V97.3
		C91.3,97.1,91.3,96.7,90.9,96.7L90.9,96.7L90.9,96.7z M307.7,93.8c-28.1,0-48.4,30.5-48.4,65.6c0,36.1,21.7,65.4,48.4,65.4
		c26.8,0,48.3-29.3,48.3-65.4C356.1,123,334.5,93.8,307.7,93.8L307.7,93.8L307.7,93.8z M325.6,214.2c-4.9,5.1-10.9,6.5-17.9,6.5
		c-7.2,0-13-1.4-17.8-6.5c-7.2-8.1-11.2-21-11.2-54.8c0-29.4,3.9-46.9,11.2-55c4.8-4.8,10.5-6.3,17.8-6.3c7.1,0,13,1.6,17.9,6.3
		c7.2,8.1,11.2,25.6,11.2,55C336.8,193.2,332.9,206.1,325.6,214.2L325.6,214.2L325.6,214.2z M443.9,182.2c0,18-8.4,35.3-30.9,35.3
		h-13.8c-0.6,0-1-0.2-1-0.7V101.7c0-0.7,0.3-0.7,1-0.7h13c0.3,0,0.3-4.2,0-4.2h-46c-0.2,0-0.2,4.2,0,4.2h13.3c0.3,0,0.7,0,0.7,0.7
		v115.1c0,0.5-0.3,0.7-0.7,0.7h-13.3c-0.2,0-0.2,4.2,0,4.2h80.8c0.3,0,0.5-0.2,0.5-0.5v-39C447.3,181.9,443.9,181.9,443.9,182.2
		L443.9,182.2L443.9,182.2z M491.6,217.5c-0.5,0-0.8-0.2-0.8-0.7V101.7c0-0.7,0.3-0.7,0.8-0.7h13.3c0.3,0,0.3-4.2,0-4.2h-46
		c-0.2,0-0.2,4.2,0,4.2h13c0.5,0,1,0,1,0.7v115.1c0,0.5-0.5,0.7-1,0.7h-13c-0.2,0-0.2,4.2,0,4.2h46c0.3,0,0.3-4.2,0-4.2H491.6
		L491.6,217.5L491.6,217.5z"/>
</g>
</svg>
