<svg id="Layer_1" data-name="Layer 1" xmlns="http://www.w3.org/2000/svg" viewBox="0 0 557.91 133.21"><defs><style>.cls-1{fill:#16090b;}.cls-2{fill:#a6a8aa;}.cls-3{fill:#001489;}</style></defs><title>Oaks </title><path class="cls-1" d="M162.36,219.51V204.8h2.56v5.87h7V204.8h2.53v14.71h-2.53v-6.58h-7v6.58Z" transform="translate(-17.74 -96)"/><path class="cls-1" d="M183.34,212.16a8.72,8.72,0,0,1,.38-2.59,7.93,7.93,0,0,1,1.13-2.25,7.33,7.33,0,0,1,2.56-2.21,7.13,7.13,0,0,1,6.06-.2,7.18,7.18,0,0,1,2.36,1.66,7.62,7.62,0,0,1,1.59,2.53,8.76,8.76,0,0,1,0,6.11,7.45,7.45,0,0,1-4,4.19,6.92,6.92,0,0,1-5.57,0,7.32,7.32,0,0,1-2.37-1.66,7.62,7.62,0,0,1-1.61-2.53A8.35,8.35,0,0,1,183.34,212.16Zm2.66,0a5.59,5.59,0,0,0,1.34,3.81,4.39,4.39,0,0,0,6.64,0,6.08,6.08,0,0,0,0-7.63,4.41,4.41,0,0,0-6.66,0A5.59,5.59,0,0,0,186,212.16Z" transform="translate(-17.74 -96)"/><path class="cls-1" d="M212.64,207.05v12.46H210V207.05h-5V204.8h12.51v2.25Z" transform="translate(-17.74 -96)"/><path class="cls-1" d="M225.72,219.51V204.8h8.56v2.27h-6v3.62h5.19v2.24h-5.19v4.3h6.14v2.28Z" transform="translate(-17.74 -96)"/><path class="cls-1" d="M243.59,219.51V204.8h2.57v12.41h6.32v2.3Z" transform="translate(-17.74 -96)"/><path class="cls-1" d="M259.81,216.25a11.49,11.49,0,0,0,2.19,1.13,5.6,5.6,0,0,0,1.89.37,2.89,2.89,0,0,0,1.88-.58,1.8,1.8,0,0,0,.72-1.48,2.11,2.11,0,0,0-.49-1.37,6.3,6.3,0,0,0-1.67-1.31l-1.11-.67a8,8,0,0,1-2.39-2,3.61,3.61,0,0,1-.7-2.2,3.55,3.55,0,0,1,1.23-2.8,4.74,4.74,0,0,1,3.23-1.08,8.31,8.31,0,0,1,1.87.21,8.49,8.49,0,0,1,1.83.68l-.08,2.34a12.37,12.37,0,0,0-1.93-.88,5,5,0,0,0-1.5-.27,2.58,2.58,0,0,0-1.6.45,1.49,1.49,0,0,0-.58,1.23,1.65,1.65,0,0,0,.43,1.11,6.43,6.43,0,0,0,1.58,1.17l1.06.62a8.57,8.57,0,0,1,2.63,2.18,4.11,4.11,0,0,1,.78,2.48,4,4,0,0,1-1.38,3.17A5.4,5.4,0,0,1,264,220a9.26,9.26,0,0,1-2.05-.22,8.52,8.52,0,0,1-1.92-.65Z" transform="translate(-17.74 -96)"/><path class="cls-1" d="M283.58,211.78a2.86,2.86,0,0,1,.88-2.12,2.93,2.93,0,0,1,2.13-.87,3,3,0,1,1-2.14,5.12A2.93,2.93,0,0,1,283.58,211.78Z" transform="translate(-17.74 -96)"/><path class="cls-1" d="M304.93,219.51V204.8h3.41a12.64,12.64,0,0,1,2.81.24,5.22,5.22,0,0,1,1.78.78,4.13,4.13,0,0,1,1.27,1.4,3.49,3.49,0,0,1,.46,1.74,4,4,0,0,1-.83,2.51,5,5,0,0,1-2.4,1.58l4.76,6.46h-3l-4.47-6.1h-1.24v6.1Zm2.54-8h1.18a4.49,4.49,0,0,0,2.55-.6,2,2,0,0,0,.88-1.75,1.88,1.88,0,0,0-.88-1.72,5.5,5.5,0,0,0-2.78-.55h-.95Z" transform="translate(-17.74 -96)"/><path class="cls-1" d="M324.33,219.51V204.8h8.56v2.27h-6.05v3.62H332v2.24h-5.2v4.3H333v2.28Z" transform="translate(-17.74 -96)"/><path class="cls-1" d="M341.36,216.25a11.25,11.25,0,0,0,2.2,1.13,5.54,5.54,0,0,0,1.88.37,2.89,2.89,0,0,0,1.88-.58,1.8,1.8,0,0,0,.72-1.48,2.16,2.16,0,0,0-.48-1.37,6.21,6.21,0,0,0-1.68-1.31l-1.11-.67a8,8,0,0,1-2.39-2,3.61,3.61,0,0,1-.7-2.2,3.52,3.52,0,0,1,1.24-2.8,4.71,4.71,0,0,1,3.22-1.08,8.25,8.25,0,0,1,1.87.21,8.49,8.49,0,0,1,1.83.68l-.08,2.34a12.37,12.37,0,0,0-1.93-.88,5,5,0,0,0-1.5-.27,2.55,2.55,0,0,0-1.59.45,1.47,1.47,0,0,0-.59,1.23,1.7,1.7,0,0,0,.43,1.11,6.43,6.43,0,0,0,1.58,1.17l1.07.62a8.63,8.63,0,0,1,2.62,2.18,4.06,4.06,0,0,1,.79,2.48,4,4,0,0,1-1.39,3.17,5.38,5.38,0,0,1-3.69,1.21,9.33,9.33,0,0,1-2.05-.22,8.44,8.44,0,0,1-1.91-.65Z" transform="translate(-17.74 -96)"/><path class="cls-1" d="M358.67,212.16a8.72,8.72,0,0,1,.38-2.59,7.7,7.7,0,0,1,1.14-2.25,7.16,7.16,0,0,1,2.56-2.21,7.11,7.11,0,0,1,6.05-.2,7.07,7.07,0,0,1,2.36,1.66,7.62,7.62,0,0,1,1.59,2.53,8.76,8.76,0,0,1,0,6.11,7.38,7.38,0,0,1-1.59,2.52,7.5,7.5,0,0,1-2.38,1.67A7,7,0,0,1,366,220a6.81,6.81,0,0,1-2.79-.58,7.32,7.32,0,0,1-2.37-1.66,7.78,7.78,0,0,1-1.61-2.53A8.57,8.57,0,0,1,358.67,212.16Zm2.66,0a5.55,5.55,0,0,0,1.35,3.81,4.37,4.37,0,0,0,6.63,0,6.08,6.08,0,0,0,0-7.63,4.41,4.41,0,0,0-6.66,0A5.64,5.64,0,0,0,361.33,212.16Z" transform="translate(-17.74 -96)"/><path class="cls-1" d="M382.17,219.51V204.8h3.41a12.64,12.64,0,0,1,2.81.24,5.22,5.22,0,0,1,1.78.78,4.13,4.13,0,0,1,1.27,1.4,3.49,3.49,0,0,1,.46,1.74,4,4,0,0,1-.83,2.51,5,5,0,0,1-2.4,1.58l4.76,6.46h-3l-4.47-6.1h-1.24v6.1Zm2.54-8h1.18a4.49,4.49,0,0,0,2.55-.6,2,2,0,0,0,.88-1.75,1.88,1.88,0,0,0-.88-1.72,5.5,5.5,0,0,0-2.78-.55h-1Z" transform="translate(-17.74 -96)"/><path class="cls-1" d="M407.37,207.05v12.46h-2.6V207.05h-5V204.8h12.51v2.25Z" transform="translate(-17.74 -96)"/><path class="cls-1" d="M419.62,216.25a11.49,11.49,0,0,0,2.19,1.13,5.55,5.55,0,0,0,1.89.37,2.86,2.86,0,0,0,1.87-.58,1.8,1.8,0,0,0,.72-1.48,2.16,2.16,0,0,0-.48-1.37,6.21,6.21,0,0,0-1.68-1.31l-1.1-.67a7.84,7.84,0,0,1-2.39-2,3.62,3.62,0,0,1-.71-2.2,3.56,3.56,0,0,1,1.24-2.8,4.74,4.74,0,0,1,3.23-1.08,8.31,8.31,0,0,1,1.87.21,8.9,8.9,0,0,1,1.83.68l-.08,2.34a12.43,12.43,0,0,0-1.94-.88,4.86,4.86,0,0,0-1.49-.27,2.56,2.56,0,0,0-1.6.45,1.46,1.46,0,0,0-.58,1.23,1.69,1.69,0,0,0,.42,1.11,6.74,6.74,0,0,0,1.59,1.17l1.06.62a8.69,8.69,0,0,1,2.63,2.18,4.11,4.11,0,0,1,.78,2.48,4,4,0,0,1-1.38,3.17,5.42,5.42,0,0,1-3.69,1.21,9.35,9.35,0,0,1-2.06-.22,8.61,8.61,0,0,1-1.91-.65Z" transform="translate(-17.74 -96)"/><path class="cls-1" d="M443.39,211.78a2.86,2.86,0,0,1,.88-2.12,2.93,2.93,0,0,1,2.13-.87,3,3,0,0,1,3,3,3,3,0,0,1-3,3,2.86,2.86,0,0,1-2.12-.88A2.93,2.93,0,0,1,443.39,211.78Z" transform="translate(-17.74 -96)"/><path class="cls-1" d="M463.91,216.25a10.93,10.93,0,0,0,2.19,1.13,5.54,5.54,0,0,0,1.88.37,2.89,2.89,0,0,0,1.88-.58,1.8,1.8,0,0,0,.72-1.48,2.16,2.16,0,0,0-.48-1.37,6.21,6.21,0,0,0-1.68-1.31l-1.11-.67a7.91,7.91,0,0,1-2.38-2,3.62,3.62,0,0,1-.71-2.2,3.52,3.52,0,0,1,1.24-2.8,4.71,4.71,0,0,1,3.22-1.08,8.18,8.18,0,0,1,1.87.21,8.77,8.77,0,0,1,1.84.68l-.09,2.34a12.37,12.37,0,0,0-1.93-.88,4.91,4.91,0,0,0-1.49-.27,2.56,2.56,0,0,0-1.6.45,1.46,1.46,0,0,0-.58,1.23,1.69,1.69,0,0,0,.42,1.11,6.64,6.64,0,0,0,1.58,1.17l1.07.62a8.69,8.69,0,0,1,2.63,2.18,4.11,4.11,0,0,1,.78,2.48,4,4,0,0,1-1.39,3.17,5.37,5.37,0,0,1-3.68,1.21,9.35,9.35,0,0,1-2.06-.22,8.61,8.61,0,0,1-1.91-.65Z" transform="translate(-17.74 -96)"/><path class="cls-1" d="M484.68,204.8v8.58a4.91,4.91,0,0,0,.91,3.22,3.27,3.27,0,0,0,2.66,1.09,3.17,3.17,0,0,0,2.64-1.11,5.07,5.07,0,0,0,.89-3.26V204.8h2.32v8.56a7,7,0,0,1-1.59,4.87,5.51,5.51,0,0,1-4.32,1.76,5.91,5.91,0,0,1-4.53-1.71,6.88,6.88,0,0,1-1.59-4.87V204.8Z" transform="translate(-17.74 -96)"/><path class="cls-1" d="M503.83,219.51V204.8h2.6v14.71Z" transform="translate(-17.74 -96)"/><path class="cls-1" d="M522.18,207.05v12.46h-2.59V207.05h-5V204.8h12.5v2.25Z" transform="translate(-17.74 -96)"/><path class="cls-1" d="M535.26,219.51V204.8h8.56v2.27h-6v3.62H543v2.24h-5.19v4.3h6.15v2.28Z" transform="translate(-17.74 -96)"/><path class="cls-1" d="M552.3,216.25a11.49,11.49,0,0,0,2.19,1.13,5.55,5.55,0,0,0,1.89.37,2.86,2.86,0,0,0,1.87-.58,1.8,1.8,0,0,0,.72-1.48,2.16,2.16,0,0,0-.48-1.37,6.21,6.21,0,0,0-1.68-1.31l-1.1-.67a7.84,7.84,0,0,1-2.39-2,3.62,3.62,0,0,1-.71-2.2,3.52,3.52,0,0,1,1.24-2.8,4.72,4.72,0,0,1,3.23-1.08,8.31,8.31,0,0,1,1.87.21,8.9,8.9,0,0,1,1.83.68l-.08,2.34a12.43,12.43,0,0,0-1.94-.88,4.86,4.86,0,0,0-1.49-.27,2.56,2.56,0,0,0-1.6.45,1.46,1.46,0,0,0-.58,1.23,1.69,1.69,0,0,0,.42,1.11,6.53,6.53,0,0,0,1.59,1.17l1.06.62a8.69,8.69,0,0,1,2.63,2.18,4.11,4.11,0,0,1,.78,2.48,4,4,0,0,1-1.39,3.17A5.37,5.37,0,0,1,556.5,220a9.35,9.35,0,0,1-2.06-.22,8.61,8.61,0,0,1-1.91-.65Z" transform="translate(-17.74 -96)"/><path class="cls-2" d="M191.19,125.42C185.84,141,165.73,159.11,140,171.69c-35.86,17.48-71.26,18.94-78.91,3.25-1.89-3.88-1.93-8.55-.09-13.89,5.35-15.53,25.46-33.69,51.24-46.26,35.86-17.48,71.26-18.94,78.91-3.26,1.89,3.88,1.93,8.56.09,13.89m22.71-14.25C201.48,87.82,148,91.88,94.62,120.24c-38.51,20.47-68,48.88-75.21,72.37-2.52,8.24-2.18,15.45,1,21.43C32.83,237.4,86.34,233.33,139.69,205c38.51-20.48,68-48.88,75.21-72.37,2.52-8.24,2.18-15.45-1-21.43" transform="translate(-17.74 -96)"/><polygon class="cls-3" points="418.31 88.84 371.88 59.23 413.07 34.02 446.51 34.02 404.57 59.23 453.1 88.84 418.31 88.84"/><path class="cls-3" d="M126.79,165.11c0,16,12.52,19.73,34.66,19.73h40.66c22.13,0,34.67-3.76,34.67-19.73V148.85c0-16-12.54-19.73-34.67-19.73H161.45c-22.14,0-34.66,3.76-34.66,19.73Zm24.59-12.51c0-6.79,2.43-10.92,15.38-10.92h30c12.94,0,15.38,4.13,15.38,10.92v8.77c0,7.91-2.44,10.92-14.05,10.92h-32.7c-11.62,0-14.05-3-14.05-10.92Z" transform="translate(-17.74 -96)"/><rect class="cls-3" x="347.39" y="34.02" width="24.59" height="54.82"/><path class="cls-3" d="M542.46,184.84H477.4V172.29h64.14c2.09,0,9.16.55,9.16-4.52s-7.08-4.51-9.17-4.51H508.11c-26.7,0-33.18-4.18-33.18-17.07s6.48-17.07,33.18-17.07h64.7v12.56H508.36c-2.09,0-9.18-.57-9.18,4.51s7.08,4.52,9.17,4.52h34.11c26.7,0,33.19,4.17,33.19,17.06s-6.49,17.07-33.19,17.07" transform="translate(-17.74 -96)"/><path class="cls-3" d="M296.88,142.05l-15.07,20.34h30.57Zm-59.39,42.79L280.22,130h33.44l43.4,54.82H329.69L322,175H272.17l-7.2,9.85Z" transform="translate(-17.74 -96)"/></svg>