<?xml version="1.0" encoding="utf-8"?>
<!-- Generator: Adobe Illustrator 23.0.4, SVG Export Plug-In . SVG Version: 6.00 Build 0)  -->
<svg version="1.1" id="Layer_1" xmlns="http://www.w3.org/2000/svg" xmlns:xlink="http://www.w3.org/1999/xlink" x="0px" y="0px"
	 viewBox="0 0 1062.4 493.7" style="enable-background:new 0 0 1062.4 493.7;" xml:space="preserve">
<style type="text/css">
	.st0{fill:#300F2B;}
</style>
<g>
	<g>
		<path class="st0" d="M461.5,1.1c-11.5,0-14.4,8.4-17.8,18.1l-86.4,238.3L274.4,20.9c-3.9-11-7-19.7-19-19.7
			c-10,0-16.7,8-16.7,15.6c0,4,0.9,6.3,3.7,14.1l91,249.1c5.5,14.5,9.1,24.1,23.5,24.1c14.4,0,18-9.6,23.5-24.1l92.9-249.7
			c3.3-8.2,3.8-10.2,3.8-14.4C477.1,8.9,470.7,1.1,461.5,1.1"/>
		<path class="st0" d="M153.6,24.8C147,9.6,143.3,1.1,129.4,1.1c-14.7,0-18.6,9.9-24.5,24.8L4.6,272.9C1.1,281.2,0,283.7,0,288.9
			c0,7.2,6.7,15.2,16.3,15.2c11.6,0,14.4-7.2,18.7-18.1l94-240.4l54.3,132.9c-9.8-1.6-22.9-3.1-36.6-3.1c-31.2,0-46.1,5.7-47,6
			c-7.8,2.8-11.9,11.4-9.2,19.2c2.1,6,7.8,10,14.2,10c1.7,0,3.4-0.3,5-0.9c0.2-0.1,11.1-4.3,37-4.3c23.4,0,45.4,5.3,50.3,6.6
			l29.6,72.9l0.2,0.6c4.8,11.2,7.9,18.6,19.1,18.6c11.2,0,17.2-9.3,17.2-16c0-4.6-0.9-7.6-4.7-16.5L153.6,24.8z"/>
		<path class="st0" d="M954.6,2c-7.5,0-16.4,3.4-16.4,19.6l1.9,225.4L786.4,19.4c-7.4-11-11.5-17-21.4-17
			c-19.2,0-19.2,17.8-19.2,29.6v247.4c0,10.2,0,25.6,16.8,25.6c5.1,0,9.1-1.4,11.9-4.2c4.7-4.8,4.6-12.4,4.5-18.6l-2-219.4
			l151.4,223.6c8.2,12.1,12.3,18.2,22.6,18.2c7,0,11.4-2.9,13.7-5.2c6.7-5.7,6.7-11.3,6.7-26V27.5C971.4,17.4,971.4,2,954.6,2"/>
		<path class="st0" d="M1045.6,2c-16.8,0-16.8,16.6-16.8,25.6v251.8c0,9.6,0,25.6,17.1,25.6c16.4,0,16.4-16,16.4-25.6V27.5
			C1062.4,18,1062.4,2,1045.6,2"/>
		<path class="st0" d="M606.2,24.8C599.6,9.6,595.9,1.1,582,1.1c-14.8,0-18.7,9.9-24.6,24.8L457.2,272.9c-3.6,8.4-4.7,10.9-4.7,16.1
			c0,7.2,6.7,15.2,16.3,15.2c11.6,0,14.4-7.2,18.7-18.1l94-240.4L636,178.5c-9.9-1.6-22.9-3.1-36.6-3.1c-31.2,0-46,5.7-47,6
			c-7.8,2.8-11.9,11.4-9.2,19.2c2.1,6,7.8,10,14.2,10c1.7,0,3.4-0.3,5-0.9c0.2-0.1,11.1-4.3,37-4.3c23.4,0,45.4,5.3,50.3,6.6
			l29.6,72.9l0.2,0.6c4.8,11.2,7.9,18.6,19.1,18.6c11.2,0,17.2-9.3,17.2-16c0-4.6-0.9-7.6-4.7-16.5L606.2,24.8z"/>
	</g>
	<g>
		<path class="st0" d="M218.2,407v71.1h-11.7v-30.8H176v30.8h-11.7V407H176v29.2h30.5V407H218.2z"/>
		<path class="st0" d="M227.4,452.7c0-15.1,12-26.7,26.8-26.7c14.9,0,26.8,11.6,26.8,26.7c0,15-11.9,26.7-26.8,26.7
			C239.4,479.4,227.4,467.8,227.4,452.7z M270.1,452.7c0-9.2-6.9-16.1-15.9-16.1c-8.9,0-15.9,6.8-15.9,16.1s6.9,16.1,15.9,16.1
			C263.2,468.8,270.1,462,270.1,452.7z"/>
		<path class="st0" d="M305.4,437.9v24.4c0,6.5,4.3,6.4,12.6,6v9.9c-16.9,2-23.6-2.6-23.6-15.9v-24.4H285v-10.6h9.3v-11l11-3.3v14.2
			H318v10.6H305.4z"/>
		<path class="st0" d="M351.9,469.4c6.1,0,10.7-2.7,13.1-6.3l9,5.3c-4.7,6.9-12.3,11.1-22.3,11.1c-16.8,0-27.6-11.5-27.6-26.7
			c0-15,10.9-26.7,26.8-26.7c15.1,0,25.5,12.2,25.5,26.8c0,1.5-0.2,3.1-0.4,4.6h-40.4C337.4,465.3,343.8,469.4,351.9,469.4z
			 M365.4,448.4c-1.5-8.7-7.9-12.5-14.5-12.5c-8.2,0-13.8,4.9-15.3,12.5H365.4z"/>
		<path class="st0" d="M384.7,403.9h11v74.2h-11V403.9z"/>
		<path class="st0" d="M444.2,463.8c0,10.2-8.8,15.6-19.8,15.6c-10.2,0-17.5-4.6-20.7-11.9l9.5-5.5c1.6,4.6,5.7,7.3,11.3,7.3
			c4.9,0,8.6-1.6,8.6-5.7c0-9-27.3-4-27.3-22.2c0-9.6,8.2-15.5,18.6-15.5c8.3,0,15.2,3.9,18.8,10.6l-9.2,5.2c-1.8-4-5.4-5.8-9.6-5.8
			c-4,0-7.4,1.7-7.4,5.4C416.8,450.6,444.2,445,444.2,463.8z"/>
		<path class="st0" d="M526.1,480l-6.8-7.3c-5.1,4.1-11.6,6.7-19.8,6.7c-14.2,0-24.4-7.8-24.4-20.8c0-8.3,4.3-16,12.5-20.4
			c-2.4-3.4-4.1-7.2-4.1-12.4c0-12.2,9.7-20.1,21.6-20.1c9.6,0,18.1,5.2,21.9,14.8l-10,5.7c-1.9-5.7-6.3-9.1-11.9-9.1
			c-5.6,0-10.1,3.6-10.1,9c0,4.6,2.7,7.7,6.1,11.4l17.3,18.7c1.7-3.5,2.9-7.6,3.7-12.4l10,5.7c-1.1,5.2-3,10.5-5.9,15l9.2,10.1
			L526.1,480z M511.8,464.8L494.4,446c-5.5,2.7-7.5,7.4-7.5,11.7c0,6.5,4.7,10.9,13.2,10.9C504.7,468.6,508.6,467.2,511.8,464.8z"/>
		<path class="st0" d="M593,452.2h-13.8v25.9h-11.7V407H596c12.7,0,22.9,10.2,22.9,22.9c0,9.1-5.8,17.3-14.1,20.6l16.2,27.6h-12.8
			L593,452.2z M579.2,441.7H596c6.2,0,11.2-5.3,11.2-11.9c0-6.7-5-11.9-11.2-11.9h-16.8V441.7z"/>
		<path class="st0" d="M652.6,469.4c6.1,0,10.7-2.7,13.1-6.3l9,5.3c-4.7,6.9-12.3,11.1-22.3,11.1c-16.8,0-27.6-11.5-27.6-26.7
			c0-15,10.9-26.7,26.8-26.7c15.1,0,25.5,12.2,25.5,26.8c0,1.5-0.2,3.1-0.4,4.6h-40.4C638,465.3,644.4,469.4,652.6,469.4z
			 M666.1,448.4c-1.5-8.7-7.9-12.5-14.5-12.5c-8.2,0-13.8,4.9-15.3,12.5H666.1z"/>
		<path class="st0" d="M722.6,463.8c0,10.2-8.8,15.6-19.8,15.6c-10.2,0-17.5-4.6-20.7-11.9l9.5-5.5c1.6,4.6,5.7,7.3,11.3,7.3
			c4.9,0,8.6-1.6,8.6-5.7c0-9-27.3-4-27.3-22.2c0-9.6,8.2-15.5,18.6-15.5c8.3,0,15.2,3.9,18.8,10.6l-9.2,5.2c-1.8-4-5.4-5.8-9.6-5.8
			c-4,0-7.4,1.7-7.4,5.4C695.2,450.6,722.6,445,722.6,463.8z"/>
		<path class="st0" d="M728,452.7c0-15.1,12-26.7,26.8-26.7c14.9,0,26.8,11.6,26.8,26.7c0,15-11.9,26.7-26.8,26.7
			C739.9,479.4,728,467.8,728,452.7z M770.6,452.7c0-9.2-6.9-16.1-15.9-16.1c-8.9,0-15.9,6.8-15.9,16.1s6.9,16.1,15.9,16.1
			C763.7,468.8,770.6,462,770.6,452.7z"/>
		<path class="st0" d="M816.8,426.4v11.9c-7.2-0.5-15.6,2.8-15.6,14.2v25.6h-11v-50.8h11v8.5C804.2,428.9,810.4,426.4,816.8,426.4z"
			/>
		<path class="st0" d="M839.2,437.9v24.4c0,6.5,4.3,6.4,12.6,6v9.9c-16.9,2-23.6-2.6-23.6-15.9v-24.4h-9.3v-10.6h9.3v-11l11-3.3
			v14.2h12.6v10.6H839.2z"/>
		<path class="st0" d="M898.1,463.8c0,10.2-8.8,15.6-19.8,15.6c-10.2,0-17.5-4.6-20.7-11.9l9.5-5.5c1.6,4.6,5.7,7.3,11.3,7.3
			c4.9,0,8.6-1.6,8.6-5.7c0-9-27.3-4-27.3-22.2c0-9.6,8.2-15.5,18.6-15.5c8.3,0,15.2,3.9,18.8,10.6l-9.2,5.2c-1.8-4-5.4-5.8-9.6-5.8
			c-4,0-7.4,1.7-7.4,5.4C870.7,450.6,898.1,445,898.1,463.8z"/>
	</g>
</g>
</svg>
