<svg width="37" height="36" viewBox="0 0 37 36" fill="none" xmlns="http://www.w3.org/2000/svg">
<rect width="35.3999" height="34.8499" fill="black" fill-opacity="0" transform="translate(1)"/>
<path d="M18.8999 5.00001C20.2806 5.00001 21.3999 3.88072 21.3999 2.50001C21.3999 1.11929 20.2806 6.10352e-06 18.8999 6.10352e-06C17.5192 6.10352e-06 16.3999 1.11929 16.3999 2.50001C16.3999 3.88072 17.5192 5.00001 18.8999 5.00001Z" fill="#00AEEF"/>
<path d="M3.79978 6.8999C5.18049 6.8999 6.29978 5.78061 6.29978 4.3999C6.29978 3.01919 5.18049 1.8999 3.79978 1.8999C2.41907 1.8999 1.29978 3.01919 1.29978 4.3999C1.29978 5.78061 2.41907 6.8999 3.79978 6.8999Z" fill="#00AEEF"/>
<path d="M33.7998 6.8999C35.1805 6.8999 36.2998 5.78061 36.2998 4.3999C36.2998 3.01919 35.1805 1.8999 33.7998 1.8999C32.4191 1.8999 31.2998 3.01919 31.2998 4.3999C31.2998 5.78061 32.4191 6.8999 33.7998 6.8999Z" fill="#00AEEF"/>
<path d="M28.0001 17.6999H23.0001V17.3999V10.8999C23.0001 8.69993 21.0001 7.79994 19.4001 8.19994C18.9001 8.09994 18.3001 8.09994 17.8001 8.19994C16.1001 7.69994 14.1001 8.59993 14.1001 10.7999V17.2999V17.5999H8.60012V20.1999H28.1001L28.0001 17.6999Z" stroke="#2D4170" stroke-width="1.002"/>
<path d="M11.7 23.9999C10 23.4999 8.4 22.8999 6.7 22.3999V22.1999V13.2999C6.7 9.5999 0.999988 9.5999 0.999988 13.2999V22.1999C0.999988 23.7999 2.10001 24.6999 3.40001 24.8999C5.50001 25.4999 7.50002 26.1999 9.60002 26.7999V33.1999C9.60002 35.3999 13 35.3999 13 33.1999V25.7999C13 25.5999 13 25.3999 12.9 25.1999C12.7 24.6999 12.3 24.1999 11.7 23.9999Z" stroke="#2D4170" stroke-width="1.002"/>
<path d="M15.1001 22.8001V30.2001C15.1001 32.4001 18.5001 32.4001 18.5001 30.2001V22.8001C18.4001 20.7001 15.1001 20.7001 15.1001 22.8001Z" stroke="#2D4170" stroke-width="1.002"/>
<path d="M19.1001 22.8001V30.2001C19.1001 32.4001 22.5001 32.4001 22.5001 30.2001V22.8001C22.5001 20.7001 19.1001 20.7001 19.1001 22.8001Z" stroke="#2D4170" stroke-width="1.002"/>
<path d="M17.2998 20.7998L18.8998 22.2998L20.4998 20.7998" fill="#2D4170"/>
<path d="M25.6999 23.3002C27.3999 22.8002 28.9999 22.2002 30.6999 21.7002V21.5002V12.6002C30.6999 8.90019 36.3999 8.90019 36.3999 12.6002V21.5002C36.3999 23.1002 35.2999 24.0002 33.9999 24.2002C31.8999 24.8002 29.8999 25.5002 27.7999 26.1002V32.5002C27.7999 34.7002 24.3999 34.7002 24.3999 32.5002V25.1002C24.3999 24.9002 24.3999 24.7002 24.4999 24.5002C24.5999 24.0002 24.9999 23.5002 25.6999 23.3002Z" stroke="#2D4170" stroke-width="1.002"/>
<path d="M27.9998 17.2998H8.79978V20.5998H27.9998V17.2998Z" fill="#2D4170"/>
</svg>
