<svg width="36" height="37" viewBox="0 0 36 37" fill="none" xmlns="http://www.w3.org/2000/svg">
<rect width="35" height="34.793" fill="black" fill-opacity="0" transform="translate(1 1)"/>
<path d="M35.4826 13.6334C35.4826 13.6334 29.4767 14.5654 29.1661 10.0091C29.1661 10.0091 28.7518 6.90261 27.6128 6.0742C27.6128 6.0742 30.4087 5.86709 30.9264 7.5239C31.2371 8.66296 31.237 11.6659 33.4116 12.805C34.6542 13.5298 35.4826 13.6334 35.4826 13.6334Z" fill="#003A70"/>
<path d="M30.4084 16.1186H2.03549C1.41419 16.1186 0.999987 16.6364 0.999987 17.1542V22.2281C0.999987 22.8494 1.51774 23.2636 2.03549 23.2636H30.4084C31.0297 23.2636 31.4439 22.7459 31.4439 22.2281V17.1542C31.4439 16.6364 31.0297 16.1186 30.4084 16.1186Z" stroke="#003A70" stroke-width="1.002"/>
<path d="M35.2752 15.083C34.6539 15.083 34.5503 15.6008 34.5503 16.1185V23.4706C34.5503 24.0919 34.6539 24.5061 35.2752 24.5061C35.8965 24.5061 36 23.9884 36 23.4706V16.1185C35.8964 15.4972 35.7929 15.083 35.2752 15.083Z" fill="#003A70"/>
<path d="M28.855 1.00001L7.10939 35.793" stroke="#00AEEF" stroke-width="1.002"/>
<path d="M33.2041 15.083C32.5828 15.083 32.4793 15.6008 32.4793 16.1185V23.4706C32.4793 24.0919 32.5828 24.5061 33.2041 24.5061C33.8254 24.5061 33.9289 23.9884 33.9289 23.4706V16.1185C33.9289 15.4972 33.8254 15.083 33.2041 15.083Z" fill="#003A70"/>
</svg>
