<svg width="37" height="26" viewBox="0 0 37 26" fill="none" xmlns="http://www.w3.org/2000/svg">
<rect width="35" height="24.3716" fill="black" fill-opacity="0" transform="translate(1 1)"/>
<path d="M9.05232 22.9023H6.58301V25.3717H9.05232V22.9023Z" fill="#2A3460"/>
<path d="M30.2022 22.9023H27.7329V25.3717H30.2022V22.9023Z" fill="#2A3460"/>
<path d="M33.3161 13.0245V5.93865C33.3161 4.97239 32.5646 3.79141 31.5983 3.46932C29.0216 2.50306 23.8683 0.999993 18.8223 0.999993C13.7762 0.999993 8.62285 2.61043 6.04616 3.46932C5.0799 3.79141 4.3284 4.97239 4.3284 5.93865V13.0245H8.30074C7.76393 12.5951 7.44185 11.8436 7.44185 11.1994C7.44185 9.80368 8.62283 8.6227 10.1259 8.6227H14.9572C16.4603 8.6227 17.6412 9.80368 17.6412 11.1994C17.6412 11.9509 17.3192 12.5951 16.7824 13.0245H20.6474C20.1106 12.5951 19.7885 11.8436 19.7885 11.1994C19.7885 9.80368 20.9695 8.6227 22.4725 8.6227H27.3038C28.8069 8.6227 29.9879 9.80368 29.9879 11.1994C29.9879 11.9509 29.6658 12.5951 29.129 13.0245H33.3161Z" stroke="#003A70" stroke-width="1.002"/>
<path d="M36 14.957C36 13.4539 34.819 12.2729 33.316 12.2729H3.68404C2.18097 12.2729 0.999987 13.4539 0.999987 14.957V17.7484H36" fill="#00AEEF"/>
<path d="M36 19.896H0.999987V22.9021H36V19.896Z" stroke="#003A70" stroke-width="1.002"/>
</svg>
