<svg width="36" height="36" viewBox="0 0 36 36" fill="none" xmlns="http://www.w3.org/2000/svg">
<rect width="34" height="34" fill="black" fill-opacity="0" transform="translate(1 1)"/>
<path d="M20.6003 7.40039H11.3003V29.3004H15.6003V22.1004H20.5003C24.2003 22.1004 27.8003 19.0004 27.8003 14.7004C27.7003 11.0004 24.6003 7.40039 20.6003 7.40039ZM20.3003 18.1004H15.5003V11.5004H20.3003C21.9003 11.5004 23.4003 12.9004 23.4003 14.9004C23.5003 16.8004 22.0003 18.1004 20.3003 18.1004Z" fill="#00AEEF"/>
<path d="M18 35C27.3889 35 35 27.3888 35 18C35 8.61115 27.3889 0.999994 18 0.999994C8.61117 0.999994 1.00001 8.61115 1.00001 18C1.00001 27.3888 8.61117 35 18 35Z" stroke="#003A70" stroke-width="1.002"/>
</svg>
