<svg width="36" height="30" viewBox="0 0 36 30" fill="none" xmlns="http://www.w3.org/2000/svg">
<rect width="34.2158" height="28.5001" fill="black" fill-opacity="0" transform="translate(1 1)"/>
<path d="M25.1408 14L1.84083 2.4V0.999994L25.5408 12.8L25.1408 14Z" fill="#5A97D2"/>
<path d="M18.141 11.3001H4.54095L2.74096 10.3001C2.14096 10.0001 1.44095 10.2001 1.14095 10.7001C0.840954 11.3001 1.04095 12.0001 1.54095 12.3001L4.34097 13.9001V27.4001C4.34097 28.5001 5.24097 29.5001 6.34097 29.5001C7.44097 29.5001 8.34097 28.6001 8.34097 27.4001V22.1001L12.0409 28.4001C12.6409 29.4001 13.841 29.7001 14.841 29.1001C15.841 28.5001 16.1409 27.2001 15.5409 26.3001L12.141 20.4001H20.641V27.3001C20.641 28.4001 21.541 29.4001 22.641 29.4001C23.741 29.4001 24.641 28.5001 24.641 27.3001V14.5001L18.141 11.3001Z" stroke="#003A70" stroke-width="1.002"/>
<path d="M21.2408 7.6002L19.8408 9.2002L25.7408 12.2002L33.7408 7.2002V5.9002L34.8408 4.80019C35.3408 4.30019 35.3408 3.5002 34.8408 2.9002C34.5408 2.6002 34.1408 2.50019 33.8408 2.50019H30.1408L27.7408 1.2002L21.1408 2.6002C20.5408 2.7002 20.1408 3.30019 20.2408 4.00019C20.2408 4.20019 20.4408 4.5002 20.5408 4.7002L21.2408 5.6002L22.0408 6.7002L22.1408 6.9002C22.5408 7.4002 23.6408 7.40019 24.1408 7.00019C24.4408 6.80019 24.5408 6.60019 24.5408 6.30019V5.9002V4.30019V3.80019C24.5408 3.50019 24.6408 3.2002 25.0408 3.2002" stroke="#003A70" stroke-width="1.002"/>
<path d="M27.441 5.80029C27.9381 5.80029 28.341 5.35257 28.341 4.80029C28.341 4.24801 27.9381 3.80029 27.441 3.80029C26.9439 3.80029 26.541 4.24801 26.541 4.80029C26.541 5.35257 26.9439 5.80029 27.441 5.80029Z" fill="#5A97D2"/>
</svg>
