<svg width="36" height="27" viewBox="0 0 36 27" fill="none" xmlns="http://www.w3.org/2000/svg">
<rect width="35.4" height="25.1347" fill="black" fill-opacity="0" transform="translate(0 1)"/>
<path d="M27.9 11.3347C30.33 11.3347 32.3 9.36471 32.3 6.93466C32.3 4.50461 30.33 2.53467 27.9 2.53467C25.4699 2.53467 23.5 4.50461 23.5 6.93466C23.5 9.36471 25.4699 11.3347 27.9 11.3347Z" stroke="#003A70" stroke-width="1.002"/>
<path d="M25.7 15.7349C21.3 15.7349 17.5 18.6349 10.2 18.6349C2.80001 18.6349 -6.10352e-06 15.7349 -6.10352e-06 15.7349C-6.10352e-06 15.7349 3.20001 21.6349 11.2 21.6349C18.3 21.6349 22.5 18.7349 27.4 18.7349C33.3 18.7349 35.4 21.6349 35.4 21.6349C35.4 21.6349 32.3 15.7349 25.7 15.7349Z" fill="#00AEEF"/>
<path d="M24 21.5347C20.6 21.5347 17.6 23.8347 11.9 23.8347C6.19999 23.8347 3.99999 21.5347 3.99999 21.5347C3.99999 21.5347 6.50001 26.1347 12.7 26.1347C18.2 26.1347 21.5 23.8347 25.3 23.8347C29.9 23.8347 31.5 26.1347 31.5 26.1347C31.5 26.1347 29.1 21.5347 24 21.5347Z" fill="#00AEEF"/>
<path d="M6.49972 8.235L14.0997 4.43499L14.3997 4.93499L15.9997 9.235C15.8997 9.235 7.49973 14.235 5.69973 15.235C6.89973 15.535 8.39973 15.635 10.0997 15.635C15.7997 15.635 19.4997 13.735 23.0997 13.035L15.9997 1.735C15.5997 1.035 14.7997 0.835006 14.0997 1.13501L5.29974 5.535C4.59974 5.935 4.29973 6.735 4.59973 7.535C4.89973 8.335 5.79972 8.635 6.49972 8.235Z" stroke="#003A70" stroke-width="1.002"/>
</svg>
