<svg width="31" height="36" viewBox="0 0 31 36" fill="none" xmlns="http://www.w3.org/2000/svg">
<rect width="28.7" height="34" fill="black" fill-opacity="0" transform="translate(1 1)"/>
<path d="M28.6 6.1C28.4 5.2 28 4.49999 27.5 3.99999C27 3.49999 26.2 3.10001 25.2 2.70001C24.2 2.30001 22.7 1.89999 20.8 1.49999C18.9 1.09999 17.1 0.999994 15.6 0.999994C14 0.999994 12.3 1.19999 10.4 1.49999C8.49999 1.89999 6.99999 2.30001 5.99999 2.70001C4.99999 3.10001 4.20001 3.49999 3.70001 3.99999C3.20001 4.49999 2.8 5.2 2.6 6.1L0.999994 16.7V31.5H3.1V32.8C3.1 33.7 3.39999 34.3 3.89999 34.7C4.49999 35.1 5 35.1 5.6 34.7C6.2 34.3 6.49999 33.7 6.49999 32.8V31.5H23.6V32.8C23.6 33.7 23.9 34.3 24.6 34.7C25.3 35.1 26 35.1 26.6 34.7C27.3 34.3 27.6 33.7 27.6 32.8V31.5H29.7V16.7L28.6 6.1ZM3.39999 16.5L4.49999 8.4C4.59999 8 5 7.70001 5.6 7.70001H25.2C25.9 7.70001 26.2 7.9 26.3 8.4L27.4 16.7C27.4 16.8 27.5 16.9 27.5 17C27.5 17.3 27.4 17.6 27.2 17.8C27 18 26.7 18.1 26.3 18.1H4.6C4.2 18.1 4.00001 18 3.70001 17.8C3.50001 17.6 3.39999 17.3 3.39999 16.9V16.5Z" stroke="#003A70" stroke-width="1.002"/>
<path d="M6.89999 25.9003C6.49999 26.3003 5.90001 26.5003 5.30001 26.5003C4.70001 26.5003 4.20001 26.3003 3.70001 25.9003C3.20001 25.5003 2.99999 25.0003 2.99999 24.4003C2.99999 23.8003 3.20001 23.3003 3.70001 22.9003C4.20001 22.5003 4.70001 22.3003 5.30001 22.3003C5.90001 22.3003 6.39999 22.5003 6.89999 22.9003C7.29999 23.3003 7.6 23.8003 7.6 24.4003C7.6 24.9003 7.39999 25.4003 6.89999 25.9003Z" fill="#00AEEF"/>
<path d="M27.0997 25.9003C26.6997 26.3003 26.0997 26.5003 25.4997 26.5003C24.8997 26.5003 24.3997 26.3003 23.8997 25.9003C23.4997 25.5003 23.1997 25.0003 23.1997 24.4003C23.1997 23.8003 23.3997 23.3003 23.8997 22.9003C24.2997 22.5003 24.8997 22.3003 25.4997 22.3003C26.0997 22.3003 26.5997 22.5003 27.0997 22.9003C27.4997 23.3003 27.7997 23.8003 27.7997 24.4003C27.7997 24.9003 27.5997 25.4003 27.0997 25.9003Z" fill="#00AEEF"/>
<path d="M23.3001 5.00019C23.3001 5.40019 23.0001 5.80019 22.5001 5.80019H8.40009C8.00009 5.80019 7.6001 5.50019 7.6001 5.00019C7.6001 4.60019 7.90009 4.2002 8.40009 4.2002H22.6001C23.0001 4.3002 23.3001 4.60019 23.3001 5.00019Z" fill="#00AEEF"/>
</svg>
