<svg width="47" height="41" viewBox="0 0 47 41" fill="none" xmlns="http://www.w3.org/2000/svg">
<path d="M40.1943 25.0397C45.4034 19.1085 45.1533 10.3577 45.1533 9.94139L45.0944 8.80189L43.9466 8.76537C43.5861 8.76537 36.8024 8.58275 31.1151 11.9428C29.4817 5.57331 24.5742 0.956886 24.3388 0.730447L23.5441 0L22.698 0.781578C22.4552 1.02263 17.4889 5.63175 15.9217 11.9866C10.227 8.62658 3.45069 8.80919 3.09017 8.80919L1.94239 8.86763L1.87617 10.0071C1.87617 10.365 1.63338 19.1742 6.84252 25.1055C4.69926 25.9826 2.71192 27.196 0.956481 28.6993L0 29.5977L0.971196 30.4962C1.21399 30.6788 6.2392 35.2879 12.655 35.2879C14.1765 35.2634 15.6862 35.0173 17.1357 34.5575C17.0942 34.6923 17.0744 34.8328 17.0769 34.9738C17.0769 35.5728 17.3785 38.5092 23.0144 40.8174L23.5 41L23.9856 40.8174C29.6803 38.48 29.9231 35.5436 29.9231 34.9738C29.9292 34.8326 29.9092 34.6915 29.8643 34.5575C31.3138 35.0173 32.8235 35.2634 34.345 35.2879C40.7608 35.2879 45.786 30.6788 46.0288 30.4962L47 29.5977L46.0288 28.6993C44.3489 27.1111 42.3683 25.8698 40.2016 25.047L40.1943 25.0397ZM42.7326 11.1978C42.6149 13.7762 41.8276 20.0654 37.8325 24.0828C33.8373 28.1003 27.4216 28.8161 24.817 28.933C24.9347 26.3545 25.6631 20.0654 29.7171 16.0479C33.7711 12.0305 40.0692 11.3804 42.7326 11.1978ZM23.5441 3.35275C25.0598 4.96704 28.1426 8.86032 28.9961 13.4768C28.6356 13.7762 28.3339 14.0757 27.966 14.3752C25.8946 16.5304 24.3601 19.137 23.4853 21.9865C22.6364 19.1258 21.0985 16.5134 19.0045 14.3752C18.6901 14.0445 18.3453 13.7437 17.9745 13.4768C18.9457 8.86763 22.0358 5.03278 23.5441 3.35275ZM4.35567 11.2051C6.96024 11.3219 13.3172 12.0451 17.3712 16.0698C21.4252 20.0946 22.1536 26.3764 22.2713 28.9549C19.6741 28.8161 13.3172 28.0346 9.26315 24.1048C5.20914 20.1749 4.53961 13.8785 4.36302 11.2197L4.35567 11.2051ZM12.7065 32.8336C8.89527 32.8336 5.44458 30.7957 3.81121 29.5393C5.34942 28.4285 7.03896 27.5407 8.82905 26.9024C11.8524 29.1384 15.3954 30.5805 19.1296 31.0951C17.157 32.1702 14.9558 32.766 12.7065 32.8336ZM23.5441 38.4069C21.7268 37.5669 19.549 36.0695 19.549 34.9957C19.549 33.922 21.7563 32.3588 23.5441 31.5845C25.3615 32.4245 27.5393 33.922 27.5393 34.9957C27.5393 36.0695 25.332 37.5669 23.5441 38.4069ZM34.3818 32.8336C32.1324 32.7665 29.9311 32.1707 27.9587 31.0951C30.9826 30.613 34.9778 29.5393 38.2592 26.9024C40.0759 27.5271 41.7892 28.4157 43.3433 29.5393C41.6437 30.7372 38.2592 32.8336 34.3818 32.8336Z" fill="#003A70"/>
</svg>
