<svg width="30" height="25" viewBox="0 0 30 25" fill="none" xmlns="http://www.w3.org/2000/svg">
<rect width="29.7881" height="24.6791" fill="black" fill-opacity="0"/>
<path d="M15 24.6791C16.933 24.6791 18.5 22.9778 18.5 20.8791C18.5 18.7804 16.933 17.0791 15 17.0791C13.067 17.0791 11.5 18.7804 11.5 20.8791C11.5 22.9778 13.067 24.6791 15 24.6791Z" fill="#2A3460"/>
<path d="M23.3004 11.5794C23.2004 11.4794 23.2004 11.4794 23.1004 11.3794L22.9004 11.1794L22.8004 11.0794C18.3004 6.57935 11.4004 6.77935 7.1004 11.4793L6.70038 12.1794L6.0004 12.9793C5.2004 13.8793 5.2004 15.4794 6.0004 16.3794C6.9004 17.2794 8.2004 17.2794 9.1004 16.3794L10.3004 15.0794C13.0004 12.0794 17.5004 12.0794 20.2004 15.0794L21.1004 15.9793C21.9004 16.8793 23.3004 16.8793 24.2004 15.9793C24.6004 15.4793 24.8004 14.8793 24.8004 14.2793C24.8004 13.6793 24.6004 13.0794 24.2004 12.5794L23.3004 11.5794Z" fill="#00AEEF"/>
<path d="M29.2 6.87911L28.5 6.07911L27.9 5.4791C27.8 5.3791 27.7 5.27912 27.6 5.17912C20.3 -1.92088 9.10001 -1.72089 2.00001 5.77911L1.9 5.87911L0.600012 7.27911C-0.199988 8.17911 -0.199988 9.47911 0.600012 10.3791C1.40001 11.2791 2.6 11.2791 3.4 10.3791L4.69999 8.9791C10.4 2.8791 19.6 2.77911 25.3 8.87911L26.3 9.9791C27.1 10.8791 28.3 10.8791 29.1 9.9791C30 9.0791 30 7.67911 29.2 6.87911Z" fill="#00AEEF"/>
</svg>
